<svg width="19" height="19" viewBox="0 0 19 19" fill="none" xmlns="http://www.w3.org/2000/svg">
<g clip-path="url(#clip0_301_67)">
<path d="M15.8333 5.54167H14.4574C14.905 5.1471 15.2603 4.65886 15.4981 4.1116C15.7359 3.56433 15.8503 2.97145 15.8333 2.375C15.8333 2.16504 15.7499 1.96367 15.6015 1.81521C15.453 1.66674 15.2516 1.58333 15.0417 1.58333C14.8317 1.58333 14.6303 1.66674 14.4819 1.81521C14.3334 1.96367 14.25 2.16504 14.25 2.375C14.25 4.45075 12.373 5.16958 10.9456 5.41579C11.4724 4.48167 11.7896 3.44404 11.875 2.375C11.875 1.74511 11.6248 1.14102 11.1794 0.695621C10.734 0.250222 10.1299 0 9.5 0C8.87011 0 8.26602 0.250222 7.82062 0.695621C7.37522 1.14102 7.125 1.74511 7.125 2.375C7.21043 3.44404 7.52758 4.48167 8.05442 5.41579C6.62704 5.16958 4.75 4.45075 4.75 2.375C4.75 2.16504 4.66659 1.96367 4.51813 1.81521C4.36966 1.66674 4.1683 1.58333 3.95833 1.58333C3.74837 1.58333 3.54701 1.66674 3.39854 1.81521C3.25007 1.96367 3.16667 2.16504 3.16667 2.375C3.14965 2.97145 3.2641 3.56433 3.50189 4.1116C3.73967 4.65886 4.09497 5.1471 4.54258 5.54167H3.16667C2.32681 5.54167 1.52136 5.8753 0.927495 6.46916C0.33363 7.06303 0 7.86848 0 8.70833L0 9.5C0 9.91993 0.166815 10.3227 0.463748 10.6196C0.76068 10.9165 1.16341 11.0833 1.58333 11.0833V15.0417C1.58459 16.0911 2.00203 17.0972 2.74409 17.8392C3.48615 18.5813 4.49224 18.9987 5.54167 19H13.4583C14.5078 18.9987 15.5139 18.5813 16.2559 17.8392C16.998 17.0972 17.4154 16.0911 17.4167 15.0417V11.0833C17.8366 11.0833 18.2393 10.9165 18.5363 10.6196C18.8332 10.3227 19 9.91993 19 9.5V8.70833C19 7.86848 18.6664 7.06303 18.0725 6.46916C17.4786 5.8753 16.6732 5.54167 15.8333 5.54167ZM9.5 1.58333C9.70996 1.58333 9.91133 1.66674 10.0598 1.81521C10.2083 1.96367 10.2917 2.16504 10.2917 2.375C10.1961 3.21641 9.9265 4.02872 9.5 4.76029C9.0735 4.02872 8.8039 3.21641 8.70833 2.375C8.70833 2.16504 8.79174 1.96367 8.94021 1.81521C9.08867 1.66674 9.29004 1.58333 9.5 1.58333ZM1.58333 8.70833C1.58333 8.28841 1.75015 7.88568 2.04708 7.58875C2.34401 7.29182 2.74674 7.125 3.16667 7.125H8.70833V9.5H1.58333V8.70833ZM3.16667 15.0417V11.0833H8.70833V17.4167H5.54167C4.91178 17.4167 4.30769 17.1664 3.86229 16.721C3.41689 16.2756 3.16667 15.6716 3.16667 15.0417ZM15.8333 15.0417C15.8333 15.6716 15.5831 16.2756 15.1377 16.721C14.6923 17.1664 14.0882 17.4167 13.4583 17.4167H10.2917V11.0833H15.8333V15.0417ZM10.2917 9.5V7.125H15.8333C16.2533 7.125 16.656 7.29182 16.9529 7.58875C17.2499 7.88568 17.4167 8.28841 17.4167 8.70833V9.5H10.2917Z" fill="#8C8C8C"/>
</g>
<defs>
<clipPath id="clip0_301_67">
<rect width="19" height="19" fill="white"/>
</clipPath>
</defs>
</svg>
