<svg width="22" height="22" viewBox="0 0 22 22" fill="none" xmlns="http://www.w3.org/2000/svg">
<path fill-rule="evenodd" clip-rule="evenodd" d="M10.5696 0.493408C4.73252 0.493408 0 5.22505 0 11.063C0 15.733 3.02818 19.6948 7.22782 21.0926C7.7563 21.1904 7.95007 20.8636 7.95007 20.5844C7.95007 20.3325 7.94038 19.5001 7.93598 18.6167C4.99588 19.2561 4.37492 17.3695 4.37492 17.3695C3.894 16.1478 3.2017 15.8228 3.2017 15.8228C2.24251 15.1666 3.27392 15.1807 3.27392 15.1807C4.33528 15.2556 4.89371 16.2702 4.89371 16.2702C5.83616 17.8856 7.3661 17.4188 7.96945 17.1484C8.06457 16.4649 8.3385 15.999 8.64062 15.7347C6.29329 15.4678 3.8253 14.5615 3.8253 10.5116C3.8253 9.35775 4.23839 8.41441 4.91484 7.67454C4.80475 7.40766 4.44274 6.33309 5.01702 4.87713C5.01702 4.87713 5.90486 4.59352 7.92453 5.96051C8.76745 5.72622 9.67115 5.60907 10.5696 5.60467C11.468 5.60907 12.3726 5.72622 13.2172 5.96051C15.2343 4.59264 16.1212 4.87713 16.1212 4.87713C16.6964 6.33309 16.3344 7.40766 16.2252 7.67454C16.9025 8.41441 17.3129 9.35775 17.3129 10.5116C17.3129 14.5712 14.8405 15.4652 12.4871 15.7268C12.8658 16.0544 13.204 16.6983 13.204 17.6839C13.204 19.0985 13.1917 20.2365 13.1917 20.5844C13.1917 20.8654 13.3819 21.1957 13.9175 21.0917C18.1153 19.6921 21.14 15.7321 21.14 11.0638C21.1391 5.22593 16.4066 0.493408 10.5696 0.493408Z" fill="#278EA5"/>
<path d="M4.00322 15.6695C3.98032 15.7223 3.89752 15.7382 3.82178 15.7021C3.74515 15.6677 3.70199 15.5955 3.72665 15.5435C3.74955 15.4898 3.83235 15.4748 3.90898 15.5109C3.9856 15.5444 4.02964 15.6166 4.00322 15.6695Z" fill="black"/>
<path d="M4.43129 16.147C4.38108 16.1937 4.28243 16.1717 4.21549 16.0985C4.14591 16.0246 4.13358 15.9259 4.18466 15.8792C4.23663 15.8325 4.33176 15.8546 4.40134 15.9286C4.47092 16.0017 4.48414 16.0994 4.43129 16.147Z" fill="black"/>
<path d="M4.8479 16.7555C4.78273 16.8004 4.67703 16.7582 4.61185 16.6648C4.54667 16.5705 4.54667 16.4578 4.61361 16.4129C4.67879 16.368 4.78361 16.4085 4.84967 16.5018C4.91396 16.597 4.91396 16.7097 4.8479 16.7555Z" fill="black"/>
<path d="M5.41866 17.3439C5.36053 17.4082 5.23722 17.3906 5.14738 17.3034C5.05489 17.218 5.02935 17.0973 5.08748 17.033C5.14649 16.9687 5.27069 16.9872 5.36141 17.0735C5.45301 17.159 5.48032 17.2805 5.41866 17.3439Z" fill="black"/>
<path d="M6.20697 17.6849C6.18143 17.7677 6.06252 17.8056 5.94273 17.7704C5.82295 17.7343 5.74456 17.6374 5.76922 17.5537C5.79388 17.47 5.91367 17.4313 6.03434 17.4691C6.15324 17.5044 6.23164 17.6013 6.20697 17.6849Z" fill="black"/>
<path d="M7.07192 17.7482C7.07456 17.8354 6.97327 17.9076 6.84731 17.9094C6.72136 17.912 6.61831 17.8416 6.61742 17.7561C6.61742 17.6681 6.71696 17.5967 6.84291 17.5941C6.96886 17.5914 7.07192 17.6619 7.07192 17.7482Z" fill="black"/>
<path d="M7.87696 17.6119C7.89194 17.6964 7.80474 17.7845 7.67966 17.8074C7.55723 17.8303 7.44361 17.7774 7.42776 17.6929C7.41278 17.6057 7.50174 17.5185 7.62418 17.4956C7.74837 17.4736 7.86111 17.5247 7.87696 17.6119Z" fill="black"/>
</svg>
