<svg width="22" height="22" viewBox="0 0 22 22" fill="none" xmlns="http://www.w3.org/2000/svg">
<path d="M18.0115 18.8678H14.8792V13.9626C14.8792 12.7928 14.8583 11.2876 13.25 11.2876C11.6188 11.2876 11.3688 12.5616 11.3688 13.8782V18.8678H8.2375V8.7803H11.2448V10.1584H11.2865C11.9 9.11051 13.0396 8.48447 14.2531 8.52926C17.4281 8.52926 18.0125 10.6178 18.0125 13.3334L18.0115 18.8678ZM4.70312 7.40113C3.69896 7.40113 2.88542 6.58759 2.88542 5.58343C2.88542 4.57926 3.69896 3.76572 4.70312 3.76572C5.70729 3.76572 6.52083 4.57926 6.52083 5.58343C6.52083 6.58759 5.70729 7.40113 4.70312 7.40113ZM6.26875 18.8678H3.13333V8.7803H6.26875V18.8678ZM19.5729 0.857385H1.55938C0.708333 0.84801 0.0104167 1.5303 0 2.38134V20.4688C0.0104167 21.3209 0.708333 22.0032 1.55938 21.9938H19.5729C20.426 22.0043 21.1271 21.322 21.1385 20.4688V2.3803C21.126 1.52718 20.425 0.844885 19.5729 0.856343" fill="#278EA5"/>
</svg>
