<svg width="19" height="19" viewBox="0 0 19 19" fill="none" xmlns="http://www.w3.org/2000/svg">
<g clip-path="url(#clip0_301_72)">
<path d="M18.6527 16.9775L14.9753 13.2985C17.7269 9.62139 16.9766 4.40985 13.2995 1.65824C9.62237 -1.09337 4.41083 -0.343099 1.65922 3.33401C-1.0924 7.01113 -0.342122 12.2227 3.33499 14.9743C6.28875 17.1846 10.3457 17.1846 13.2995 14.9743L16.9784 18.6532C17.4408 19.1156 18.1903 19.1156 18.6526 18.6532C19.1149 18.1909 19.1149 17.4413 18.6526 16.9791L18.6527 16.9775ZM8.34789 14.2642C5.07985 14.2642 2.43061 11.615 2.43061 8.34692C2.43061 5.07887 5.07985 2.42963 8.34789 2.42963C11.6159 2.42963 14.2652 5.07887 14.2652 8.34692C14.2617 11.6135 11.6145 14.2607 8.34789 14.2642Z" fill="#8C8C8C"/>
</g>
<defs>
<clipPath id="clip0_301_72">
<rect width="19" height="19" fill="white"/>
</clipPath>
</defs>
</svg>
