<svg width="52" height="57" viewBox="0 0 52 57" fill="none" xmlns="http://www.w3.org/2000/svg">
<path d="M30.3564 5.11327V5.82045C28.5089 5.23761 26.5961 4.88888 24.6626 4.78235C25.1084 4.76107 25.5542 4.74987 26 4.74875C27.4597 4.74791 28.9169 4.86984 30.3564 5.11327Z" fill="#278EA5"/>
<path d="M52 30.8744C51.9972 34.4954 51.2452 38.0763 49.792 41.3897C48.3387 44.7032 46.2158 47.677 43.5581 50.1223C40.9003 52.5676 37.7657 54.431 34.3531 55.5944C30.9406 56.7577 27.3246 57.1955 23.7347 56.8801C20.1449 56.5646 16.6594 55.5027 13.4997 53.7618C10.3399 52.0209 7.57477 49.6389 5.37978 46.7672C3.1848 43.8954 1.60788 40.5965 0.749097 37.0798C-0.109683 33.5632 -0.231569 29.9055 0.391172 26.339C-0.000339577 31.8507 1.58806 37.3207 4.86799 41.756C4.9917 41.924 5.11707 42.092 5.24245 42.2515C8.21474 46.0646 11.829 48.2064 15.7307 48.9539C16.4142 49.0833 17.1047 49.1713 17.7986 49.2176C21.2055 49.4444 24.7746 48.6935 28.2886 47.1347C28.9806 46.8289 29.6711 46.4896 30.3565 46.1268C31.8852 45.3002 33.3518 44.3627 34.7447 43.3216C37.0138 41.6555 39.0634 39.7071 40.8447 37.523C46.4483 30.5586 47.809 22.069 41.9714 14.1471C41.6087 13.6566 41.2342 13.188 40.8447 12.7361V9.42526C44.2901 11.8291 47.1046 15.036 49.0473 18.7714C50.99 22.5068 52.0032 26.6596 52 30.8744Z" fill="#278EA5"/>
<path d="M30.3564 5.11327V5.82045C28.5089 5.23761 26.5961 4.88888 24.6626 4.78235C25.1084 4.76107 25.5542 4.74987 26 4.74875C27.4597 4.74791 28.9169 4.86984 30.3564 5.11327Z" fill="#278EA5"/>
<path d="M15.7307 21.3433V47.138C12.0379 46.3535 8.87671 44.195 6.29226 40.691C5.9178 40.1837 5.56786 39.6624 5.24243 39.1271V21.3433H15.7307Z" fill="#21E6C1"/>
<path d="M28.2885 12.6622V45.1794C25.134 46.6912 21.9929 47.4723 19.0089 47.4723C18.5993 47.4723 18.1964 47.4589 17.7986 47.4269V12.6622H28.2885Z" fill="#21E6C1"/>
<path d="M40.8447 0V34.4993C38.9858 37.318 36.4582 39.8326 33.6915 41.8904C32.6225 42.6883 31.509 43.4241 30.3564 44.0942V0H40.8447Z" fill="#21E6C1"/>
</svg>
