<svg width="101" height="81" viewBox="0 0 101 81" fill="none" xmlns="http://www.w3.org/2000/svg">
<path d="M52.8602 5.11327V5.82045C50.9771 5.23761 49.0276 4.88888 47.0569 4.78235C47.5112 4.76107 47.9656 4.74987 48.42 4.74875C49.9078 4.74791 51.393 4.86984 52.8602 5.11327Z" fill="white"/>
<path d="M74.92 30.8744C74.9171 34.4954 74.1507 38.0763 72.6695 41.3898C71.1883 44.7032 69.0246 47.677 66.3157 50.1223C63.6068 52.5676 60.4119 54.431 56.9338 55.5944C53.4556 56.7577 49.7701 57.1955 46.1112 56.8801C42.4522 56.5646 38.8998 55.5027 35.6793 53.7618C32.4587 52.0209 29.6404 49.6389 27.4032 46.7672C25.166 43.8954 23.5588 40.5965 22.6835 37.0798C21.8082 33.5632 21.684 29.9055 22.3187 26.339C21.9196 31.8507 23.5386 37.3207 26.8816 41.756C27.0077 41.924 27.1355 42.092 27.2633 42.2515C30.2927 46.0646 33.9764 48.2064 37.9532 48.9539C38.6498 49.0833 39.3536 49.1713 40.0609 49.2176C43.5333 49.4444 47.1711 48.6935 50.7526 47.1347C51.4579 46.8289 52.1616 46.4896 52.8602 46.1268C54.4183 45.3002 55.9132 44.3627 57.3328 43.3216C59.6455 41.6555 61.7347 39.7071 63.5502 37.523C69.2615 30.5586 70.6484 22.069 64.6986 14.1471C64.3288 13.6566 63.9472 13.188 63.5502 12.7361V9.42526C67.0618 11.8291 69.9304 15.036 71.9105 18.7714C73.8906 22.5068 74.9232 26.6596 74.92 30.8744Z" fill="white"/>
<path d="M52.8602 5.11327V5.82045C50.9771 5.23761 49.0276 4.88888 47.0569 4.78235C47.5112 4.76107 47.9656 4.74987 48.42 4.74875C49.9078 4.74791 51.393 4.86984 52.8602 5.11327Z" fill="white"/>
<path d="M37.9532 21.3433V47.138C34.1894 46.3535 30.9674 44.195 28.3333 40.691C27.9516 40.1837 27.5949 39.6624 27.2632 39.1271V21.3433H37.9532Z" fill="white"/>
<path d="M50.7525 12.6622V45.1794C47.5374 46.6912 44.3358 47.4723 41.2944 47.4723C40.877 47.4723 40.4664 47.4589 40.0609 47.4269V12.6622H50.7525Z" fill="white"/>
<path d="M63.5502 0V34.4993C61.6555 37.318 59.0793 39.8326 56.2594 41.8904C55.1699 42.6883 54.035 43.4241 52.8602 44.0942V0H63.5502Z" fill="white"/>
<path d="M4.3 80V69.14H0V66H12.54V69.14H8.26V80H4.3Z" fill="white"/>
<path d="M19.928 80V77.98L19.668 77.48V73.76C19.668 73.16 19.4813 72.7 19.108 72.38C18.748 72.0467 18.168 71.88 17.368 71.88C16.848 71.88 16.3213 71.9667 15.788 72.14C15.2546 72.3 14.8013 72.5267 14.428 72.82L13.148 70.24C13.7613 69.84 14.4946 69.5333 15.348 69.32C16.2146 69.0933 17.0746 68.98 17.928 68.98C19.688 68.98 21.048 69.3867 22.008 70.2C22.9813 71 23.468 72.26 23.468 73.98V80H19.928ZM16.728 80.18C15.8613 80.18 15.128 80.0333 14.528 79.74C13.928 79.4467 13.468 79.0467 13.148 78.54C12.8413 78.0333 12.688 77.4667 12.688 76.84C12.688 76.1733 12.8546 75.6 13.188 75.12C13.5346 74.6267 14.0613 74.2533 14.768 74C15.4746 73.7333 16.388 73.6 17.508 73.6H20.068V75.58H18.028C17.4146 75.58 16.9813 75.68 16.728 75.88C16.488 76.08 16.368 76.3467 16.368 76.68C16.368 77.0133 16.4946 77.28 16.748 77.48C17.0013 77.68 17.348 77.78 17.788 77.78C18.2013 77.78 18.5746 77.68 18.908 77.48C19.2546 77.2667 19.508 76.9467 19.668 76.52L20.188 77.92C19.988 78.6667 19.5946 79.2333 19.008 79.62C18.4346 79.9933 17.6746 80.18 16.728 80.18Z" fill="white"/>
<path d="M29.8066 80.18C28.8866 80.18 27.9866 80.0733 27.1066 79.86C26.2399 79.6467 25.5399 79.38 25.0066 79.06L26.1466 76.46C26.6532 76.7667 27.2466 77.0133 27.9266 77.2C28.6066 77.3733 29.2732 77.46 29.9266 77.46C30.5666 77.46 31.0066 77.3933 31.2466 77.26C31.4999 77.1267 31.6266 76.9467 31.6266 76.72C31.6266 76.5067 31.5066 76.3533 31.2666 76.26C31.0399 76.1533 30.7332 76.0733 30.3466 76.02C29.9732 75.9667 29.5599 75.9067 29.1066 75.84C28.6532 75.7733 28.1932 75.6867 27.7266 75.58C27.2732 75.46 26.8532 75.2867 26.4666 75.06C26.0932 74.82 25.7932 74.5 25.5666 74.1C25.3399 73.7 25.2266 73.1933 25.2266 72.58C25.2266 71.8867 25.4266 71.2733 25.8266 70.74C26.2399 70.1933 26.8399 69.7667 27.6266 69.46C28.4132 69.14 29.3732 68.98 30.5066 68.98C31.2666 68.98 32.0332 69.06 32.8066 69.22C33.5932 69.3667 34.2532 69.5933 34.7866 69.9L33.6466 72.48C33.1132 72.1733 32.5799 71.9667 32.0466 71.86C31.5132 71.74 31.0066 71.68 30.5266 71.68C29.8866 71.68 29.4332 71.7533 29.1666 71.9C28.9132 72.0467 28.7866 72.2267 28.7866 72.44C28.7866 72.6533 28.8999 72.82 29.1266 72.94C29.3532 73.0467 29.6532 73.1333 30.0266 73.2C30.4132 73.2533 30.8332 73.3133 31.2866 73.38C31.7399 73.4333 32.1932 73.52 32.6466 73.64C33.1132 73.76 33.5332 73.94 33.9066 74.18C34.2932 74.4067 34.5999 74.72 34.8266 75.12C35.0532 75.5067 35.1666 76.0067 35.1666 76.62C35.1666 77.2867 34.9599 77.8867 34.5466 78.42C34.1466 78.9533 33.5466 79.38 32.7466 79.7C31.9599 80.02 30.9799 80.18 29.8066 80.18Z" fill="white"/>
<path d="M39.9641 78L40.0641 73.46L44.4841 69.16H48.9841L44.0841 74.22L42.1441 75.78L39.9641 78ZM36.8041 80V65.16H40.6041V80H36.8041ZM44.7641 80L41.4441 75.84L43.8041 72.92L49.3641 80H44.7641Z" fill="white"/>
<path d="M54.375 72.14H60.835V75.2H54.375V72.14ZM54.655 80H50.695V66H61.675V69.06H54.655V80Z" fill="white"/>
<path d="M63.347 80V65.16H67.147V80H63.347Z" fill="white"/>
<path d="M75.0566 80.18C73.8699 80.18 72.8166 79.94 71.8966 79.46C70.9766 78.98 70.2499 78.32 69.7166 77.48C69.1966 76.6267 68.9366 75.6533 68.9366 74.56C68.9366 73.4667 69.1966 72.5 69.7166 71.66C70.2499 70.82 70.9766 70.1667 71.8966 69.7C72.8166 69.22 73.8699 68.98 75.0566 68.98C76.2432 68.98 77.2966 69.22 78.2166 69.7C79.1499 70.1667 79.8766 70.82 80.3966 71.66C80.9166 72.5 81.1766 73.4667 81.1766 74.56C81.1766 75.6533 80.9166 76.6267 80.3966 77.48C79.8766 78.32 79.1499 78.98 78.2166 79.46C77.2966 79.94 76.2432 80.18 75.0566 80.18ZM75.0566 77.16C75.4966 77.16 75.8832 77.06 76.2166 76.86C76.5632 76.66 76.8366 76.3667 77.0366 75.98C77.2366 75.58 77.3366 75.1067 77.3366 74.56C77.3366 74.0133 77.2366 73.5533 77.0366 73.18C76.8366 72.7933 76.5632 72.5 76.2166 72.3C75.8832 72.1 75.4966 72 75.0566 72C74.6299 72 74.2432 72.1 73.8966 72.3C73.5632 72.5 73.2899 72.7933 73.0766 73.18C72.8766 73.5533 72.7766 74.0133 72.7766 74.56C72.7766 75.1067 72.8766 75.58 73.0766 75.98C73.2899 76.3667 73.5632 76.66 73.8966 76.86C74.2432 77.06 74.6299 77.16 75.0566 77.16Z" fill="white"/>
<path d="M85.2239 80L81.3639 69.16H84.9639L88.0239 78.22H86.3039L89.4839 69.16H92.7239L95.7839 78.22H94.1039L97.2639 69.16H100.604L96.7439 80H93.0639L90.4639 72.5H91.5839L88.9039 80H85.2239Z" fill="white"/>
</svg>
