<svg width="101" height="85" viewBox="0 0 101 85" fill="none" xmlns="http://www.w3.org/2000/svg">
<path d="M4.38 80V69.14H0.08V66H12.62V69.14H8.34V80H4.38ZM20.008 80V77.98L19.748 77.48V73.76C19.748 73.16 19.5613 72.7 19.188 72.38C18.828 72.0467 18.248 71.88 17.448 71.88C16.928 71.88 16.4013 71.9667 15.868 72.14C15.3346 72.3 14.8813 72.5267 14.508 72.82L13.228 70.24C13.8413 69.84 14.5746 69.5333 15.428 69.32C16.2946 69.0933 17.1546 68.98 18.008 68.98C19.768 68.98 21.128 69.3867 22.088 70.2C23.0613 71 23.548 72.26 23.548 73.98V80H20.008ZM16.808 80.18C15.9413 80.18 15.208 80.0333 14.608 79.74C14.008 79.4467 13.548 79.0467 13.228 78.54C12.9213 78.0333 12.768 77.4667 12.768 76.84C12.768 76.1733 12.9346 75.6 13.268 75.12C13.6146 74.6267 14.1413 74.2533 14.848 74C15.5546 73.7333 16.468 73.6 17.588 73.6H20.148V75.58H18.108C17.4946 75.58 17.0613 75.68 16.808 75.88C16.568 76.08 16.448 76.3467 16.448 76.68C16.448 77.0133 16.5746 77.28 16.828 77.48C17.0813 77.68 17.428 77.78 17.868 77.78C18.2813 77.78 18.6546 77.68 18.988 77.48C19.3346 77.2667 19.588 76.9467 19.748 76.52L20.268 77.92C20.068 78.6667 19.6746 79.2333 19.088 79.62C18.5146 79.9933 17.7546 80.18 16.808 80.18ZM29.8866 80.18C28.9666 80.18 28.0666 80.0733 27.1866 79.86C26.3199 79.6467 25.6199 79.38 25.0866 79.06L26.2266 76.46C26.7332 76.7667 27.3266 77.0133 28.0066 77.2C28.6866 77.3733 29.3532 77.46 30.0066 77.46C30.6466 77.46 31.0866 77.3933 31.3266 77.26C31.5799 77.1267 31.7066 76.9467 31.7066 76.72C31.7066 76.5067 31.5866 76.3533 31.3466 76.26C31.1199 76.1533 30.8132 76.0733 30.4266 76.02C30.0532 75.9667 29.6399 75.9067 29.1866 75.84C28.7332 75.7733 28.2732 75.6867 27.8066 75.58C27.3532 75.46 26.9332 75.2867 26.5466 75.06C26.1732 74.82 25.8732 74.5 25.6466 74.1C25.4199 73.7 25.3066 73.1933 25.3066 72.58C25.3066 71.8867 25.5066 71.2733 25.9066 70.74C26.3199 70.1933 26.9199 69.7667 27.7066 69.46C28.4932 69.14 29.4532 68.98 30.5866 68.98C31.3466 68.98 32.1132 69.06 32.8866 69.22C33.6732 69.3667 34.3332 69.5933 34.8666 69.9L33.7266 72.48C33.1932 72.1733 32.6599 71.9667 32.1266 71.86C31.5932 71.74 31.0866 71.68 30.6066 71.68C29.9666 71.68 29.5132 71.7533 29.2466 71.9C28.9932 72.0467 28.8666 72.2267 28.8666 72.44C28.8666 72.6533 28.9799 72.82 29.2066 72.94C29.4332 73.0467 29.7332 73.1333 30.1066 73.2C30.4932 73.2533 30.9132 73.3133 31.3666 73.38C31.8199 73.4333 32.2732 73.52 32.7266 73.64C33.1932 73.76 33.6132 73.94 33.9866 74.18C34.3732 74.4067 34.6799 74.72 34.9066 75.12C35.1332 75.5067 35.2466 76.0067 35.2466 76.62C35.2466 77.2867 35.0399 77.8867 34.6266 78.42C34.2266 78.9533 33.6266 79.38 32.8266 79.7C32.0399 80.02 31.0599 80.18 29.8866 80.18ZM40.0441 78L40.1441 73.46L44.5641 69.16H49.0641L44.1641 74.22L42.2241 75.78L40.0441 78ZM36.8841 80V65.16H40.6841V80H36.8841ZM44.8441 80L41.5241 75.84L43.8841 72.92L49.4441 80H44.8441Z" fill="#21E6C1"/>
<path d="M54.455 72.14H60.915V75.2H54.455V72.14ZM54.735 80H50.775V66H61.755V69.06H54.735V80ZM63.427 80V65.16H67.227V80H63.427ZM75.1366 80.18C73.9499 80.18 72.8966 79.94 71.9766 79.46C71.0566 78.98 70.3299 78.32 69.7966 77.48C69.2766 76.6267 69.0166 75.6533 69.0166 74.56C69.0166 73.4667 69.2766 72.5 69.7966 71.66C70.3299 70.82 71.0566 70.1667 71.9766 69.7C72.8966 69.22 73.9499 68.98 75.1366 68.98C76.3232 68.98 77.3766 69.22 78.2966 69.7C79.2299 70.1667 79.9566 70.82 80.4766 71.66C80.9966 72.5 81.2566 73.4667 81.2566 74.56C81.2566 75.6533 80.9966 76.6267 80.4766 77.48C79.9566 78.32 79.2299 78.98 78.2966 79.46C77.3766 79.94 76.3232 80.18 75.1366 80.18ZM75.1366 77.16C75.5766 77.16 75.9632 77.06 76.2966 76.86C76.6432 76.66 76.9166 76.3667 77.1166 75.98C77.3166 75.58 77.4166 75.1067 77.4166 74.56C77.4166 74.0133 77.3166 73.5533 77.1166 73.18C76.9166 72.7933 76.6432 72.5 76.2966 72.3C75.9632 72.1 75.5766 72 75.1366 72C74.7099 72 74.3232 72.1 73.9766 72.3C73.6432 72.5 73.3699 72.7933 73.1566 73.18C72.9566 73.5533 72.8566 74.0133 72.8566 74.56C72.8566 75.1067 72.9566 75.58 73.1566 75.98C73.3699 76.3667 73.6432 76.66 73.9766 76.86C74.3232 77.06 74.7099 77.16 75.1366 77.16ZM85.3039 80L81.4439 69.16H85.0439L88.1039 78.22H86.3839L89.5639 69.16H92.8039L95.8639 78.22H94.1839L97.3439 69.16H100.684L96.8239 80H93.1439L90.5439 72.5H91.6639L88.9839 80H85.3039Z" fill="#278EA5"/>
<path d="M52.3564 5.11327V5.82045C50.5089 5.23761 48.5961 4.88888 46.6626 4.78235C47.1084 4.76107 47.5542 4.74987 48 4.74875C49.4597 4.74791 50.9169 4.86984 52.3564 5.11327Z" fill="#278EA5"/>
<path d="M74 30.8744C73.9972 34.4954 73.2452 38.0763 71.792 41.3897C70.3387 44.7032 68.2158 47.677 65.5581 50.1223C62.9003 52.5676 59.7657 54.431 56.3531 55.5944C52.9406 56.7577 49.3246 57.1955 45.7347 56.8801C42.1449 56.5646 38.6594 55.5027 35.4997 53.7618C32.3399 52.0209 29.5748 49.6389 27.3798 46.7672C25.1848 43.8954 23.6079 40.5965 22.7491 37.0798C21.8903 33.5632 21.7684 29.9055 22.3912 26.339C21.9997 31.8507 23.5881 37.3207 26.868 41.756C26.9917 41.924 27.1171 42.092 27.2425 42.2515C30.2147 46.0646 33.829 48.2064 37.7307 48.9539C38.4142 49.0833 39.1047 49.1713 39.7986 49.2176C43.2055 49.4444 46.7746 48.6935 50.2886 47.1347C50.9806 46.8289 51.6711 46.4896 52.3565 46.1268C53.8852 45.3002 55.3518 44.3627 56.7447 43.3216C59.0138 41.6555 61.0634 39.7071 62.8447 37.523C68.4483 30.5586 69.809 22.069 63.9714 14.1471C63.6087 13.6566 63.2342 13.188 62.8447 12.7361V9.42526C66.2901 11.8291 69.1046 15.036 71.0473 18.7714C72.99 22.5068 74.0032 26.6596 74 30.8744Z" fill="#278EA5"/>
<path d="M52.3564 5.11327V5.82045C50.5089 5.23761 48.5961 4.88888 46.6626 4.78235C47.1084 4.76107 47.5542 4.74987 48 4.74875C49.4597 4.74791 50.9169 4.86984 52.3564 5.11327Z" fill="#278EA5"/>
<path d="M37.7307 21.3433V47.138C34.0379 46.3535 30.8767 44.195 28.2923 40.691C27.9178 40.1837 27.5679 39.6624 27.2424 39.1271V21.3433H37.7307Z" fill="#21E6C1"/>
<path d="M50.2885 12.6622V45.1794C47.134 46.6912 43.9929 47.4723 41.0089 47.4723C40.5993 47.4723 40.1964 47.4589 39.7986 47.4269V12.6622H50.2885Z" fill="#21E6C1"/>
<path d="M62.8447 0V34.4993C60.9858 37.318 58.4582 39.8326 55.6915 41.8904C54.6225 42.6883 53.509 43.4241 52.3564 44.0942V0H62.8447Z" fill="#21E6C1"/>
</svg>
