<svg width="750" height="500" viewBox="0 0 750 500" fill="none" xmlns="http://www.w3.org/2000/svg">
<path d="M406 394.48V438.22H398.7V443H406V472.27H542.55V445.6H532.44V439.8H542.55V431.1H547.05V427.1H541.71V394.48H406Z" fill="#F5F5F5"/>
<path d="M506.3 394.61V471.75H542.55V445.12H532.44V439.8L542.55 439.98V431.28L547.13 431.29L547.05 426.79L541.71 426.66V394.48L506.3 394.61Z" fill="#E0E0E0"/>
<path d="M508.88 442.34C508.88 442.61 484.18 442.82 453.72 442.82C423.26 442.82 398.54 442.61 398.54 442.34C398.54 442.07 423.24 441.85 453.72 441.85C484.2 441.85 508.88 442.07 508.88 442.34Z" fill="#E0E0E0"/>
<path d="M508.88 437.9C508.88 438.16 484.18 438.38 453.72 438.38C423.26 438.38 398.54 438.16 398.54 437.9C398.54 437.64 423.24 437.41 453.72 437.41C484.2 437.41 508.88 437.63 508.88 437.9Z" fill="#E0E0E0"/>
<path d="M516 425.94C516 426.21 491.3 426.42 460.83 426.42C430.36 426.42 405.66 426.21 405.66 425.94C405.66 425.67 430.36 425.45 460.83 425.45C491.3 425.45 516 425.67 516 425.94Z" fill="#E0E0E0"/>
<path d="M516.65 458.52C516.65 458.79 491.95 459.01 461.48 459.01C431.01 459.01 406.31 458.79 406.31 458.52C406.31 458.25 431 458 461.48 458C491.96 458 516.65 458.26 516.65 458.52Z" fill="#E0E0E0"/>
<path d="M175.798 263.223L122.747 256.465L114.529 320.974L167.58 327.732L175.798 263.223Z" fill="white"/>
<path d="M175.801 263.227L122.75 256.469L116.634 304.471L169.686 311.229L175.801 263.227Z" fill="#EBEBEB"/>
<path d="M149.49 314.16C149.49 314.25 142.6 313.46 134.14 312.38C125.68 311.3 118.83 310.38 118.84 310.25C118.85 310.12 125.72 310.95 134.19 312.02C142.66 313.09 149.5 314.06 149.49 314.16Z" fill="#E0E0E0"/>
<path d="M131.74 315.25C131.74 315.34 128.74 315.04 125.06 314.58C122.83 314.366 120.614 314.032 118.42 313.58C120.657 313.682 122.887 313.906 125.1 314.25C127.33 314.464 129.546 314.798 131.74 315.25Z" fill="#E0E0E0"/>
<path d="M167.59 327.73C167.583 327.627 167.583 327.523 167.59 327.42C167.59 327.2 167.65 326.9 167.69 326.51C167.79 325.71 167.93 324.51 168.12 323.01C168.5 319.95 169.06 315.48 169.76 309.81C171.18 298.48 173.21 282.37 175.61 263.2L175.75 263.38L122.75 256.64L122.96 256.48C119.96 280.34 117.07 302.48 114.71 320.99L114.58 320.82L153.04 325.82L163.79 327.23L166.63 327.61L167.63 327.75L166.63 327.64L163.82 327.3L153.1 326L114.52 321.16H114.37V321.01C116.71 302.55 119.53 280.35 122.56 256.5V256.32H122.74L175.74 263.1H175.9V263.26C173.42 282.47 171.34 298.61 169.9 309.95C169.17 315.6 168.58 320.05 168.19 323.11C167.99 324.62 167.83 325.78 167.73 326.57L167.6 327.46C167.61 327.63 167.59 327.73 167.59 327.73Z" fill="#E0E0E0"/>
<path d="M98.5252 232.411L45.4775 239.198L53.7293 303.702L106.777 296.916L98.5252 232.411Z" fill="#F5F5F5"/>
<path d="M98.5326 232.404L45.4849 239.19L51.6251 287.189L104.673 280.403L98.5326 232.404Z" fill="#E0E0E0"/>
<path d="M85.8602 288.32C85.8602 288.41 79.0202 289.37 70.5602 290.46C62.1002 291.55 55.2302 292.34 55.2202 292.24C55.2102 292.14 62.0502 291.18 70.5202 290.1C78.9902 289.02 85.8502 288.22 85.8602 288.32Z" fill="#E0E0E0"/>
<path d="M68.9999 293.83C66.8098 294.284 64.5965 294.618 62.3699 294.83C60.157 295.174 57.9271 295.397 55.6899 295.5C57.8813 295.053 60.0942 294.719 62.3199 294.5C64.5329 294.156 66.7628 293.932 68.9999 293.83Z" fill="#E0E0E0"/>
<path d="M106.79 296.91C106.79 296.91 106.79 296.8 106.74 296.6C106.69 296.4 106.67 296.09 106.61 295.69C106.51 294.89 106.35 293.69 106.15 292.2C105.75 289.14 105.15 284.67 104.42 279.01L98.4201 232.42L98.6001 232.56L45.6001 239.37L45.7601 239.17C48.7601 263.02 51.6301 285.17 53.9901 303.68L53.8201 303.55L92.2001 298.7L103 297.36L105.84 297.02L106.84 296.91L105.84 297.05L103.03 297.42L92.3201 298.83L53.7701 303.83H53.6201V303.68C51.2401 285.22 48.3901 263.03 45.3301 239.18V239H45.5101L98.5101 232.23H98.6701V232.39C101.1 251.61 103.14 267.75 104.57 279.1C105.27 284.75 105.83 289.21 106.21 292.27C106.4 293.78 106.54 294.94 106.64 295.74C106.64 296.12 106.72 296.41 106.74 296.62L106.79 296.91Z" fill="#E0E0E0"/>
<path d="M147.802 224.547L95.7476 212.281L80.8316 275.577L132.886 287.844L147.802 224.547Z" fill="white"/>
<path d="M147.8 224.54L95.7461 212.273L84.6469 259.373L136.701 271.64L147.8 224.54Z" fill="#EBEBEB"/>
<path d="M116.31 272.45C116.31 272.54 109.54 271.04 101.24 269.08C92.9402 267.12 86.2402 265.46 86.2402 265.36C86.2402 265.26 93.0202 266.77 101.32 268.73C109.62 270.69 116.34 272.35 116.31 272.45Z" fill="#E0E0E0"/>
<path d="M98.5503 271.68C96.3452 271.334 94.1591 270.877 92.0003 270.31C89.8082 269.855 87.6418 269.284 85.5103 268.6C87.7175 268.947 89.9041 269.414 92.0602 270C94.2524 270.442 96.419 271.003 98.5503 271.68Z" fill="#E0E0E0"/>
<path d="M132.9 287.84L132.96 287.53C132.96 287.32 133.07 287.03 133.16 286.64C133.34 285.85 133.61 284.7 133.95 283.2C134.65 280.2 135.67 275.81 136.95 270.25C139.55 259.13 143.24 243.32 147.64 224.5L147.76 224.7L95.7202 212.45L95.9302 212.32C90.4102 235.72 85.2702 257.49 80.9902 275.61L80.8801 275.43L118.61 284.43L129.15 286.95L131.94 287.63L132.94 287.87L132 287.67L129.2 287L118.67 284.56L80.8102 275.72H80.6602V275.57L95.5402 212.27V212.09H95.7202L147.77 224.37H147.92V224.53C143.45 243.37 139.69 259.2 137.05 270.34C135.73 275.88 134.68 280.24 133.97 283.24C133.61 284.72 133.34 285.86 133.15 286.64C133.05 287.01 132.98 287.3 132.93 287.5L132.9 287.84Z" fill="#E0E0E0"/>
<path d="M659.29 259.852L604.233 280.92L629.854 347.875L684.911 326.807L659.29 259.852Z" fill="white"/>
<path d="M659.284 259.854L604.228 280.922L623.294 330.748L678.351 309.68L659.284 259.854Z" fill="#EBEBEB"/>
<path d="M660.26 323C660.26 323.11 653.26 325.91 644.43 329.28C635.6 332.65 628.49 335.28 628.43 335.18C628.37 335.08 635.43 332.27 644.26 328.9C653.09 325.53 660.22 322.92 660.26 323Z" fill="#E0E0E0"/>
<path d="M643.58 333.33C639.071 335.338 634.458 337.104 629.76 338.62C631.988 337.555 634.271 336.611 636.6 335.79C638.882 334.848 641.212 334.027 643.58 333.33Z" fill="#E0E0E0"/>
<path d="M684.91 326.78C684.91 326.78 684.91 326.67 684.78 326.46L684.41 325.53C684.09 324.7 683.62 323.53 683 321.9C681.78 318.73 680 314.1 677.72 308.23C632.93 280.63 639.82 269.16 659.12 259.89L659.35 259.99L604.35 281.08L604.47 280.83C613.93 305.59 622.74 328.62 630.06 347.83L629.85 347.74L669.85 332.54C674.66 330.71 678.44 329.28 681.03 328.31L683.98 327.2L684.98 326.82L683.98 327.22L681 328.31L669.89 332.61L629.89 348.01L629.73 348.07L629.67 347.91L604.05 281L603.98 280.81L604.16 280.74L659.22 259.74L659.38 259.68L659.44 259.84C667.04 279.84 673.44 296.56 677.91 308.35C680.14 314.22 681.91 318.85 683.1 322.02L684.45 325.63L684.8 326.55L684.91 326.78Z" fill="#E0E0E0"/>
<path d="M698.46 472.8C698.46 472.94 553.63 473.06 375.02 473.06C196.41 473.06 51.54 472.94 51.54 472.8C51.54 472.66 196.34 472.54 375.02 472.54C553.7 472.54 698.46 472.65 698.46 472.8Z" fill="#263238"/>
<path d="M712.067 124.325L584.524 140.935C581.025 141.391 578.557 144.597 579.013 148.097L583.377 181.604C583.833 185.103 587.039 187.571 590.539 187.115L718.082 170.505C721.581 170.049 724.049 166.843 723.593 163.343L719.229 129.836C718.773 126.337 715.567 123.869 712.067 124.325Z" fill="#FAFAFA"/>
<path d="M583.39 181.59C583.39 181.59 583.39 181.91 583.6 182.5C583.855 183.386 584.303 184.206 584.91 184.9C585.895 186.033 587.247 186.783 588.73 187.02C589.677 187.127 590.635 187.087 591.57 186.9L594.81 186.47L633.58 181.35L691.09 173.82L707.72 171.65L716.3 170.53C717.02 170.42 717.76 170.36 718.46 170.22C719.166 170.09 719.843 169.836 720.46 169.47C721.702 168.723 722.646 167.567 723.13 166.2C723.376 165.521 723.495 164.802 723.48 164.08C723.48 163.37 723.33 162.62 723.24 161.88C723.05 160.39 722.85 158.88 722.66 157.4C722.26 154.4 721.87 151.4 721.47 148.35C720.677 142.257 719.873 136.09 719.06 129.85C718.86 128.33 718.106 126.937 716.941 125.94C715.776 124.943 714.283 124.412 712.75 124.45C709.7 124.78 706.61 125.23 703.58 125.61L685.58 127.95L651.58 132.36L594.06 139.81L588.06 140.59L585.17 140.96C584.243 141.023 583.336 141.264 582.5 141.67C581.706 142.069 581.006 142.632 580.446 143.321C579.885 144.011 579.478 144.811 579.25 145.67C578.78 147.35 579.25 149.05 579.43 150.67C580.27 157.18 580.98 162.78 581.57 167.36C582.16 171.94 582.57 175.49 582.91 177.91C583.06 179.11 583.17 180.03 583.25 180.65C583.33 181.27 583.35 181.59 583.35 181.59C583.35 181.59 583.29 181.27 583.21 180.66C583.13 180.05 582.99 179.12 582.83 177.92C582.51 175.5 582.03 171.92 581.42 167.38C580.81 162.84 580.07 157.2 579.21 150.7C579.11 149.89 579 149.06 578.89 148.22C578.764 147.35 578.808 146.463 579.02 145.61C579.255 144.717 579.675 143.885 580.254 143.166C580.833 142.447 581.558 141.859 582.38 141.44C583.246 141.024 584.182 140.773 585.14 140.7L588.02 140.32L594.02 139.54L651.57 132L685.57 127.56L703.57 125.22C706.57 124.84 709.65 124.39 712.78 124.05C714.411 124.009 716 124.574 717.239 125.636C718.478 126.698 719.28 128.182 719.49 129.8C720.31 136.04 721.113 142.207 721.9 148.3C722.3 151.34 722.693 154.34 723.08 157.3C723.28 158.8 723.47 160.3 723.66 161.78C723.75 162.52 723.88 163.25 723.91 164.03C723.919 164.797 723.79 165.559 723.53 166.28C723.155 167.363 722.5 168.328 721.633 169.078C720.766 169.828 719.716 170.335 718.59 170.55C717.85 170.69 717.14 170.75 716.41 170.86L707.76 172L691.14 174.16L633.62 181.61L594.83 186.61L591.59 187.02C590.645 187.207 589.676 187.241 588.72 187.12C587.212 186.877 585.839 186.104 584.85 184.94C584.243 184.235 583.805 183.4 583.57 182.5C583.5 182.275 583.45 182.044 583.42 181.81L583.39 181.59Z" fill="#263238"/>
<path d="M715.116 168.992L709.584 126.511L687.818 129.346L693.35 171.827L715.116 168.992Z" fill="#278EA5"/>
<path d="M684.289 173L678.756 130.519L656.99 133.353L662.523 175.835L684.289 173Z" fill="#278EA5"/>
<path d="M653.462 177.016L647.93 134.534L626.163 137.369L631.696 179.85L653.462 177.016Z" fill="#278EA5"/>
<path d="M622.634 181.033L617.102 138.552L595.336 141.386L600.868 183.868L622.634 181.033Z" fill="#278EA5"/>
<g opacity="0.5">
<path d="M715.116 168.992L709.584 126.511L687.818 129.346L693.35 171.827L715.116 168.992Z" fill="black"/>
</g>
<g opacity="0.6">
<path d="M684.289 173L678.756 130.519L656.99 133.353L662.523 175.835L684.289 173Z" fill="black"/>
</g>
<g opacity="0.7">
<path d="M653.462 177.016L647.93 134.534L626.163 137.369L631.696 179.85L653.462 177.016Z" fill="black"/>
</g>
<g opacity="0.8">
<path d="M622.634 181.033L617.102 138.552L595.336 141.386L600.868 183.868L622.634 181.033Z" fill="black"/>
</g>
<path d="M583.38 175.69L568.24 146.35C567.417 144.75 567.262 142.89 567.809 141.176C568.357 139.462 569.562 138.036 571.16 137.21L684.77 78.6C685.561 78.1908 686.424 77.9414 687.311 77.8662C688.198 77.7911 689.091 77.8915 689.939 78.1618C690.787 78.432 691.573 78.8669 692.253 79.4414C692.933 80.0159 693.492 80.7189 693.9 81.51L709 110.85C709.409 111.642 709.658 112.506 709.733 113.394C709.807 114.282 709.706 115.176 709.435 116.025C709.164 116.874 708.728 117.661 708.152 118.342C707.577 119.022 706.873 119.582 706.08 119.99L592.51 178.6C591.72 179.009 590.857 179.258 589.97 179.334C589.083 179.409 588.19 179.308 587.342 179.038C586.494 178.768 585.707 178.333 585.028 177.759C584.348 177.184 583.788 176.481 583.38 175.69Z" fill="#FAFAFA"/>
<path d="M583.38 175.69C583.428 175.753 583.472 175.82 583.51 175.89C583.6 176.02 583.7 176.23 583.89 176.48C584.419 177.228 585.1 177.855 585.89 178.32C587.167 179.104 588.672 179.432 590.16 179.25C591.099 179.13 592.006 178.828 592.83 178.36L595.73 176.85L630.4 158.9L681.83 132.31L696.7 124.64L704.38 120.64C705.717 120.102 706.931 119.299 707.95 118.28C708.659 117.472 709.16 116.503 709.409 115.457C709.658 114.412 709.648 113.321 709.38 112.28C709.166 111.584 708.878 110.914 708.52 110.28L706.45 106.28L702.27 98.1801L693.73 81.6301C693.03 80.2656 691.876 79.1887 690.466 78.5861C689.056 77.9834 687.48 77.8928 686.01 78.3301C685.288 78.5766 684.592 78.8913 683.93 79.2701L681.87 80.3301L677.77 82.4501L661.7 90.7201L631.3 106.39L579.83 132.9L574.47 135.66L571.89 137C571.035 137.373 570.253 137.895 569.58 138.54C568.643 139.466 568.003 140.65 567.742 141.941C567.48 143.232 567.608 144.572 568.11 145.79C568.43 146.55 568.86 147.28 569.22 148.01L576.89 162.95C578.98 167.05 580.61 170.23 581.72 172.4C582.27 173.48 582.72 174.3 582.97 174.86C583.22 175.42 583.38 175.71 583.38 175.71C583.38 175.71 583.22 175.43 582.93 174.88L581.65 172.44C580.53 170.28 578.87 167.11 576.75 163.02L569 148.1C568.63 147.36 568.22 146.65 567.87 145.86C567.362 144.596 567.235 143.211 567.503 141.875C567.771 140.539 568.424 139.311 569.38 138.34C570.075 137.68 570.876 137.143 571.75 136.75L574.33 135.42L579.68 132.65L631.12 106.06L661.5 90.3701L677.57 82.0801L681.67 79.9601L683.73 78.9001C684.413 78.4985 685.133 78.1637 685.88 77.9001C687.438 77.4447 689.105 77.5448 690.597 78.1833C692.09 78.8217 693.314 79.9588 694.06 81.4001L702.62 98.0001L706.8 106.1L708.86 110.1C709.239 110.758 709.538 111.46 709.75 112.19C709.952 112.929 710.026 113.696 709.97 114.46C709.861 115.989 709.253 117.44 708.24 118.59C707.744 119.156 707.156 119.632 706.5 120C705.85 120.37 705.2 120.68 704.56 121L696.87 125L682 132.64L630.53 159.15L595.81 177L592.91 178.49C592.065 178.959 591.139 179.261 590.18 179.38C588.665 179.539 587.141 179.187 585.85 178.38C585.054 177.903 584.371 177.258 583.85 176.49C583.713 176.299 583.59 176.098 583.48 175.89C583.443 175.825 583.41 175.758 583.38 175.69Z" fill="#263238"/>
<path d="M703.166 119.408L683.524 81.3364L664.018 91.4004L683.659 129.472L703.166 119.408Z" fill="#278EA5"/>
<path d="M675.535 133.662L655.894 95.5898L636.387 105.654L656.029 143.726L675.535 133.662Z" fill="#278EA5"/>
<path d="M647.918 147.919L628.276 109.848L608.769 119.911L628.411 157.983L647.918 147.919Z" fill="#278EA5"/>
<path d="M620.296 162.168L600.654 124.096L581.147 134.16L600.789 172.232L620.296 162.168Z" fill="#278EA5"/>
<g opacity="0.1">
<path d="M703.166 119.408L683.524 81.3364L664.018 91.4004L683.659 129.472L703.166 119.408Z" fill="black"/>
</g>
<g opacity="0.2">
<path d="M675.535 133.662L655.893 95.5898L636.386 105.654L656.028 143.726L675.535 133.662Z" fill="black"/>
</g>
<g opacity="0.3">
<path d="M647.918 147.919L628.276 109.848L608.769 119.911L628.411 157.983L647.918 147.919Z" fill="black"/>
</g>
<g opacity="0.4">
<path d="M620.295 162.168L600.653 124.096L581.146 134.16L600.788 172.232L620.295 162.168Z" fill="black"/>
</g>
<path d="M586.85 175.06L561.66 154.41C560.948 153.829 560.357 153.113 559.921 152.304C559.485 151.494 559.213 150.607 559.12 149.692C559.027 148.777 559.115 147.853 559.379 146.973C559.644 146.092 560.079 145.272 560.66 144.56L641.43 46C642.011 45.2874 642.727 44.6964 643.536 44.2605C644.346 43.8246 645.233 43.5525 646.148 43.4596C647.063 43.3668 647.987 43.455 648.867 43.7193C649.748 43.9836 650.568 44.4188 651.28 45L676.48 65.65C677.193 66.231 677.784 66.9467 678.22 67.7562C678.655 68.5657 678.928 69.4531 679.02 70.3678C679.113 71.2825 679.025 72.2065 678.761 73.0871C678.496 73.9677 678.061 74.7876 677.48 75.5L596.74 174.04C596.16 174.76 595.443 175.357 594.631 175.799C593.819 176.24 592.927 176.516 592.008 176.611C591.088 176.706 590.159 176.617 589.274 176.351C588.389 176.085 587.565 175.646 586.85 175.06Z" fill="#FAFAFA"/>
<path d="M586.85 175.06L587.05 175.19C587.18 175.27 587.36 175.43 587.63 175.58C588.411 176.06 589.282 176.377 590.19 176.51C591.67 176.738 593.184 176.486 594.51 175.79C596.14 175.03 597.25 173.22 598.74 171.47L623.41 141.27L660 96.51L670.59 83.58L676.06 76.9C677.068 75.8681 677.875 74.6574 678.44 73.33C678.906 71.9661 678.934 70.4906 678.52 69.11C678.079 67.7157 677.216 66.4927 676.05 65.61C674.89 64.67 673.73 63.72 672.57 62.76L665.55 57L651.17 45.2C649.988 44.2414 648.522 43.7 647 43.66C645.474 43.6339 643.983 44.1237 642.77 45.05C642.18 45.524 641.649 46.068 641.19 46.67L639.72 48.46C638.72 49.66 637.77 50.84 636.8 52.03L625.31 66L603.65 92.41L567 137.12L563.17 141.78L561.29 144C560.662 144.685 560.145 145.464 559.76 146.31C559.068 147.963 559.043 149.819 559.69 151.49C559.997 152.279 560.451 153.002 561.03 153.62C561.614 154.206 562.236 154.754 562.89 155.26L575.89 165.91C579.44 168.84 582.19 171.12 584.07 172.66L586.19 174.43C586.67 174.82 586.9 175.04 586.9 175.04L586.16 174.46L584 172.74L575.77 166.05L562.77 155.45C562.107 154.939 561.476 154.388 560.88 153.8C560.282 153.157 559.811 152.407 559.49 151.59C558.815 149.863 558.837 147.941 559.55 146.23C559.939 145.361 560.466 144.561 561.11 143.86L562.95 141.61L566.76 136.95L603.39 92.18L625 65.75L636.45 51.75L639.37 48.18C639.86 47.59 640.37 46.99 640.83 46.39C641.312 45.7643 641.866 45.1971 642.48 44.7C643.772 43.7241 645.355 43.2104 646.974 43.2412C648.594 43.272 650.156 43.8456 651.41 44.87L665.8 56.69L672.85 62.46L676.32 65.31C677.55 66.2352 678.459 67.522 678.92 68.99C679.361 70.4524 679.329 72.0166 678.83 73.46C678.588 74.1798 678.23 74.8553 677.77 75.46C677.32 76.05 676.85 76.59 676.39 77.16C674.55 79.4133 672.727 81.64 670.92 83.84C667.3 88.24 663.767 92.5467 660.32 96.76L623.63 141.47L598.86 171.59L596.79 174.11C596.009 175.076 594.985 175.816 593.824 176.255C592.662 176.695 591.404 176.817 590.18 176.61C589.262 176.462 588.387 176.121 587.61 175.61C587.345 175.443 587.092 175.259 586.85 175.06Z" fill="#263238"/>
<path d="M674.696 75.9718L641.559 48.8204L627.647 65.7989L660.784 92.9504L674.696 75.9718Z" fill="#278EA5"/>
<path d="M654.988 100.013L621.851 72.8613L607.939 89.8398L641.076 116.991L654.988 100.013Z" fill="#278EA5"/>
<path d="M635.283 124.062L602.146 96.9109L588.234 113.889L621.371 141.041L635.283 124.062Z" fill="#278EA5"/>
<path d="M615.582 148.11L582.445 120.958L568.534 137.937L601.671 165.088L615.582 148.11Z" fill="#278EA5"/>
<g opacity="0.5">
<path d="M674.696 75.9718L641.559 48.8204L627.647 65.7989L660.784 92.9504L674.696 75.9718Z" fill="white"/>
</g>
<g opacity="0.6">
<path d="M654.988 100.013L621.851 72.8613L607.939 89.8398L641.076 116.991L654.988 100.013Z" fill="white"/>
</g>
<g opacity="0.7">
<path d="M635.283 124.062L602.146 96.9109L588.234 113.889L621.371 141.041L635.283 124.062Z" fill="white"/>
</g>
<g opacity="0.8">
<path d="M615.582 148.11L582.445 120.958L568.534 137.937L601.671 165.088L615.582 148.11Z" fill="white"/>
</g>
<path d="M588.295 34.3036L550.439 156.975C549.378 160.411 551.304 164.055 554.74 165.116L586.798 175.009C590.233 176.069 593.878 174.143 594.938 170.708L632.794 48.0359C633.854 44.6004 631.929 40.9559 628.493 39.8958L596.435 30.0027C592.999 28.9425 589.355 30.8681 588.295 34.3036Z" fill="#FAFAFA"/>
<path d="M586.82 175C587.123 175.08 587.43 175.143 587.74 175.19C588.93 175.368 590.147 175.211 591.253 174.736C592.359 174.261 593.31 173.486 594 172.5C594.523 171.706 594.902 170.826 595.12 169.9L596.12 166.77L607.58 129.41L624.62 74C626.22 68.7933 627.863 63.46 629.55 58L632.1 49.73C632.31 49.04 632.55 48.33 632.73 47.64C632.893 46.946 632.947 46.2307 632.89 45.52C632.733 44.0843 632.1 42.7426 631.09 41.71C630.587 41.1913 629.994 40.7678 629.34 40.46C628.661 40.1708 627.963 39.9302 627.25 39.74L622.94 38.41L614.22 35.72L596.4 30.22C594.932 29.7696 593.35 29.8691 591.95 30.5C590.55 31.1146 589.428 32.2262 588.8 33.62C588.5 34.3 588.3 35.07 588.06 35.8L587.38 38C586.93 39.48 586.47 41 586.02 42.41C584.213 48.27 582.43 54.04 580.67 59.72L570.57 92.43L553.43 147.81L551.64 153.58C551.35 154.52 551.06 155.44 550.78 156.36C550.451 157.228 550.288 158.151 550.3 159.08C550.322 159.968 550.531 160.841 550.911 161.644C551.292 162.447 551.837 163.161 552.51 163.74C553.8 164.93 555.51 165.19 557.09 165.74L573.15 170.74L583.29 173.9L585.92 174.74L586.82 175.03L585.91 174.78L583.27 173.98L573.1 170.88L557 166L554.61 165.26C553.309 164.839 552.17 164.026 551.35 162.932C550.53 161.838 550.069 160.517 550.03 159.15C550.013 158.192 550.176 157.239 550.51 156.34C550.8 155.43 551.08 154.5 551.37 153.56C551.94 151.69 552.54 149.76 553.14 147.79C558 132 563.8 113.19 570.22 92.33C573.43 81.9 576.81 70.96 580.31 59.61C582.06 53.94 583.84 48.16 585.64 42.31C586.1 40.84 586.55 39.37 587 37.89L587.69 35.68C587.899 34.9236 588.15 34.1792 588.44 33.45C589.106 31.9697 590.296 30.7875 591.78 30.13C593.271 29.4581 594.956 29.3515 596.52 29.83L614.34 35.33L623.06 38L627.36 39.33C628.09 39.529 628.805 39.7797 629.5 40.08C630.193 40.4115 630.825 40.8578 631.37 41.4C632.437 42.5041 633.106 43.9329 633.27 45.46C633.339 46.2109 633.281 46.968 633.1 47.7C632.91 48.44 632.68 49.11 632.47 49.81C631.61 52.6 630.76 55.35 629.91 58.08C628.23 63.54 626.583 68.8733 624.97 74.08L607.83 129.46L596.24 166.79C595.9 167.89 595.58 168.93 595.24 169.91C595.09 170.4 594.94 170.91 594.77 171.32L594.46 171.96C594.33 172.15 594.22 172.35 594.09 172.54C593.213 173.788 591.924 174.687 590.45 175.08C589.555 175.331 588.616 175.379 587.7 175.22C587.466 175.184 587.236 175.13 587.01 175.06L586.82 175Z" fill="#263238"/>
<path d="M630.272 49.9748L589.337 37.3424L582.864 58.3164L623.8 70.9488L630.272 49.9748Z" fill="#278EA5"/>
<path d="M621.102 79.6802L580.167 67.0477L573.695 88.0217L614.63 100.654L621.102 79.6802Z" fill="#278EA5"/>
<path d="M611.939 109.388L571.003 96.7557L564.531 117.73L605.466 130.362L611.939 109.388Z" fill="#278EA5"/>
<path d="M602.769 139.081L561.843 126.451L555.371 147.425L596.296 160.055L602.769 139.081Z" fill="#278EA5"/>
<g opacity="0.2">
<path d="M621.102 79.6802L580.167 67.0477L573.695 88.0217L614.63 100.654L621.102 79.6802Z" fill="white"/>
</g>
<g opacity="0.3">
<path d="M611.939 109.388L571.003 96.7557L564.531 117.73L605.466 130.362L611.939 109.388Z" fill="white"/>
</g>
<g opacity="0.4">
<path d="M602.769 139.081L561.844 126.451L555.371 147.425L596.297 160.055L602.769 139.081Z" fill="white"/>
</g>
<g opacity="0.1">
<path d="M630.272 49.9748L589.337 37.3424L582.864 58.3164L623.8 70.9488L630.272 49.9748Z" fill="white"/>
</g>
<path d="M591.54 168.29C591.033 169.176 590.273 169.891 589.359 170.345C588.444 170.798 587.415 170.969 586.403 170.837C585.39 170.704 584.44 170.274 583.673 169.6C582.906 168.926 582.356 168.04 582.094 167.053C581.832 166.066 581.869 165.024 582.2 164.058C582.532 163.092 583.143 162.247 583.956 161.629C584.769 161.012 585.747 160.65 586.767 160.589C587.786 160.529 588.8 160.773 589.68 161.29C590.849 161.977 591.7 163.097 592.049 164.408C592.397 165.718 592.214 167.113 591.54 168.29Z" fill="#455A64"/>
<path d="M591.54 168.29C591.54 168.29 591.75 167.88 591.96 167.1C592.252 165.998 592.168 164.829 591.72 163.78C591.398 163.007 590.887 162.327 590.233 161.803C589.58 161.278 588.805 160.927 587.98 160.78C587.011 160.608 586.013 160.727 585.11 161.12C584.138 161.539 583.323 162.255 582.784 163.166C582.245 164.077 582.009 165.136 582.11 166.19C582.209 167.169 582.599 168.095 583.23 168.85C583.761 169.494 584.444 169.996 585.218 170.308C585.991 170.621 586.831 170.735 587.66 170.64C588.791 170.51 589.847 170.007 590.66 169.21C591.23 168.65 591.45 168.21 591.48 168.21C591.51 168.21 591.48 168.32 591.34 168.51C591.18 168.784 590.988 169.039 590.77 169.27C589.959 170.148 588.865 170.714 587.68 170.87C586.863 170.975 586.032 170.892 585.25 170.63C584.351 170.313 583.553 169.761 582.94 169.03C582.255 168.225 581.83 167.232 581.72 166.18C581.619 165.05 581.884 163.918 582.474 162.95C583.064 161.981 583.95 161.228 585 160.8C585.647 160.521 586.344 160.373 587.048 160.367C587.753 160.36 588.452 160.495 589.104 160.762C589.756 161.029 590.348 161.424 590.846 161.924C591.343 162.423 591.736 163.017 592 163.67C592.448 164.776 592.494 166.004 592.13 167.14C592.043 167.449 591.915 167.745 591.75 168.02C591.62 168.2 591.56 168.3 591.54 168.29Z" fill="#263238"/>
<path d="M562.43 67.38H223.21V293.53H562.43V67.38Z" fill="#FAFAFA"/>
<path d="M562.44 293.53C562.44 291.83 562.36 205.22 562.23 67.38L562.44 67.58L223.24 67.64L223.5 67.38C223.5 147.91 223.5 224.51 223.5 293.53L223.26 293.29L562.49 293.53L223.26 293.76H223V293.53C223 224.53 223 147.91 223 67.38V67.12H223.29H562.49H562.69V67.33C562.52 205.22 562.44 291.83 562.44 293.53Z" fill="#263238"/>
<path d="M403.78 165.74C403.78 165.74 403.78 165.48 403.78 165.01C403.78 164.54 403.78 163.82 403.78 162.93C403.78 161.09 403.78 158.44 403.72 155.07C403.72 148.3 403.66 138.64 403.61 126.99L403.83 127.2H354.03C353.97 127.2 354.52 126.71 354.29 126.94V137.24C354.29 140.627 354.29 143.96 354.29 147.24C354.29 153.73 354.29 159.93 354.29 165.72L354.06 165.48L389.97 165.6L400.18 165.66H402.9H403.61H403.86H402.95H400.28L390.12 165.72L354 166H353.77V165.77C353.77 159.98 353.77 153.77 353.77 147.29C353.77 144.04 353.77 140.72 353.77 137.29V127L354.03 126.74H403.83H404V127C403.95 138.71 403.92 148.41 403.89 155.21C403.89 158.57 403.89 161.21 403.83 163.03C403.83 163.9 403.83 164.58 403.83 165.03C403.83 165.48 403.78 165.74 403.78 165.74Z" fill="#263238"/>
<path d="M508.77 257.5H241.43V87.0699H508.77V257.5ZM242.43 256.5H507.77V88.0699H242.43V256.5Z" fill="#263238"/>
<path d="M508.27 87.5699H241.93V96.1999H508.27V87.5699Z" fill="#263238"/>
<path d="M251.6 133.73H241.93V257H251.6V133.73Z" fill="#263238"/>
<path d="M251.6 87.5699H241.93V103.82H251.6V87.5699Z" fill="#263238"/>
<path d="M265.69 129.14L248.02 103.14L251.13 101.03L268.8 127.03L265.69 129.14ZM249.41 103.41L266 127.75L267.46 126.75L250.92 102.41L249.41 103.41Z" fill="#263238"/>
<path d="M277.25 191H254V166H277.23L277.25 191ZM255 190H276.23V167H255V190Z" fill="#263238"/>
<path d="M508.27 247.24H241.93V257H508.27V247.24Z" fill="#263238"/>
<path d="M265.64 185.45C264.322 185.452 263.033 185.063 261.937 184.332C260.84 183.602 259.985 182.562 259.48 181.346C258.974 180.129 258.841 178.789 259.096 177.497C259.352 176.204 259.986 175.017 260.917 174.084C261.848 173.152 263.035 172.516 264.327 172.259C265.619 172.001 266.959 172.132 268.176 172.636C269.394 173.14 270.434 173.993 271.167 175.089C271.899 176.184 272.29 177.472 272.29 178.79C272.287 180.554 271.586 182.245 270.34 183.493C269.093 184.741 267.404 185.445 265.64 185.45ZM265.64 173.13C264.52 173.128 263.425 173.458 262.493 174.079C261.56 174.7 260.833 175.583 260.403 176.617C259.974 177.651 259.86 178.789 260.077 179.888C260.295 180.987 260.833 181.996 261.624 182.789C262.415 183.581 263.424 184.121 264.522 184.34C265.62 184.56 266.759 184.448 267.793 184.02C268.828 183.592 269.713 182.867 270.335 181.936C270.958 181.005 271.29 179.91 271.29 178.79C271.287 177.291 270.691 175.855 269.633 174.794C268.574 173.734 267.138 173.135 265.64 173.13Z" fill="#263238"/>
<path d="M425.21 120H335.21V95.7H425.21V120ZM336.21 119H424.21V96.7H336.21V119Z" fill="#263238"/>
<path d="M365.58 116.88L355 108.05L363.83 97.5L374.38 106.33L365.58 116.88ZM356.43 107.93L365.43 115.48L372.98 106.48L363.98 98.93L356.43 107.93Z" fill="#263238"/>
<path d="M379.63 116.88L369.08 108.05L377.91 97.5L388.47 106.33L379.63 116.88ZM370.49 107.93L379.49 115.48L387.04 106.48L378.04 98.93L370.49 107.93Z" fill="#263238"/>
<path d="M393.69 116.88L383.13 108.05L392 97.5L402.56 106.33L393.69 116.88ZM384.54 107.93L393.54 115.48L401.09 106.48L392.09 98.93L384.54 107.93Z" fill="#263238"/>
<path d="M439.53 115.44C437.898 115.44 436.303 114.956 434.946 114.05C433.59 113.143 432.532 111.855 431.908 110.347C431.283 108.84 431.12 107.181 431.438 105.58C431.757 103.98 432.542 102.51 433.696 101.356C434.85 100.203 436.32 99.4168 437.92 99.0985C439.521 98.7801 441.179 98.9435 442.687 99.5679C444.194 100.192 445.483 101.25 446.389 102.606C447.296 103.963 447.78 105.558 447.78 107.19C447.777 109.377 446.907 111.474 445.361 113.021C443.814 114.567 441.717 115.437 439.53 115.44ZM439.53 99.9399C438.096 99.9399 436.694 100.365 435.502 101.162C434.31 101.958 433.38 103.091 432.832 104.415C432.283 105.74 432.139 107.198 432.419 108.604C432.699 110.011 433.389 111.303 434.403 112.316C435.417 113.33 436.709 114.021 438.115 114.301C439.522 114.58 440.979 114.437 442.304 113.888C443.629 113.339 444.761 112.41 445.558 111.218C446.355 110.026 446.78 108.624 446.78 107.19C446.777 105.268 446.012 103.425 444.653 102.066C443.294 100.707 441.452 99.9426 439.53 99.9399Z" fill="#263238"/>
<path d="M329.49 117.46H290.9V95.7H329.49V117.46ZM291.9 116.46H328.49V96.7H291.9V116.46Z" fill="#263238"/>
<path d="M499.88 167.73H477.6V110.35H499.88V167.73ZM478.6 166.73H498.88V111.35H478.6V166.73Z" fill="#263238"/>
<path d="M508.27 87.5699H499.38V247.24H508.27V87.5699Z" fill="#263238"/>
<path d="M467.12 155.54H465.5C463.705 155.537 461.985 154.823 460.716 153.554C459.447 152.285 458.733 150.565 458.73 148.77V135.77C458.733 133.975 459.447 132.255 460.716 130.986C461.985 129.717 463.705 129.003 465.5 129H467.12C468.915 129.003 470.635 129.717 471.904 130.986C473.173 132.255 473.887 133.975 473.89 135.77V148.77C473.887 150.565 473.173 152.285 471.904 153.554C470.635 154.823 468.915 155.537 467.12 155.54ZM465.5 130C463.97 130.003 462.504 130.611 461.423 131.693C460.341 132.774 459.733 134.241 459.73 135.77V148.77C459.733 150.299 460.341 151.766 461.423 152.847C462.504 153.929 463.97 154.537 465.5 154.54H467.12C468.649 154.537 470.116 153.929 471.197 152.847C472.279 151.766 472.887 150.299 472.89 148.77V135.77C472.887 134.241 472.279 132.774 471.197 131.693C470.116 130.611 468.649 130.003 467.12 130H465.5Z" fill="#263238"/>
<path d="M362.81 195.25C362.81 195.39 337.56 195.51 306.42 195.51C275.28 195.51 250.02 195.39 250.02 195.25C250.02 195.11 275.26 194.99 306.42 194.99C337.58 194.99 362.81 195.11 362.81 195.25Z" fill="#263238"/>
<path d="M362 216.19C361.844 215.151 361.78 214.1 361.81 213.05C361.76 211.11 361.74 208.42 361.74 205.46C361.74 202.5 361.74 199.81 361.81 197.87C361.78 196.816 361.844 195.762 362 194.72C362.143 195.764 362.204 196.817 362.18 197.87C362.18 199.81 362.26 202.49 362.26 205.46C362.26 208.43 362.26 211.11 362.18 213.05C362.203 214.1 362.143 215.15 362 216.19Z" fill="#263238"/>
<path d="M280.55 248.41H251.1V194.75H280.55V248.41ZM252.1 247.41H279.55V195.75H252.1V247.41Z" fill="#263238"/>
<path d="M541.72 87.5699C541.72 87.7099 530.63 87.8299 516.95 87.8299C503.27 87.8299 492.18 87.7099 492.18 87.5699C492.18 87.4299 503.26 87.3099 516.95 87.3099C530.64 87.3099 541.72 87.4199 541.72 87.5699Z" fill="#263238"/>
<path d="M541.32 272.85C541.18 272.85 541.06 230.17 541.06 177.54C541.06 124.91 541.18 82.22 541.32 82.22C541.46 82.22 541.58 124.89 541.58 177.54C541.58 230.19 541.46 272.85 541.32 272.85Z" fill="#263238"/>
<path d="M551.23 257.39C551.23 257.54 541.29 257.66 529.04 257.66C516.79 257.66 506.84 257.54 506.84 257.39C506.84 257.24 516.78 257.13 529.04 257.13C541.3 257.13 551.23 257.25 551.23 257.39Z" fill="#263238"/>
<path d="M507.63 272.06C507.373 268.763 507.286 265.456 507.37 262.15C507.286 258.844 507.373 255.537 507.63 252.24C507.893 255.536 507.98 258.844 507.89 262.15C507.98 265.456 507.893 268.764 507.63 272.06Z" fill="#263238"/>
<path d="M244.07 268.1C244.07 267.95 310.07 267.84 391.5 267.84C472.93 267.84 538.94 267.95 538.94 268.1C538.94 268.25 472.94 268.36 391.5 268.36C310.06 268.36 244.07 268.24 244.07 268.1Z" fill="#263238"/>
<path d="M242.89 272.85C242.627 270.219 242.54 267.573 242.63 264.93C242.54 262.284 242.627 259.635 242.89 257C243.148 259.635 243.234 262.284 243.15 264.93C243.234 267.573 243.147 270.218 242.89 272.85Z" fill="#263238"/>
<path d="M268.66 127C268.45 127.259 268.208 127.491 267.94 127.69C267.46 128.11 266.72 128.69 265.78 129.34C263.304 131.035 260.582 132.34 257.71 133.21C254.835 134.051 251.864 134.524 248.87 134.62C247.72 134.62 246.8 134.62 246.16 134.62C245.824 134.642 245.487 134.611 245.16 134.53C245.16 134.44 246.57 134.42 248.84 134.25C251.79 134.04 254.709 133.52 257.55 132.7C260.369 131.835 263.059 130.597 265.55 129.02C267.49 127.8 268.6 126.92 268.66 127Z" fill="#263238"/>
<path d="M378 242.52L360.33 216.52L363.44 214.41L381.1 240.41L378 242.52ZM361.72 216.79L378.26 241.13L379.72 240.13L363.17 215.8L361.72 216.79Z" fill="#263238"/>
<path d="M381 240.36C380.793 240.622 380.551 240.854 380.28 241.05C379.593 241.642 378.872 242.193 378.12 242.7C375.647 244.403 372.924 245.712 370.05 246.58C367.172 247.411 364.203 247.885 361.21 247.99C360.06 247.99 359.14 247.99 358.5 247.99C358.164 248.007 357.826 247.973 357.5 247.89C357.5 247.81 358.91 247.78 361.18 247.61C364.129 247.404 367.049 246.888 369.89 246.07C372.709 245.202 375.4 243.961 377.89 242.38C379.79 241.18 380.9 240.29 381 240.36Z" fill="#263238"/>
<path d="M354 118.41C353.86 118.41 353.74 113.54 353.74 107.54C353.74 101.54 353.86 96.66 354 96.66C354.14 96.66 354.26 101.53 354.26 107.54C354.26 113.55 354.12 118.41 354 118.41Z" fill="#263238"/>
<path d="M403 119.36C402.86 119.36 402.74 114.44 402.74 108.36C402.74 102.28 402.86 97.36 403 97.36C403.14 97.36 403.27 102.28 403.27 108.36C403.27 114.44 403.11 119.36 403 119.36Z" fill="#263238"/>
<path d="M477.58 202.18C477.556 201.998 477.556 201.813 477.58 201.63C477.58 201.21 477.66 200.69 477.72 200.06C477.88 198.63 478.09 196.68 478.35 194.3L479.35 185.77C479.483 184.974 479.536 184.167 479.51 183.36C479.479 182.968 479.342 182.593 479.113 182.273C478.884 181.954 478.571 181.704 478.21 181.55C477.394 181.242 476.555 181.002 475.7 180.83L473.01 180.18L454.46 175.6L448.85 174.15L447.33 173.73C447.149 173.697 446.973 173.636 446.81 173.55C446.993 173.552 447.175 173.579 447.35 173.63L448.89 173.95L454.54 175.24L473.13 179.68L475.81 180.33C476.708 180.503 477.588 180.757 478.44 181.09C478.874 181.298 479.251 181.606 479.54 181.99C479.804 182.38 479.963 182.831 480 183.3C480.034 184.147 479.973 184.996 479.82 185.83C479.41 189.02 479.03 191.9 478.71 194.35C478.39 196.8 478.11 198.66 477.91 200.08C477.823 200.707 477.743 201.227 477.67 201.64C477.665 201.823 477.635 202.005 477.58 202.18Z" fill="#263238"/>
<path d="M458.17 171.63C457.148 171.954 456.101 172.191 455.04 172.34C453.04 172.71 450.39 173.19 447.4 173.69L447.56 173.27L447.65 173.38C449.57 175.77 451.28 177.95 452.5 179.55C453.199 180.38 453.828 181.266 454.38 182.2C453.592 181.454 452.867 180.644 452.21 179.78C450.92 178.24 449.21 176.09 447.21 173.7L447.13 173.59L446.85 173.25L447.29 173.17C450.29 172.68 452.99 172.26 454.95 171.98C456.012 171.776 457.089 171.659 458.17 171.63Z" fill="#263238"/>
<path d="M339.94 192.18H280.46V152.78H339.94V192.18ZM281.46 191.18H338.94V153.78H281.46V191.18Z" fill="#263238"/>
<path d="M297.23 191.52C297.09 191.52 296.97 183.06 296.97 172.63C296.97 162.2 297.09 153.75 297.23 153.75C297.37 153.75 297.49 162.2 297.49 172.63C297.49 183.06 297.38 191.52 297.23 191.52Z" fill="#263238"/>
<path d="M324.11 191.39C323.97 191.39 323.85 182.96 323.85 172.57C323.85 162.18 323.97 153.75 324.11 153.75C324.25 153.75 324.37 162.17 324.37 172.57C324.37 182.97 324.26 191.39 324.11 191.39Z" fill="#263238"/>
<path d="M375.86 144C375.86 144 372.61 191.63 376.66 199.34H426.47L424.47 146.22L375.86 144Z" fill="#E0E0E0"/>
<path d="M375.86 144C376.21 163.82 377.86 181.74 381.47 196.93L437.53 197.35C437.53 197.35 432 151.8 432 144H375.86Z" fill="#278EA5"/>
<path d="M425.78 161.91C425.586 162.185 425.361 162.436 425.11 162.66C424.18 163.517 423.064 164.148 421.85 164.504C420.636 164.86 419.356 164.93 418.11 164.71C416.066 164.326 414.233 163.205 412.96 161.56C412.593 161.092 412.297 160.573 412.08 160.02C411.833 159.42 411.794 158.755 411.97 158.13C412.075 157.797 412.262 157.495 412.514 157.252C412.765 157.01 413.073 156.834 413.41 156.74C413.775 156.662 414.157 156.711 414.49 156.88C414.815 157.069 415.07 157.356 415.22 157.7C415.445 158.385 415.497 159.115 415.372 159.826C415.246 160.536 414.947 161.204 414.5 161.77C413.68 163.006 412.602 164.05 411.34 164.83C409.998 165.693 408.469 166.222 406.881 166.373C405.292 166.525 403.691 166.294 402.21 165.7C401.407 165.384 400.689 164.885 400.113 164.243C399.536 163.6 399.118 162.832 398.89 162C398.729 161.112 398.862 160.195 399.27 159.39C399.462 158.97 399.739 158.594 400.083 158.286C400.427 157.978 400.831 157.744 401.27 157.6C401.718 157.468 402.191 157.446 402.649 157.537C403.107 157.627 403.536 157.827 403.9 158.12C404.611 158.677 405.117 159.455 405.34 160.33C405.557 161.194 405.48 162.105 405.12 162.92C404.781 163.703 404.276 164.402 403.64 164.97C402.413 166.006 400.93 166.692 399.346 166.956C397.762 167.22 396.136 167.052 394.64 166.47C393.235 165.973 391.981 165.122 391 164C390.101 162.926 389.451 161.666 389.1 160.31C388.76 159.052 388.695 157.735 388.91 156.45C389.003 155.838 389.181 155.242 389.44 154.68C389.675 154.096 390.131 153.628 390.71 153.38C390.999 153.277 391.311 153.256 391.611 153.32C391.911 153.383 392.188 153.529 392.41 153.74C392.806 154.125 393.098 154.603 393.26 155.13C393.504 156.081 393.504 157.079 393.26 158.03C392.916 159.561 392.122 160.954 390.98 162.03C390.271 162.7 389.434 163.22 388.52 163.56C388.2 163.689 387.863 163.773 387.52 163.81C387.52 163.81 387.86 163.72 388.46 163.46C389.34 163.089 390.141 162.552 390.82 161.88C391.911 160.828 392.669 159.479 393 158C393.206 157.099 393.182 156.16 392.93 155.27C392.786 154.799 392.525 154.372 392.17 154.03C391.994 153.865 391.775 153.752 391.539 153.703C391.303 153.653 391.058 153.67 390.83 153.75C390.349 153.977 389.97 154.377 389.77 154.87C389.539 155.403 389.381 155.965 389.3 156.54C389.108 157.771 389.177 159.027 389.5 160.23C389.846 161.519 390.475 162.714 391.34 163.73C392.27 164.789 393.453 165.594 394.78 166.07C396.192 166.612 397.722 166.766 399.214 166.516C400.705 166.266 402.102 165.622 403.26 164.65C403.842 164.13 404.303 163.488 404.61 162.77C404.925 162.06 404.995 161.265 404.81 160.51C404.614 159.745 404.171 159.067 403.55 158.58C403.252 158.338 402.9 158.171 402.524 158.095C402.148 158.018 401.759 158.034 401.39 158.14C400.668 158.447 400.075 158.994 399.711 159.688C399.346 160.383 399.233 161.182 399.39 161.95C399.597 162.7 399.975 163.392 400.496 163.97C401.017 164.548 401.665 164.997 402.39 165.28C404.471 166.075 406.76 166.14 408.883 165.466C411.006 164.793 412.838 163.419 414.08 161.57C414.474 161.031 414.756 160.419 414.91 159.77C415.056 159.159 415.018 158.519 414.8 157.93C414.701 157.67 414.513 157.454 414.269 157.32C414.026 157.186 413.742 157.144 413.47 157.2C413.202 157.277 412.957 157.418 412.756 157.611C412.556 157.805 412.406 158.045 412.32 158.31C412.225 158.857 412.258 159.419 412.416 159.951C412.574 160.484 412.852 160.973 413.23 161.38C414.273 162.789 415.75 163.817 417.434 164.304C419.118 164.792 420.915 164.713 422.55 164.08C423.769 163.596 424.871 162.856 425.78 161.91Z" fill="#263238"/>
<path d="M431.62 180.83C430.687 181.551 429.634 182.103 428.51 182.46C427.199 182.908 425.825 183.148 424.44 183.17C422.599 183.221 420.769 182.88 419.07 182.17C418.043 181.796 417.119 181.186 416.37 180.39C416.169 180.155 416.018 179.881 415.927 179.585C415.836 179.289 415.806 178.978 415.84 178.67C415.878 178.341 416.002 178.027 416.201 177.762C416.399 177.497 416.665 177.289 416.97 177.16C417.313 177.067 417.678 177.096 418.002 177.244C418.325 177.392 418.586 177.649 418.74 177.97C418.9 178.279 418.984 178.622 418.984 178.97C418.984 179.318 418.9 179.661 418.74 179.97C418.449 180.574 418.033 181.109 417.52 181.54C417.029 182.01 416.482 182.417 415.89 182.75C414.645 183.46 413.268 183.906 411.844 184.063C410.42 184.219 408.979 184.082 407.61 183.66C406.15 183.225 404.82 182.435 403.74 181.36C403.17 180.791 402.724 180.11 402.43 179.36C402.106 178.591 402.074 177.731 402.34 176.94C402.463 176.536 402.673 176.164 402.957 175.851C403.241 175.538 403.59 175.292 403.98 175.13C404.38 174.987 404.811 174.952 405.229 175.03C405.647 175.107 406.037 175.293 406.36 175.57C406.994 176.085 407.408 176.821 407.52 177.63C407.611 178.404 407.504 179.188 407.21 179.91C406.634 181.234 405.745 182.398 404.62 183.302C403.495 184.206 402.167 184.823 400.75 185.1C399.473 185.34 398.16 185.301 396.9 184.985C395.639 184.669 394.463 184.084 393.45 183.27C392.506 182.553 391.807 181.56 391.45 180.43C391.279 179.884 391.231 179.307 391.31 178.74C391.408 178.178 391.715 177.674 392.17 177.33C392.604 177.044 393.119 176.906 393.638 176.936C394.157 176.967 394.652 177.165 395.05 177.5C395.415 177.771 395.71 178.126 395.908 178.535C396.107 178.944 396.204 179.395 396.19 179.85C396.148 180.554 395.954 181.241 395.621 181.862C395.287 182.484 394.823 183.025 394.26 183.45C393.575 183.99 392.83 184.449 392.04 184.82L391.42 185.1L391.21 185.18C391.459 185.012 391.72 184.862 391.99 184.73C392.747 184.323 393.464 183.844 394.13 183.3C394.655 182.885 395.085 182.363 395.39 181.767C395.695 181.172 395.869 180.518 395.9 179.85C395.911 179.447 395.826 179.048 395.652 178.684C395.478 178.321 395.22 178.004 394.9 177.76C394.556 177.478 394.131 177.314 393.686 177.29C393.242 177.267 392.802 177.386 392.43 177.63C392.052 177.918 391.801 178.341 391.73 178.81C391.666 179.315 391.718 179.828 391.88 180.31C392.232 181.364 392.907 182.281 393.81 182.93C394.819 183.742 396.002 184.311 397.267 184.591C398.532 184.871 399.844 184.856 401.102 184.546C402.36 184.237 403.529 183.641 404.519 182.806C405.509 181.97 406.293 180.918 406.81 179.73C407.07 179.098 407.167 178.41 407.09 177.73C406.99 177.047 406.632 176.428 406.09 176C405.839 175.781 405.534 175.634 405.208 175.572C404.881 175.511 404.543 175.538 404.23 175.65C403.912 175.783 403.627 175.985 403.395 176.241C403.163 176.496 402.991 176.8 402.89 177.13C402.67 177.808 402.698 178.541 402.97 179.2C403.249 179.867 403.657 180.472 404.17 180.98C405.191 181.993 406.444 182.742 407.82 183.16C409.124 183.564 410.496 183.697 411.853 183.551C413.21 183.405 414.522 182.983 415.71 182.31C416.269 182 416.787 181.62 417.25 181.18C417.725 180.792 418.113 180.308 418.39 179.76C418.518 179.513 418.585 179.238 418.585 178.96C418.585 178.682 418.518 178.407 418.39 178.16C418.291 177.929 418.112 177.741 417.887 177.629C417.662 177.517 417.404 177.489 417.16 177.55C416.927 177.651 416.725 177.811 416.574 178.014C416.423 178.218 416.328 178.458 416.3 178.71C416.273 178.963 416.298 179.218 416.374 179.461C416.45 179.703 416.574 179.927 416.74 180.12C417.444 180.864 418.305 181.442 419.26 181.81C420.908 182.534 422.69 182.898 424.49 182.88C425.847 182.883 427.196 182.677 428.49 182.27C429.576 181.888 430.623 181.406 431.62 180.83Z" fill="#263238"/>
<path d="M189.649 41.7391L65.6733 55.8862L79.8205 179.862L203.796 165.715L189.649 41.7391Z" fill="white"/>
<path d="M203.79 165.73C203.79 165.73 203.79 165.53 203.71 165.14C203.63 164.75 203.59 164.14 203.5 163.43C203.32 161.91 203.06 159.68 202.72 156.77C202.04 150.95 201.05 142.42 199.78 131.57L189.43 41.78L189.68 41.98L65.6802 56.15L65.9002 55.86C71.0702 101.26 75.9002 143.86 80.0102 179.86L79.7602 179.66L169.58 169.53L194.8 166.72L201.46 165.98L203.17 165.8L203.76 165.75L203.2 165.82L201.51 166.03L194.9 166.81L169.75 169.74L79.8402 180.09H79.6202V179.86C75.5002 143.86 70.6202 101.29 65.4502 55.86V55.6H65.7102L189.71 41.5H189.94V41.73C194.14 78.94 197.64 109.96 200.09 131.73L202.9 156.9C203.22 159.79 203.46 162.01 203.63 163.52L203.81 165.21C203.78 165.54 203.79 165.73 203.79 165.73Z" fill="#263238"/>
<path d="M183.981 48.8676L72.812 61.5533L85.4977 172.722L196.666 160.036L183.981 48.8676Z" fill="#EBEBEB"/>
<path d="M196.66 160.05C196.66 160.05 196.66 159.87 196.59 159.53C196.52 159.19 196.48 158.66 196.4 157.99C196.24 156.63 196 154.63 195.69 151.99C195.08 146.76 194.19 139.12 193.05 129.39C190.81 109.94 187.6 82.18 183.75 48.88L184 49.08L72.8501 61.82L73.0801 61.54C77.7101 102.25 82.0801 140.4 85.7201 172.71L85.4701 172.51L166 163.44L188.61 160.92L194.61 160.26L196.15 160.1H196.68L196.18 160.17L194.66 160.36L188.74 161.06L166.19 163.69L85.5101 173H85.2901V172.78C81.6001 140.47 77.2401 102.32 72.5801 61.61V61.36H72.8401L184 48.66H184.23V48.88C187.99 82.25 191.12 110.07 193.32 129.55L195.83 152.12C196.12 154.71 196.34 156.7 196.48 158.05C196.55 158.72 196.61 159.22 196.64 159.57C196.67 159.92 196.66 160.05 196.66 160.05Z" fill="#263238"/>
<path d="M149.34 129.76C149.29 129.76 153.56 153.2 153.56 153.2L149.35 153.68L142.08 131L149.34 129.76Z" fill="#455A64"/>
<path d="M173.9 126.54C173.85 126.54 178.11 149.99 178.11 149.99L173.9 150.47L166.64 127.75L173.9 126.54Z" fill="#455A64"/>
<path d="M102.76 134.24L102.77 159L106.95 158.52L109.86 134.26L102.76 134.24Z" fill="#455A64"/>
<path d="M178 77.39C178.8 85.96 181.83 113.25 175.48 126.78L146.7 130.44L100.16 135.74C100.16 135.74 87.8601 118.45 87.0601 101.2L110.06 91.36C110.06 91.36 113.44 81.36 117.42 81.09C120.23 80.89 162.29 75.9 174.5 74.57C174.916 74.5173 175.339 74.5491 175.743 74.6634C176.146 74.7778 176.523 74.9725 176.85 75.2358C177.176 75.499 177.447 75.8255 177.644 76.1957C177.842 76.5658 177.963 76.972 178 77.39Z" fill="#278EA5"/>
<path d="M170.92 75C170.92 75 170.92 75.06 170.92 75.17C170.92 75.28 170.81 75.45 170.72 75.67C170.53 76.09 170.23 76.67 169.81 77.49C168.98 79.06 167.7 81.28 166.07 83.99C165.652 84.7098 165.159 85.3835 164.6 86C163.964 86.6774 163.199 87.2213 162.35 87.6C160.62 88.31 158.8 89.07 156.88 89.91C154.96 90.75 152.96 91.64 150.93 92.65C149.93 93.15 148.93 93.65 147.93 94.29C147.43 94.59 146.93 94.91 146.47 95.29C146.01 95.6005 145.66 96.0485 145.47 96.57C145.095 97.6831 144.791 98.8186 144.56 99.97C144.32 101.12 144.09 102.25 143.89 103.37C143.47 105.6 143.09 107.76 142.75 109.83C142.09 113.94 141.5 117.66 141 120.83L139.85 128.23C139.72 129.06 139.61 129.73 139.53 130.23C139.504 130.468 139.454 130.702 139.38 130.93C139.358 130.694 139.358 130.456 139.38 130.22C139.44 129.7 139.52 129.03 139.61 128.22C139.83 126.47 140.16 123.93 140.61 120.79C141.06 117.65 141.61 113.93 142.26 109.79C142.59 107.72 142.95 105.56 143.36 103.32C143.56 102.19 143.8 101.06 144.04 99.9C144.271 98.7137 144.581 97.5443 144.97 96.4C145.199 95.7954 145.612 95.2777 146.15 94.92C146.64 94.56 147.15 94.23 147.65 93.92C148.65 93.32 149.7 92.78 150.73 92.28C152.73 91.28 154.73 90.37 156.73 89.54C158.73 88.71 160.5 87.97 162.22 87.28C163.02 86.9355 163.741 86.432 164.34 85.8C164.882 85.1869 165.355 84.5163 165.75 83.8C167.42 81.11 168.75 78.92 169.63 77.39C170.08 76.63 170.41 76.03 170.63 75.62C170.712 75.4066 170.809 75.1994 170.92 75Z" fill="#263238"/>
<path d="M146.69 130.44C146.688 130.206 146.705 129.972 146.74 129.74C146.8 129.23 146.87 128.57 146.97 127.74C147.2 125.95 147.53 123.47 147.97 120.43C148.41 117.39 148.91 113.67 149.53 109.6C149.83 107.6 150.17 105.43 150.53 103.22C150.71 102.12 150.91 100.99 151.13 99.85C151.25 99.28 151.36 98.72 151.53 98.12L151.67 97.67C151.738 97.5094 151.837 97.3634 151.96 97.24C152.179 97.0155 152.42 96.8144 152.68 96.64C154.658 95.4134 156.724 94.3339 158.86 93.41C160.86 92.48 162.86 91.62 164.77 90.81C166.68 90 168.46 89.23 170.11 88.45C171.76 87.67 172.64 86.22 173.4 84.9C174.523 82.7197 175.502 80.4682 176.33 78.16C176.62 77.39 176.84 76.76 177.02 76.28C177.094 76.0585 177.181 75.8415 177.28 75.63C177.257 75.866 177.203 76.0979 177.12 76.32C177 76.76 176.79 77.4 176.52 78.23C175.758 80.5749 174.825 82.861 173.73 85.07C173.359 85.8076 172.927 86.5134 172.44 87.18C172.174 87.5545 171.857 87.8909 171.5 88.18C171.126 88.4518 170.723 88.6831 170.3 88.87C168.64 89.67 166.85 90.44 164.96 91.28C163.07 92.12 161.07 93 159 93.89C156.926 94.808 154.921 95.8741 153 97.08C152.77 97.2356 152.556 97.413 152.36 97.61C152.27 97.6886 152.202 97.7883 152.16 97.9L152.04 98.29C151.89 98.82 151.78 99.41 151.66 99.97C151.44 101.1 151.24 102.22 151.05 103.32C150.69 105.533 150.357 107.657 150.05 109.69C149.42 113.69 148.86 117.4 148.38 120.49C147.9 123.58 147.53 125.99 147.26 127.77C147.12 128.59 147.02 129.25 146.93 129.77C146.873 130.001 146.793 130.225 146.69 130.44Z" fill="#263238"/>
<path d="M108.32 134.81C108.2 134.634 108.1 134.447 108.02 134.25L107.22 132.58C106.55 131.13 105.59 129.02 104.44 126.41C103.29 123.8 101.89 120.69 100.61 117.09C100.448 116.572 100.483 116.013 100.71 115.52C100.966 115.045 101.347 114.647 101.81 114.37C102.716 113.802 103.745 113.46 104.81 113.37L111.14 112.65L133.36 110.19L140.1 109.5L141.93 109.34C142.146 109.322 142.364 109.322 142.58 109.34C142.375 109.405 142.164 109.448 141.95 109.47L140.12 109.73L133.4 110.58L111.2 113.18L104.87 113.9C103.896 113.967 102.95 114.262 102.11 114.76C101.725 114.986 101.408 115.31 101.19 115.7C101.008 116.085 100.98 116.525 101.11 116.93C102.34 120.46 103.73 123.59 104.82 126.23C105.91 128.87 106.82 130.94 107.45 132.47L108.15 134.17C108.234 134.375 108.291 134.59 108.32 134.81Z" fill="#263238"/>
<path d="M104.74 126.83C104.74 126.69 112.74 125.66 122.58 124.54C132.42 123.42 140.47 122.61 140.48 122.76C140.49 122.91 132.48 123.93 122.64 125.06C112.8 126.19 104.76 127 104.74 126.83Z" fill="#263238"/>
<path d="M87.0601 101.2C87.3021 100.981 87.5887 100.818 87.9001 100.72C88.7228 100.383 89.5934 100.177 90.4801 100.11C91.8176 99.965 93.167 100.241 94.3401 100.9C95.0267 101.336 95.5965 101.934 96.0001 102.64C96.4341 103.355 96.8023 104.108 97.1001 104.89C98.2101 108.1 99.1001 110.97 99.8101 113.08C100.231 114.203 100.565 115.356 100.81 116.53C100.288 115.458 99.8468 114.348 99.4901 113.21C98.7201 111.15 97.7201 108.21 96.6301 105.08C96.3651 104.327 96.0303 103.601 95.6301 102.91C95.284 102.267 94.7905 101.715 94.1901 101.3C93.1062 100.673 91.8587 100.387 90.6101 100.48C89.3995 100.558 88.2053 100.8 87.0601 101.2Z" fill="#263238"/>
<path d="M122.65 111.93C122.492 111.612 122.371 111.276 122.29 110.93C122.08 110.27 121.8 109.32 121.47 108.14C120.8 105.79 119.92 102.52 118.97 98.91C118.581 97.2222 117.944 95.6013 117.08 94.1C116.35 92.8969 115.278 91.9392 114 91.35C113.141 90.9525 112.191 90.7937 111.25 90.89C110.59 90.97 110.25 91.13 110.25 91.09C110.25 91.05 110.32 91.02 110.49 90.94C110.73 90.8205 110.986 90.7362 111.25 90.69C112.234 90.505 113.252 90.62 114.17 91.02C115.546 91.5871 116.708 92.574 117.49 93.84C118.415 95.3699 119.09 97.0375 119.49 98.78C120.49 102.39 121.27 105.67 121.85 108.05C122.13 109.24 122.36 110.21 122.5 110.88C122.602 111.221 122.653 111.574 122.65 111.93Z" fill="#263238"/>
<path d="M131.79 92.5201C131.28 92.4899 130.774 92.6192 130.34 92.8901C130.121 93.0186 129.949 93.2145 129.85 93.4488C129.751 93.6831 129.73 93.9431 129.79 94.1901C129.834 94.5008 129.974 94.7898 130.191 95.016C130.409 95.2423 130.692 95.3942 131 95.4501C131.302 95.4989 131.611 95.4431 131.877 95.2922C132.142 95.1413 132.348 94.9041 132.46 94.6201C132.575 94.3885 132.627 94.131 132.611 93.8731C132.595 93.6152 132.512 93.366 132.37 93.1501C132.031 92.7699 131.579 92.5073 131.08 92.4001C131.08 92.4001 131.23 92.3101 131.53 92.3301C131.968 92.3777 132.371 92.5884 132.66 92.9201C132.867 93.1822 132.999 93.4951 133.043 93.8258C133.087 94.1566 133.041 94.4931 132.91 94.8001C132.762 95.1742 132.504 95.4949 132.17 95.7201C131.798 95.9514 131.354 96.0402 130.92 95.9701C130.513 95.8862 130.142 95.6774 129.859 95.3727C129.575 95.068 129.394 94.6826 129.34 94.2701C129.267 93.9067 129.332 93.5291 129.52 93.2101C129.676 92.9452 129.901 92.7275 130.17 92.5801C130.542 92.3553 130.981 92.2669 131.41 92.3301C131.67 92.3901 131.81 92.5001 131.79 92.5201Z" fill="#263238"/>
<path d="M153.78 91.0501C153.69 91.0501 153.46 90.4801 152.78 90.3501H152.73C152.368 90.2428 151.979 90.2749 151.64 90.4401C151.395 90.5242 151.179 90.6776 151.02 90.8817C150.86 91.0858 150.763 91.3319 150.74 91.5901C150.82 92.1101 150.93 92.4201 150.87 92.4601C150.81 92.5001 150.55 92.2201 150.37 91.6901C150.337 91.3325 150.422 90.974 150.612 90.669C150.801 90.364 151.085 90.1292 151.42 90.0001C151.653 89.9014 151.903 89.8505 152.155 89.8505C152.408 89.8505 152.658 89.9014 152.89 90.0001C153.082 90.048 153.261 90.1385 153.413 90.2649C153.566 90.3912 153.688 90.5502 153.77 90.7301C153.84 90.8801 153.82 91.0001 153.78 91.0501Z" fill="#263238"/>
<g opacity="0.3">
<path d="M142.64 109.32C142.752 104.806 143.599 100.341 145.15 96.1001C143.63 97.1801 142.92 99.0301 142.15 100.73C141.38 102.43 140.41 104.23 138.67 104.88C136.93 105.53 135.18 104.88 133.42 104.97C131.21 105.03 129.08 106.08 126.88 105.89C124.93 105.632 123.147 104.655 121.88 103.15C120.631 101.657 119.573 100.014 118.73 98.2601C119.3 101 119.83 104.04 118.41 106.46C116.8 109.22 113.31 110.12 110.16 110.69C107.01 111.26 103.53 111.98 101.68 114.58C102.988 114.063 104.361 113.726 105.76 113.58L142.64 109.32Z" fill="black"/>
</g>
<path d="M95.1297 46.5251L89.3921 40.0786L55.3743 70.3554L61.1119 76.8019L95.1297 46.5251Z" fill="#E0E0E0"/>
<path d="M378.33 324.24L402.24 297.68L421.07 296.2L423.93 316.57L408.7 323.38L392.07 340.89L381.98 343.19L378.33 324.24Z" fill="#EFBE9D"/>
<path d="M422.658 191.681L385.176 368.624L591.733 412.379L629.214 235.435L422.658 191.681Z" fill="white"/>
<path d="M591.71 412.35L628.97 235.35L629.14 235.61L422.59 191.91L422.9 191.71C409.29 255.91 396.47 316.42 385.4 368.65L385.22 368.38L591.72 412.38L385.12 368.87H384.9V368.64C395.96 316.41 408.76 255.9 422.35 191.7L422.4 191.44H422.65L629.23 235.2H629.45L629.4 235.42C606.71 342 592.1 410.55 591.71 412.35Z" fill="#263238"/>
<path d="M430.236 202.036L396.303 362.231L584.164 402.025L618.098 241.83L430.236 202.036Z" fill="#EBEBEB"/>
<path d="M584.14 402C584.14 402 584.34 401 584.74 399.05C585.14 397.1 585.74 394.23 586.53 390.49C588.1 382.99 590.41 372.01 593.35 358.01C599.25 330.01 607.68 290.01 617.85 241.76L618.02 242.02L430.17 202.28L430.48 202.08C418.16 260.18 406.55 314.95 396.53 362.27L396.35 361.99L532.18 390.88L570.52 399.06L580.66 401.23L583.27 401.8L584.16 402L583.29 401.83L580.7 401.3L570.59 399.18L532.28 391.13L396.28 362.44H396.06V362.21C406.06 314.89 417.67 260.12 429.96 202.01L430.01 201.75L430.27 201.81L618.1 241.63H618.31V241.84C608.04 290.11 599.52 330.17 593.56 358.17C590.56 372.17 588.23 383.11 586.64 390.59C585.84 394.31 585.22 397.16 584.81 399.09C584.4 401.02 584.14 402 584.14 402Z" fill="#263238"/>
<path d="M489.25 348.95L484.34 365.25L485.74 365.54L494.34 350.02L489.25 348.95Z" fill="#263238"/>
<path d="M550.53 361.92L548.41 378.81L547.01 378.52L545.44 360.85L550.53 361.92Z" fill="#263238"/>
<path d="M563.22 338.821L484.849 322.22L479.615 346.931L557.986 363.532L563.22 338.821Z" fill="#263238"/>
<path d="M520.93 342.31V342.1C520.93 341.95 520.99 341.76 521.03 341.53C521.14 340.99 521.28 340.27 521.45 339.34C521.84 337.42 522.39 334.68 523.07 331.25L523.2 331.45L486 323.65L486.3 323.45V323.52V323.61V323.78L486.22 324.14L486.07 324.85L485.77 326.26C485.57 327.2 485.38 328.13 485.18 329.05C484.79 330.89 484.41 332.7 484.03 334.45L483.84 334.15L510.37 339.89L518.18 341.62L520.29 342.1L520.85 342.23L521.04 342.29L520.34 342.18L518.27 341.77L510.49 340.2L483.73 334.65L483.48 334.6L483.54 334.35L484.68 328.95C484.87 328.03 485.07 327.1 485.27 326.16C485.36 325.69 485.46 325.22 485.56 324.74L485.71 324.03L485.79 323.68V323.5V323.41V323.34C486.41 322.94 485.97 323.23 486.11 323.14L523.34 331.14H523.5V331.3C522.73 334.76 522.11 337.51 521.68 339.45C521.47 340.35 521.31 341.06 521.19 341.58C521.118 341.828 521.031 342.072 520.93 342.31Z" fill="#455A64"/>
<path d="M518.47 353.92C518.47 353.92 518.47 353.84 518.47 353.71L518.57 353.14C518.68 352.6 518.82 351.88 519 350.95C519.38 349.03 519.93 346.29 520.62 342.86L520.74 343.06L483.47 335.26L483.78 335.06V335.13V335.22V335.39L483.71 335.75L483.55 336.46C483.45 336.93 483.35 337.41 483.26 337.87L482.66 340.66C482.27 342.5 481.89 344.31 481.51 346.06L481.32 345.76L507.85 351.5L515.66 353.23L517.77 353.71L518.33 353.84L518.52 353.9L517.82 353.79L515.75 353.38L507.97 351.81L481.21 346.26H480.97L481 346L482.14 340.6C482.33 339.68 482.53 338.75 482.73 337.81L483.03 336.39L483.18 335.68L483.25 335.33V335.15V335.06V335L483.56 334.8L520.79 342.8H520.95V342.96C520.18 346.42 519.56 349.17 519.13 351.11C518.92 352.01 518.76 352.72 518.64 353.24C518.596 353.469 518.539 353.696 518.47 353.92Z" fill="#455A64"/>
<path d="M559.42 350.46V350.25C559.42 350.1 559.48 349.91 559.52 349.68C559.63 349.14 559.77 348.42 559.95 347.49C560.33 345.57 560.88 342.84 561.57 339.4L561.69 339.6L524.42 331.8L524.73 331.6V331.67V331.76V331.94L524.66 332.29L524.5 333C524.4 333.48 524.3 334 524.21 334.42L523.61 337.21C523.217 339.05 522.833 340.847 522.46 342.6L522.27 342.3L548.8 348.04L556.61 349.77L558.72 350.25L559.28 350.38L559.47 350.44C559.234 350.426 558.999 350.39 558.77 350.33L556.7 349.92L548.92 348.35L522.16 342.8L521.92 342.75V342.5L523.06 337.1C523.25 336.18 523.45 335.25 523.65 334.31L523.95 332.9L524.1 332.18L524.17 331.83V331.65V331.56V331.49L524.48 331.29L561.71 339.29H561.87V339.45C561.1 342.91 560.48 345.66 560.05 347.6C559.84 348.5 559.68 349.21 559.56 349.73C559.529 349.976 559.482 350.22 559.42 350.46Z" fill="#455A64"/>
<path d="M557 362.07V361.86C557 361.71 557.06 361.52 557.1 361.29C557.21 360.75 557.35 360.03 557.53 359.1C557.91 357.18 558.46 354.45 559.15 351.01L559.27 351.21L522 343.41L522.31 343.21V343.28V343.37V343.55L522.24 343.9L522.09 344.61L521.79 346.03L521.19 348.81L520.05 354.21L519.85 353.91L546.38 359.65L554.2 361.38L556.31 361.86L556.86 361.99L557.05 362.05C556.814 362.036 556.579 362 556.35 361.94L554.28 361.53L546.41 360L519.66 354.45L519.41 354.4L519.46 354.15L520.6 348.75C520.79 347.83 520.99 346.9 521.19 345.96L521.49 344.55L521.64 343.83L521.71 343.48V343.3V343.21V343.14L522.02 342.94L559.25 350.94H559.42V351.1C558.65 354.56 558.03 357.31 557.6 359.25C557.39 360.15 557.23 360.86 557.11 361.38C557.088 361.612 557.051 361.842 557 362.07Z" fill="#455A64"/>
<path d="M486 323.39C485.89 323.49 485.55 323.31 485.24 322.98C484.93 322.65 484.76 322.3 484.86 322.2C484.96 322.1 485.3 322.29 485.62 322.62C485.94 322.95 486.11 323.3 486 323.39Z" fill="#455A64"/>
<path d="M481.1 346C481.17 346.12 480.89 346.44 480.46 346.7C480.03 346.96 479.63 347.08 479.56 346.96C479.49 346.84 479.76 346.52 480.19 346.26C480.62 346 481 345.86 481.1 346Z" fill="#455A64"/>
<path d="M558 363.51C558 363.65 540.38 360.04 518.7 355.45C497.02 350.86 479.48 347.03 479.51 346.88C479.54 346.73 497.13 350.35 518.81 354.94C540.49 359.53 558 363.37 558 363.51Z" fill="#455A64"/>
<path d="M502.14 344.7C502.05 344.7 502.14 344.24 501.74 343.83C501.629 343.722 501.495 343.642 501.347 343.595C501.2 343.548 501.043 343.536 500.89 343.56C500.711 343.6 500.547 343.688 500.414 343.815C500.282 343.942 500.187 344.103 500.14 344.28C500.096 344.467 500.109 344.662 500.179 344.841C500.248 345.02 500.371 345.173 500.53 345.28C500.661 345.365 500.809 345.418 500.964 345.435C501.118 345.453 501.274 345.434 501.42 345.38C501.96 345.17 502.06 344.72 502.14 344.75C502.22 344.78 502.19 344.87 502.14 345.06C502.097 345.201 502.026 345.332 501.931 345.445C501.837 345.558 501.721 345.652 501.59 345.72C501.392 345.833 501.168 345.893 500.94 345.893C500.712 345.893 500.488 345.833 500.29 345.72C500.039 345.576 499.841 345.355 499.723 345.091C499.605 344.827 499.573 344.532 499.633 344.249C499.693 343.965 499.841 343.708 500.056 343.515C500.271 343.321 500.542 343.2 500.83 343.17C501.056 343.143 501.286 343.174 501.496 343.262C501.706 343.35 501.89 343.49 502.03 343.67C502.215 343.905 502.301 344.203 502.27 344.5C502.23 344.62 502.17 344.71 502.14 344.7Z" fill="#455A64"/>
<path d="M504.59 333.09C504.51 333.09 504.59 332.63 504.2 332.22C504.088 332.111 503.952 332.029 503.802 331.983C503.653 331.936 503.495 331.925 503.34 331.95C503.163 331.991 503 332.08 502.87 332.207C502.74 332.334 502.646 332.494 502.6 332.67C502.566 332.849 502.585 333.034 502.654 333.203C502.723 333.372 502.84 333.517 502.99 333.62C503.12 333.705 503.269 333.758 503.423 333.775C503.578 333.793 503.734 333.774 503.88 333.72C504.42 333.51 504.52 333.06 504.59 333.09C504.66 333.12 504.65 333.21 504.59 333.4C504.546 333.541 504.475 333.672 504.381 333.785C504.286 333.898 504.171 333.992 504.04 334.06C503.842 334.173 503.618 334.233 503.39 334.233C503.162 334.233 502.938 334.173 502.74 334.06C502.489 333.916 502.29 333.695 502.172 333.431C502.054 333.167 502.023 332.872 502.083 332.589C502.143 332.305 502.291 332.049 502.506 331.855C502.721 331.661 502.992 331.54 503.28 331.51C503.506 331.483 503.736 331.514 503.946 331.602C504.156 331.69 504.34 331.83 504.48 332.01C504.66 332.247 504.746 332.543 504.72 332.84C504.69 333 504.63 333.1 504.59 333.09Z" fill="#455A64"/>
<path d="M541.09 353C541.01 353 541.09 352.54 540.7 352.13C540.588 352.021 540.452 351.939 540.302 351.893C540.153 351.846 539.995 351.834 539.84 351.86C539.66 351.895 539.494 351.981 539.362 352.109C539.231 352.237 539.14 352.401 539.1 352.58C539.049 352.766 539.059 352.964 539.13 353.144C539.2 353.325 539.326 353.477 539.49 353.58C539.62 353.665 539.769 353.718 539.923 353.735C540.078 353.753 540.234 353.734 540.38 353.68C540.91 353.47 541.01 353.02 541.09 353.05C541.17 353.08 541.09 353.17 541.09 353.36C540.995 353.64 540.799 353.875 540.54 354.02C540.339 354.13 540.114 354.188 539.885 354.188C539.656 354.188 539.431 354.13 539.23 354.02C538.985 353.872 538.792 353.651 538.678 353.388C538.564 353.125 538.535 352.833 538.594 352.553C538.653 352.273 538.798 352.018 539.009 351.824C539.22 351.63 539.486 351.506 539.77 351.47C539.996 351.443 540.226 351.474 540.436 351.562C540.646 351.65 540.83 351.79 540.97 351.97C541.064 352.085 541.133 352.218 541.174 352.361C541.215 352.503 541.228 352.653 541.21 352.8C541.19 352.87 541.12 353 541.09 353Z" fill="#455A64"/>
<path d="M543.55 341.34C543.46 341.34 543.55 340.88 543.15 340.47C543.039 340.362 542.904 340.282 542.757 340.235C542.609 340.188 542.453 340.176 542.3 340.2C542.119 340.233 541.953 340.32 541.821 340.448C541.689 340.576 541.598 340.74 541.56 340.92C541.52 341.099 541.537 341.286 541.606 341.456C541.676 341.626 541.796 341.77 541.95 341.87C542.08 341.955 542.229 342.008 542.383 342.025C542.538 342.043 542.694 342.024 542.84 341.97C543.37 341.76 543.47 341.31 543.55 341.34C543.63 341.37 543.6 341.46 543.55 341.65C543.454 341.933 543.254 342.169 542.99 342.31C542.792 342.423 542.568 342.483 542.34 342.483C542.112 342.483 541.888 342.423 541.69 342.31C541.445 342.162 541.252 341.941 541.138 341.678C541.024 341.415 540.995 341.123 541.054 340.843C541.113 340.563 541.258 340.308 541.469 340.114C541.68 339.92 541.946 339.796 542.23 339.76C542.456 339.733 542.686 339.764 542.896 339.852C543.106 339.94 543.29 340.08 543.43 340.26C543.615 340.495 543.701 340.793 543.67 341.09C543.65 341.26 543.58 341.35 543.55 341.34Z" fill="#455A64"/>
<path d="M563.27 338.74C563.27 338.89 562.97 339.08 562.56 339.26C562.15 339.44 561.79 339.55 561.71 339.43C561.63 339.31 561.89 338.98 562.35 338.78C562.81 338.58 563.24 338.61 563.27 338.74Z" fill="#455A64"/>
<path d="M558.2 363.55C558.09 363.64 557.73 363.37 557.4 362.95C557.07 362.53 556.9 362.11 557.02 362.02C557.14 361.93 557.49 362.21 557.82 362.63C558.15 363.05 558.31 363.47 558.2 363.55Z" fill="#455A64"/>
<path d="M401.77 346.588L398.476 361.964L586.195 402.19L589.489 386.813L401.77 346.588Z" fill="#E0E0E0"/>
<path d="M455.43 294C456.27 281.907 453.695 269.821 448 259.12C438.52 241.22 426.76 239.48 426.76 239.48C426.76 239.48 440.86 237.23 451.19 256.48C457.34 267.987 458.857 281.41 455.43 294Z" fill="#455A64"/>
<path d="M464.65 233.66C464.47 233.15 457.88 270.92 457.88 270.92L455.26 298.45C455.26 298.45 461.59 279 463.21 268.69C464.83 258.38 466.28 238.31 464.65 233.66Z" fill="#455A64"/>
<path d="M478.6 236.62C478.6 236.62 472.19 238.99 464.69 266.1C458.95 286.88 456.35 294.75 455.5 297.32C455.366 297.683 455.285 298.064 455.26 298.45C455.26 298.45 466.16 280.34 470.37 270.2C474.58 260.06 474.93 244.25 478.6 236.62Z" fill="#455A64"/>
<path d="M455.36 304.38C455.19 305.06 459.5 295.83 474.01 286.44C487.51 277.7 492.62 278.32 492.62 278.32C492.62 278.32 480.69 277.48 471.2 284.18C462.82 290.09 457.12 297.47 455.36 304.38Z" fill="#455A64"/>
<path d="M451.76 315C451.46 309.95 451.02 304.82 449.13 300.13C447.24 295.44 443.69 291.18 438.89 289.6C445.59 297.08 449.97 305 451.76 315Z" fill="#455A64"/>
<path d="M455.76 296.13C455.76 296.13 457.47 277.07 445.35 268.46C438.6 263.66 427.12 263.38 427.12 263.38C427.12 263.38 440.64 268.06 445.12 272.38C449.6 276.7 455.76 296.13 455.76 296.13Z" fill="#455A64"/>
<path d="M444.2 350.38C444.189 350.304 444.189 350.226 444.2 350.15C444.24 349.963 444.28 349.733 444.32 349.46C444.45 348.81 444.62 347.93 444.83 346.81C445.31 344.48 445.98 341.18 446.83 337.12L453.52 305.17C453.85 303.61 454.18 302.07 454.52 300.55L455 298.29C455.1 297.91 455.13 297.55 455.27 297.15C455.41 296.75 455.6 296.46 455.74 296.15C456.32 294.78 456.8 293.38 457.38 292.04C457.96 290.7 458.52 289.42 459.06 288.15C460.15 285.61 461.24 283.23 462.15 280.94C463.06 278.65 463.92 276.55 464.71 274.62C465.5 272.69 466.11 270.9 466.71 269.34C467.31 267.78 467.71 266.45 468.15 265.34C468.59 264.23 468.85 263.43 469.08 262.82L469.31 262.16C469.333 262.082 469.367 262.008 469.41 261.94C469.405 262.019 469.388 262.096 469.36 262.17L469.18 262.85C469.01 263.44 468.71 264.3 468.34 265.41C467.97 266.52 467.51 267.88 466.98 269.41C466.45 270.94 465.87 272.79 465.07 274.72C464.27 276.65 463.47 278.8 462.57 281.08C461.67 283.36 460.57 285.76 459.57 288.31C459.02 289.58 458.47 290.88 457.9 292.21C457.33 293.54 456.9 294.93 456.27 296.32C456.13 296.67 455.94 297.04 455.81 297.32C455.68 297.6 455.65 298.04 455.56 298.39C455.4 299.14 455.25 299.89 455.09 300.65C454.77 302.17 454.44 303.71 454.09 305.27C451.42 317.71 449.01 328.98 447.25 337.18C446.36 341.23 445.64 344.52 445.12 346.85C444.87 347.95 444.67 348.85 444.52 349.47L444.35 350.15C444.24 350.31 444.21 350.39 444.2 350.38Z" fill="#263238"/>
<path d="M458.06 299.05C457.792 299.843 457.458 300.613 457.06 301.35C456.39 302.75 455.52 304.7 454.66 306.91C453.8 309.12 453.12 311.14 452.66 312.62C452.442 313.433 452.154 314.226 451.8 314.99C451.876 314.147 452.047 313.315 452.31 312.51C452.829 310.546 453.456 308.613 454.19 306.72C454.929 304.823 455.784 302.972 456.75 301.18C457.093 300.416 457.534 299.701 458.06 299.05Z" fill="#263238"/>
<path d="M451 358.13C454.38 356.13 455.76 351.84 455.52 347.92C455.28 344 453.75 340.32 452.62 336.57L442.22 334.37C439.66 337.37 436.76 340.09 434.96 343.57C433.16 347.05 432.66 351.57 434.96 354.73L451 358.13Z" fill="#278EA5"/>
<path d="M463.75 249.55C463.779 249.712 463.779 249.878 463.75 250.04C463.75 250.41 463.68 250.87 463.63 251.41C463.5 252.61 463.29 254.33 463.01 256.41C462.44 260.66 461.54 266.52 460.42 272.97C459.3 279.42 458.16 285.23 457.22 289.42C456.76 291.52 456.34 293.2 456.03 294.36C455.89 294.89 455.76 295.36 455.66 295.69C455.623 295.849 455.569 296.003 455.5 296.15C455.493 295.988 455.513 295.825 455.56 295.67C455.63 295.3 455.73 294.85 455.84 294.32C456.1 293.06 456.44 291.38 456.84 289.32C457.69 285.12 458.77 279.32 459.84 272.86C460.91 266.4 461.91 260.57 462.57 256.33C462.89 254.33 463.16 252.58 463.35 251.33C463.44 250.78 463.52 250.33 463.58 249.96C463.625 249.819 463.682 249.682 463.75 249.55Z" fill="#263238"/>
<path d="M452.15 263.6C452.338 263.915 452.489 264.25 452.6 264.6C452.86 265.25 453.2 266.21 453.6 267.4C455.589 273.627 456.687 280.105 456.86 286.64C456.86 287.89 456.86 288.9 456.86 289.64C456.875 290.003 456.842 290.366 456.76 290.72C456.68 290.72 456.66 289.18 456.51 286.72C456.139 280.237 455.052 273.814 453.27 267.57C452.56 265.09 452.07 263.63 452.15 263.6Z" fill="#263238"/>
<path d="M444.93 269.76C445.263 269.935 445.567 270.161 445.83 270.43C446.595 271.108 447.307 271.843 447.96 272.63C448.928 273.79 449.823 275.009 450.64 276.28C451.625 277.862 452.414 279.558 452.99 281.33C454.064 284.509 454.923 287.756 455.56 291.05C455.82 292.31 455.99 293.34 456.1 294.05C456.182 294.414 456.219 294.787 456.21 295.16C456.062 294.818 455.958 294.458 455.9 294.09C455.71 293.28 455.48 292.29 455.2 291.09C454.6 288.6 453.77 285.15 452.5 281.46C451.938 279.712 451.176 278.034 450.23 276.46C449.445 275.187 448.59 273.959 447.67 272.78C446.88 271.78 446.19 271.01 445.67 270.49C445.404 270.268 445.156 270.023 444.93 269.76Z" fill="#263238"/>
<path d="M589.88 253.041L586.055 252.231L572.517 316.143L576.342 316.953L589.88 253.041Z" fill="#263238"/>
<path d="M585.917 252.839L508.583 236.457L495.281 299.254L572.615 315.635L585.917 252.839Z" fill="white"/>
<path d="M573.8 317.39L493.53 300.39L507.45 234.66L587.72 251.66L573.8 317.39ZM497.09 298.07L571.49 313.83L584.16 254L509.76 238.25L497.09 298.07Z" fill="#455A64"/>
<path d="M573.598 259.035L516.495 246.939L507.077 291.402L564.179 303.498L573.598 259.035Z" fill="#E0E0E0"/>
<path d="M309.45 323.48L323 366.9L368.13 326.9L385.13 341.41C385.13 341.41 346.83 402.29 328.25 413.75C307.64 426.47 283.12 409.75 280.02 397.48C276.92 385.21 260.6 330.2 260.6 330.2L309.45 323.48Z" fill="#EFBE9D"/>
<path d="M324.07 366.14C324.12 366.23 322.88 366.92 321.14 368.36C320.124 369.213 319.174 370.142 318.3 371.14C316.161 373.582 314.515 376.414 313.45 379.48C313.018 380.732 312.684 382.016 312.45 383.32C312.05 385.55 312.06 386.97 311.96 386.97C311.895 386.641 311.871 386.305 311.89 385.97C311.862 385.58 311.862 385.189 311.89 384.8C311.89 384.35 311.94 383.8 312.04 383.26C312.233 381.926 312.541 380.611 312.96 379.33C314.001 376.18 315.687 373.282 317.91 370.82C318.828 369.82 319.832 368.904 320.91 368.08C321.35 367.71 321.8 367.44 322.17 367.18C322.492 366.959 322.826 366.755 323.17 366.57C323.449 366.386 323.752 366.242 324.07 366.14Z" fill="#E7996E"/>
<path d="M275.53 366.57L323 353.76C323 353.76 312.82 323.65 304.9 301.89C297.9 282.7 286.17 274.71 280.07 270.37C277.607 268.602 274.746 267.469 271.74 267.07C260.51 265.57 229.79 261.53 214.55 260.26C195.7 258.69 156.33 269.07 156.33 269.07C156.33 269.07 121.81 288.21 110.17 296C107.316 297.888 105.134 300.633 103.94 303.84C101.79 309.63 99.05 319.58 95.77 332.45C93.68 340.63 86.77 367.71 86.77 367.71L127.26 366.46C135.42 391.24 142.98 413.46 142.98 413.46L139.7 472.82H289.86C289.86 472.82 276 381 276 378.87C276 378.09 275.81 372.84 275.53 366.57Z" fill="#278EA5"/>
<g opacity="0.3">
<path d="M228.83 318.38C225.83 314.59 220.67 313.04 215.89 313.52C211.11 314 206.67 316.26 202.69 318.96C190.41 327.29 181.69 339.85 173.99 352.52C160.55 374.609 149.258 397.936 140.27 422.18L140.58 428.38C150.65 427.11 157.21 418.62 161.58 409.47C165.95 400.32 167.83 390.16 171.68 380.78C179.187 362.76 193.511 348.437 211.53 340.93C217.53 341.55 223.97 339.62 227.89 335.04C231.81 330.46 232.56 323.11 228.83 318.38Z" fill="black"/>
</g>
<path d="M276 374.43C275.77 374.43 274.43 361.3 273 345.07C271.57 328.84 270.59 315.65 270.81 315.63C271.03 315.61 272.38 328.75 273.81 345C275.24 361.25 276.21 374.41 276 374.43Z" fill="#263238"/>
<path d="M116.48 315.63C116.751 316.273 116.952 316.944 117.08 317.63C117.43 319.11 117.88 321 118.41 323.26C119.5 328.02 120.95 334.6 122.5 341.89C124.05 349.18 125.42 355.78 126.37 360.57C126.8 362.85 127.16 364.76 127.45 366.25C127.615 366.942 127.709 367.649 127.73 368.36C127.472 367.713 127.274 367.044 127.14 366.36C126.79 364.88 126.34 362.99 125.81 360.73C124.72 355.97 123.27 349.39 121.71 342.1C120.15 334.81 118.8 328.21 117.85 323.42C117.42 321.14 117.05 319.23 116.77 317.73C116.606 317.041 116.509 316.338 116.48 315.63Z" fill="#263238"/>
<path d="M268.75 267.64C268.99 267.7 267.62 272.97 266.68 279.64C265.74 286.31 265.54 291.7 265.3 291.64C265.09 290.462 265.036 289.262 265.14 288.07C265.22 285.191 265.467 282.32 265.88 279.47C266.284 276.615 266.859 273.787 267.6 271C267.839 269.835 268.225 268.706 268.75 267.64Z" fill="#263238"/>
<path d="M204 295.19L217.66 267.64L213.42 255.64C213.42 255.64 233.91 245 226.91 223.29C223.53 212.81 214.81 191.79 206.7 172.86C202.492 163.041 194.742 155.166 184.992 150.802C175.241 146.439 164.205 145.906 154.08 149.31L152 150C129.95 158.88 125.17 182.56 134.65 204.36L162.38 285.36L204 295.19Z" fill="#EFBE9D"/>
<path d="M213.42 255.56C213.42 255.56 200.13 261.27 182.54 257.03C182.54 257.03 194.44 270.35 215.35 261.15L213.42 255.56Z" fill="#E7996E"/>
<path d="M207.85 194.22C208.126 195.023 208.079 195.902 207.719 196.671C207.359 197.44 206.714 198.038 205.92 198.34C205.538 198.503 205.127 198.588 204.712 198.59C204.296 198.592 203.884 198.511 203.501 198.352C203.117 198.192 202.769 197.958 202.477 197.662C202.185 197.367 201.955 197.016 201.8 196.63C201.521 195.828 201.565 194.95 201.924 194.18C202.282 193.411 202.927 192.812 203.72 192.51C204.103 192.345 204.515 192.259 204.931 192.256C205.348 192.254 205.761 192.334 206.146 192.494C206.531 192.653 206.88 192.888 207.173 193.184C207.465 193.481 207.696 193.833 207.85 194.22Z" fill="#263238"/>
<path d="M205.52 183.7C205.28 184.23 202.35 183.28 199.03 184.41C195.71 185.54 193.84 188.01 193.34 187.73C193.1 187.61 193.25 186.73 194.05 185.62C195.155 184.141 196.687 183.038 198.44 182.46C200.166 181.878 202.032 181.857 203.77 182.4C205.06 182.84 205.65 183.45 205.52 183.7Z" fill="#263238"/>
<path d="M179 202.87C179.279 203.671 179.233 204.55 178.872 205.318C178.511 206.086 177.865 206.682 177.07 206.98C176.688 207.144 176.277 207.23 175.861 207.233C175.445 207.236 175.033 207.155 174.649 206.996C174.265 206.836 173.916 206.601 173.625 206.305C173.333 206.009 173.104 205.657 172.95 205.27C172.674 204.467 172.721 203.588 173.081 202.819C173.441 202.05 174.087 201.452 174.88 201.15C175.263 200.987 175.675 200.903 176.091 200.902C176.507 200.9 176.919 200.982 177.302 201.142C177.686 201.303 178.034 201.538 178.326 201.835C178.617 202.131 178.847 202.483 179 202.87Z" fill="#263238"/>
<path d="M173.25 193.54C173.06 194.09 170.05 193.47 166.87 194.95C163.69 196.43 162.1 199.1 161.58 198.87C161.33 198.77 161.37 197.87 162.05 196.7C162.982 195.113 164.378 193.849 166.05 193.08C167.706 192.315 169.56 192.091 171.35 192.44C172.69 192.74 173.35 193.28 173.25 193.54Z" fill="#263238"/>
<path d="M193.47 217.13C193.4 216.94 195.34 215.89 198.54 214.34C199.36 213.96 200.11 213.53 200.06 212.9C199.834 211.997 199.339 211.184 198.64 210.57L194 205C187.43 197 182.36 190.26 182.69 190C183.02 189.74 188.61 196 195.18 204.06C196.79 206.06 198.32 207.94 199.77 209.75C200.42 210.61 201.34 211.52 201.33 212.93C201.306 213.273 201.203 213.605 201.029 213.902C200.856 214.198 200.617 214.451 200.33 214.64C199.9 214.925 199.436 215.157 198.95 215.33C195.63 216.59 193.55 217.31 193.47 217.13Z" fill="#263238"/>
<path d="M168.74 182C168.74 183 165.25 183.7 161.51 185.48C157.77 187.26 154.97 189.38 154.19 188.74C153.82 188.43 154.09 187.4 155.06 186.1C156.397 184.457 158.09 183.14 160.012 182.25C161.933 181.359 164.033 180.918 166.15 180.96C167.77 181 168.73 181.48 168.74 182Z" fill="#263238"/>
<path d="M201.56 174.76C201.23 175.76 198.68 175.7 195.92 176.59C193.16 177.48 191 178.8 190.2 178.19C189.84 177.89 189.95 177.01 190.73 175.95C191.811 174.637 193.258 173.673 194.886 173.182C196.515 172.691 198.253 172.693 199.88 173.19C201.12 173.63 201.7 174.3 201.56 174.76Z" fill="#263238"/>
<path d="M141.77 219.74C141.35 219.74 125.44 220.34 130.88 234.96C136.32 249.58 149.88 241.1 149.75 240.67C149.62 240.24 141.77 219.74 141.77 219.74Z" fill="#EFBE9D"/>
<path d="M143.22 236.8C143.14 236.8 143.03 237.07 142.68 237.43C142.172 237.916 141.493 238.182 140.79 238.17C139.03 238.17 136.79 236.17 135.79 233.61C135.281 232.369 135.059 231.029 135.14 229.69C135.11 229.182 135.203 228.675 135.41 228.21C135.617 227.746 135.933 227.337 136.33 227.02C136.594 226.836 136.914 226.749 137.235 226.775C137.556 226.8 137.858 226.936 138.09 227.16C138.44 227.5 138.46 227.83 138.55 227.82C138.64 227.81 138.77 227.46 138.43 226.9C138.213 226.567 137.888 226.32 137.51 226.2C137.255 226.12 136.986 226.092 136.72 226.118C136.454 226.144 136.195 226.223 135.96 226.35C135.403 226.692 134.943 227.172 134.625 227.742C134.306 228.313 134.139 228.956 134.14 229.61C133.995 231.107 134.215 232.616 134.78 234.01C135.97 236.92 138.5 239.12 140.84 238.94C141.276 238.911 141.699 238.783 142.078 238.566C142.458 238.35 142.783 238.05 143.03 237.69C143.33 237.16 143.28 236.8 143.22 236.8Z" fill="#E7996E"/>
<path d="M184.47 222.71C185 222.5 186.22 226.1 190.17 227.62C194.12 229.14 197.82 227.46 198.02 227.95C198.14 228.16 197.4 228.95 195.79 229.53C193.686 230.27 191.388 230.245 189.3 229.46C187.3 228.702 185.672 227.196 184.76 225.26C184.11 223.8 184.22 222.77 184.47 222.71Z" fill="#263238"/>
<path d="M212 140.83C211.333 139.493 210.344 138.344 209.122 137.485C207.9 136.626 206.483 136.085 205 135.91C204.714 135.09 204.349 134.3 203.91 133.55C201.23 129.01 195.19 126.55 190.29 128.55C189.246 126.792 187.743 125.353 185.942 124.387C184.141 123.421 182.11 122.965 180.068 123.067C178.027 123.17 176.052 123.828 174.357 124.971C172.662 126.113 171.311 127.696 170.45 129.55C168.059 128.589 165.441 128.337 162.91 128.824C160.379 129.312 158.043 130.519 156.18 132.3C155.701 132.728 155.355 133.283 155.18 133.9C155.138 134.108 155.138 134.321 155.179 134.529C155.221 134.736 155.302 134.934 155.42 135.11C154.369 134.246 153.124 133.649 151.792 133.37C150.459 133.091 149.08 133.139 147.77 133.51C146.882 133.778 146.049 134.201 145.31 134.76C143.036 135.75 141.242 137.592 140.31 139.89C136.998 139.936 133.818 141.195 131.372 143.428C128.926 145.662 127.385 148.716 127.04 152.01C124.676 152.996 122.66 154.665 121.25 156.802C119.839 158.939 119.097 161.449 119.12 164.01C117.604 164.662 116.286 165.701 115.299 167.023C114.312 168.346 113.69 169.905 113.496 171.544C113.303 173.182 113.544 174.843 114.196 176.359C114.848 177.875 115.887 179.193 117.21 180.18C117.21 180.18 107.65 186.01 113.44 194.35C116.44 198.61 122.44 195.66 122.44 195.66L140.44 222.85C140.36 223.04 143.53 225.85 145.06 224.51C146.59 223.17 146.99 220.98 147.46 219C148.01 216.73 148.79 214.45 148.6 212.12C148.41 209.79 146.93 207.35 144.6 206.99C146.87 205.29 147.6 202.13 147.23 199.32C146.86 196.51 145.44 193.96 144.08 191.47L138.08 180.47C140.734 179.466 143.064 177.756 144.817 175.525C146.571 173.294 147.682 170.626 148.03 167.81C152.85 169.47 158.74 165.75 159.29 160.67C161.124 162.97 163.764 164.488 166.674 164.917C169.585 165.346 172.55 164.653 174.97 162.98C175.41 166.24 181.86 167.24 185.14 167.03C188.42 166.82 191.48 163.44 191.48 163.44C193.686 163.896 195.957 163.943 198.18 163.58L198.51 163.49C202.82 162.49 205.63 157.34 206.42 152.99C207.531 152.735 208.576 152.252 209.49 151.57C211.04 150.312 212.128 148.574 212.583 146.63C213.037 144.685 212.832 142.645 212 140.83Z" fill="#263238"/>
<path d="M188.52 132.87C188.737 133.004 188.935 133.165 189.11 133.35C189.632 133.86 190.074 134.447 190.42 135.09C190.982 136.105 191.342 137.219 191.48 138.37C191.669 139.905 191.469 141.462 190.9 142.9C190.166 144.637 188.837 146.056 187.15 146.9C185.205 147.874 182.984 148.149 180.86 147.68C179.712 147.429 178.631 146.935 177.69 146.23C177.188 145.875 176.752 145.435 176.4 144.93C176.016 144.404 175.787 143.78 175.74 143.13C175.729 142.788 175.792 142.448 175.923 142.133C176.054 141.817 176.251 141.533 176.5 141.3C177.005 140.854 177.626 140.56 178.29 140.45C178.953 140.32 179.637 140.341 180.29 140.51C180.944 140.651 181.567 140.909 182.13 141.27C183.225 141.971 184.111 142.953 184.696 144.115C185.28 145.276 185.54 146.573 185.45 147.87C185.325 149.061 184.963 150.214 184.386 151.264C183.809 152.313 183.029 153.236 182.09 153.98C180.407 155.334 178.376 156.186 176.23 156.44C174.386 156.663 172.518 156.582 170.7 156.2C168.098 155.611 165.578 154.701 163.2 153.49C162.35 153.08 161.71 152.74 161.27 152.49C161.043 152.38 160.823 152.257 160.61 152.12C160.853 152.188 161.088 152.282 161.31 152.4L163.31 153.29C165.7 154.415 168.209 155.263 170.79 155.82C172.57 156.166 174.393 156.224 176.19 155.99C178.249 155.735 180.194 154.903 181.8 153.59C182.683 152.882 183.417 152.008 183.961 151.016C184.505 150.024 184.848 148.935 184.97 147.81C185.048 146.606 184.801 145.403 184.256 144.327C183.711 143.25 182.887 142.34 181.87 141.69C181.361 141.358 180.795 141.124 180.2 141C179.622 140.851 179.018 140.83 178.43 140.94C177.865 141.03 177.338 141.28 176.91 141.66C176.71 141.841 176.551 142.064 176.446 142.312C176.34 142.561 176.291 142.83 176.3 143.1C176.379 143.65 176.576 144.177 176.876 144.644C177.176 145.112 177.573 145.509 178.04 145.81C178.929 146.481 179.952 146.952 181.04 147.19C183.061 147.655 185.181 147.408 187.04 146.49C188.655 145.693 189.932 144.345 190.64 142.69C191.136 141.478 191.364 140.173 191.309 138.865C191.254 137.557 190.917 136.276 190.32 135.11C189.84 134.274 189.233 133.519 188.52 132.87Z" fill="#455A64"/>
<path d="M91.6802 367.51C91.6802 367.51 82.2002 401.83 80.1102 410.21C78.0202 418.59 78.0002 438.06 82.7502 443.82C87.5002 449.58 103.18 453.25 103.18 453.25C103.18 453.25 133.95 438.25 144.43 419.89C154.91 401.53 183.55 351.69 183.55 351.69L174.48 326.79L126.77 372.34L127.27 366.41L91.6802 367.51Z" fill="#EFBE9D"/>
<path d="M191.32 248.26C191.713 248.059 192.142 247.938 192.582 247.903C193.022 247.869 193.464 247.922 193.884 248.059C194.303 248.197 194.691 248.416 195.025 248.705C195.359 248.993 195.633 249.345 195.83 249.74L223.29 304.42L216.29 307.55L189.82 252.7C189.44 251.911 189.384 251.004 189.665 250.174C189.945 249.344 190.539 248.657 191.32 248.26Z" fill="#455A64"/>
<path d="M173 328.36L198.67 301.89H223.27L239 322.69C239 322.69 231.53 324.08 228.86 320.07L225.38 315.12C225.38 315.12 228.86 322.74 226.99 326.49C226.99 326.49 223.3 335.18 222.71 336.11C221.59 337.86 220.71 338.98 217.53 338.45C214.35 337.92 209.34 335.31 209.87 333.45C210.037 332.907 210.35 332.42 210.775 332.042C211.2 331.665 211.721 331.411 212.28 331.31L204.79 330.24C204.79 330.24 197.25 343.9 192.71 347.11C189.901 349.073 186.822 350.619 183.57 351.7L173 328.36Z" fill="#EFBE9D"/>
<path d="M127.73 371.54C127.79 371.67 125.66 372.66 122.39 374.54C118.147 377.028 114.158 379.925 110.48 383.19C106.803 386.478 103.454 390.115 100.48 394.05C98.2101 397.05 96.9901 399.05 96.8701 399.05C97.052 398.529 97.2972 398.032 97.6001 397.57C98.3386 396.258 99.1464 394.986 100.02 393.76C105.725 385.58 113.257 378.841 122.02 374.08C123.7 373.19 125.1 372.52 126.08 372.08C126.604 371.829 127.159 371.648 127.73 371.54Z" fill="#E7996E"/>
<path d="M204.26 309.58C205.437 309.242 206.648 309.037 207.87 308.97C210.1 308.69 213.2 308.37 216.62 308.07C217.484 307.965 218.357 307.965 219.22 308.07C220.048 308.2 220.835 308.518 221.52 309C222.641 309.809 223.539 310.89 224.13 312.14C224.719 313.229 225.109 314.414 225.28 315.64C225.15 315.69 224.68 314.35 223.62 312.41C223.012 311.297 222.153 310.342 221.11 309.62C220.508 309.222 219.825 308.963 219.11 308.86C218.309 308.771 217.501 308.771 216.7 308.86C213.28 309.16 210.18 309.39 207.93 309.52C206.713 309.677 205.482 309.697 204.26 309.58Z" fill="#E7996E"/>
<path d="M223.86 334.78C223.72 334.78 223.96 332.91 223.8 329.93C223.702 328.19 223.465 326.462 223.09 324.76C222.67 322.89 222.09 320.65 220.19 319.56C219.247 319.06 218.237 318.699 217.19 318.49L214.19 317.8C212.482 317.409 210.747 317.142 209 317C207.393 316.95 205.783 316.99 204.18 317.12C204.571 316.908 204.999 316.772 205.44 316.72C206.622 316.489 207.826 316.392 209.03 316.43C210.808 316.492 212.577 316.703 214.32 317.06C215.32 317.25 216.32 317.47 217.38 317.71C218.521 317.919 219.621 318.307 220.64 318.86C221.668 319.487 222.472 320.421 222.94 321.53C223.359 322.516 223.664 323.546 223.85 324.6C224.198 326.346 224.382 328.12 224.4 329.9C224.414 331.097 224.341 332.294 224.18 333.48C224.149 333.928 224.04 334.368 223.86 334.78Z" fill="#E7996E"/>
<path d="M215 325.89C215.21 325.89 215.37 328.03 215.39 330.82V331.3L214.89 331.21C214.62 331.157 214.346 331.13 214.07 331.13C212.786 331.175 211.569 331.712 210.67 332.63C209.98 333.35 209.76 333.98 209.67 333.94C209.58 333.9 209.61 333.19 210.27 332.26C210.722 331.667 211.302 331.184 211.967 330.848C212.632 330.512 213.365 330.331 214.11 330.32C214.447 330.321 214.782 330.358 215.11 330.43L214.62 330.82C214.58 328 214.75 325.89 215 325.89Z" fill="#E7996E"/>
<path d="M215 326.71C215 326.94 212.74 326.61 210 326.47C207.26 326.33 205 326.41 205 326.18C205 325.95 207.21 325.51 210 325.66C212.79 325.81 215 326.5 215 326.71Z" fill="#E7996E"/>
<path d="M205.41 325.43C205.62 325.43 205.41 327.86 204.3 330.58C203.19 333.3 201.57 335.11 201.4 334.98C201.23 334.85 202.46 332.88 203.55 330.26C204.64 327.64 205.17 325.39 205.41 325.43Z" fill="#E7996E"/>
<path d="M366.55 328.34C366.55 328.34 383.47 306.34 385.32 305.34C387.17 304.34 410.73 300.94 410.73 300.94C410.73 300.94 409.73 308.38 402.92 310.57C398.1 312.12 392.45 313.33 392.45 313.33C392.45 313.33 394.33 327.75 390.86 333.53C387.997 337.946 384.752 342.102 381.16 345.95L366.55 328.34Z" fill="#EFBE9D"/>
<path d="M387.68 336.88C389.191 335.097 390.385 333.067 391.21 330.88C392.02 328.467 392.485 325.952 392.59 323.41C392.67 321.908 392.67 320.402 392.59 318.9C392.527 318.113 392.414 317.332 392.25 316.56C392.047 315.718 392.02 314.843 392.17 313.99C392.263 313.765 392.399 313.562 392.57 313.39C392.742 313.218 392.946 313.082 393.17 312.99C393.552 312.804 393.95 312.653 394.36 312.54C395.14 312.322 395.931 312.145 396.73 312.01C398.211 311.776 399.675 311.442 401.11 311.01C403.559 310.34 405.787 309.037 407.57 307.23C408.717 305.962 409.589 304.471 410.13 302.85C410.53 301.7 410.66 301.03 410.71 301.04C410.717 301.205 410.697 301.371 410.65 301.53C410.572 301.997 410.462 302.458 410.32 302.91C409.842 304.598 408.995 306.159 407.84 307.48C406.044 309.383 403.767 310.765 401.25 311.48C399.801 311.944 398.32 312.305 396.82 312.56C396.042 312.697 395.271 312.874 394.51 313.09C394.127 313.192 393.755 313.333 393.4 313.51C393.073 313.633 392.804 313.876 392.65 314.19C392.535 314.963 392.569 315.75 392.75 316.51C392.919 317.304 393.032 318.11 393.09 318.92C393.176 320.439 393.176 321.961 393.09 323.48C392.962 326.065 392.45 328.616 391.57 331.05C390.95 332.658 390.083 334.159 389 335.5C388.708 335.871 388.391 336.222 388.05 336.55C387.94 336.674 387.816 336.785 387.68 336.88Z" fill="#E7996E"/>
<path d="M258.56 473.06H372.94C374.248 473.06 375.515 472.6 376.518 471.761C377.521 470.922 378.198 469.757 378.43 468.47L392.6 390.28C392.747 389.476 392.715 388.649 392.507 387.859C392.298 387.068 391.919 386.333 391.395 385.705C390.871 385.077 390.216 384.573 389.476 384.226C388.735 383.88 387.928 383.7 387.11 383.7H272.73C271.421 383.7 270.154 384.159 269.148 384.998C268.143 385.837 267.465 387.002 267.23 388.29L253.07 466.48C252.924 467.284 252.956 468.111 253.164 468.901C253.372 469.692 253.752 470.427 254.275 471.055C254.799 471.682 255.454 472.187 256.195 472.534C256.935 472.88 257.743 473.06 258.56 473.06Z" fill="#263238"/>
<path d="M264.37 473.05H190.91V472.29C190.91 470.51 191.617 468.804 192.875 467.545C194.134 466.287 195.841 465.58 197.62 465.58H264.37V473.05Z" fill="#263238"/>
<path d="M273.93 383.7C273.82 383.7 269.76 403.7 264.86 428.33C259.96 452.96 256.07 473 256.17 473C256.27 473 260.34 453.05 265.25 428.37C270.16 403.69 274 383.72 273.93 383.7Z" fill="#455A64"/>
<path d="M326.63 429.65C326.84 428.876 327.277 428.183 327.885 427.661C328.493 427.138 329.244 426.81 330.04 426.72H329.71C330.542 426.562 331.402 426.678 332.162 427.05C332.923 427.422 333.542 428.029 333.928 428.782C334.315 429.535 334.447 430.393 334.305 431.228C334.163 432.062 333.756 432.828 333.142 433.412C332.529 433.995 331.744 434.364 330.903 434.464C330.063 434.564 329.213 434.389 328.48 433.966C327.747 433.542 327.171 432.893 326.837 432.115C326.504 431.338 326.431 430.473 326.63 429.65Z" fill="#455A64"/>
</svg>
