<svg width="540" height="528" viewBox="0 0 540 528" fill="none" xmlns="http://www.w3.org/2000/svg">
<g clip-path="url(#clip0_12_98)">
<path d="M31.1712 518.194C29.6226 516.869 26.1735 512.67 28.8249 507.779C29.7986 505.984 31.8751 505.093 33.7522 504.26C35.6831 503.611 37.5031 502.669 39.1488 501.469C42.0817 498.97 42.8912 494.842 44.827 491.511C47.0677 487.699 51.2325 484.837 55.6319 485.036C60.6648 485.271 64.8648 489.388 66.777 494.079C68.6893 498.771 68.748 503.979 68.7832 509.046C68.7832 511.849 68.6893 515.004 66.6245 516.893C64.7357 518.64 61.9318 518.664 59.3039 518.582L31.8399 517.784" fill="#F5F5F5"/>
<path d="M83.8467 442.494H11.4267L24.4724 520.259C24.7413 521.882 25.4664 523.396 26.5632 524.624C27.6599 525.851 29.0831 526.741 30.6668 527.191H30.9131C31.136 527.249 31.3355 527.32 31.5584 527.367C32.0464 527.457 32.5405 527.512 33.0366 527.531V527.601H33.3885H65.6625C66.261 527.597 66.8579 527.538 67.4457 527.425C69.3293 527.133 71.0651 526.231 72.3873 524.859C73.7095 523.486 74.5452 521.718 74.7663 519.825L81.1132 466.305L81.3948 464.17L83.7998 442.846L83.8467 442.494ZM70.1792 492.109H62.753L63.5156 469.53H72.1267L70.1792 492.109ZM72.8306 469.542H79.94L77.3004 492.109H70.9066L72.8306 469.542ZM51.5962 517.127L51.1504 497.528H61.8497L61.1693 517.115L51.5962 517.127ZM40.0521 497.516H50.4465L50.904 517.115H41.5538L40.0521 497.516ZM40.8616 517.115H32.1098C31.2885 511.826 30.2092 504.94 29.036 497.516H39.313L40.8616 517.115ZM39.6063 492.109L37.8583 469.542H49.7895L50.3057 492.109H39.6063ZM51.0213 492.109L50.5051 469.542H62.7765L62.0257 492.109H51.0213ZM50.3761 464.123L49.8951 443.222H63.6564L62.9642 464.123H50.3761ZM49.6604 464.123H37.436L35.8053 443.222H49.1794L49.6604 464.123ZM36.7555 464.123H23.8506C23.3931 461.238 22.959 458.505 22.5601 456.053C21.211 447.597 20.7065 444.418 20.425 443.222H35.0896L36.7555 464.123ZM37.1779 469.542L38.879 492.109H28.1914C27.8277 489.822 27.464 487.499 27.1003 485.189C26.2674 479.864 25.4227 474.527 24.6366 469.542H37.1779ZM27.464 492.109H20.425L16.6356 469.542H23.8624C25.0121 476.509 26.2322 484.262 27.464 492.109ZM28.3087 497.528C29.3763 504.307 30.4321 511.004 31.3824 517.127H24.6718L21.387 497.528H28.3087ZM61.9201 517.127L62.5653 497.528H69.7217L68.0441 517.127H61.9201ZM63.6799 464.123L64.372 443.222H74.3557L72.5725 464.123H63.6799ZM19.6741 443.21C19.9557 444.723 21.2814 452.945 23.0529 464.111H15.7792L12.2597 443.21H19.6741ZM74.3675 517.104H68.7714L70.4373 497.504H76.6669L74.3675 517.104ZM80.5853 464.1H73.2999L75.0831 443.198H83.0372L80.5853 464.1Z" fill="#E0E0E0"/>
<path d="M524.115 111.439H426.507V198.751H524.115V111.439Z" fill="#FAFAFA"/>
<path d="M524.115 198.751C524.115 198.751 524.115 198.188 524.115 197.12C524.115 196.053 524.115 194.493 524.115 192.429C524.115 188.323 524.115 182.33 524.115 174.706C524.115 159.458 524.045 137.653 523.998 111.368L524.221 111.591H426.613L426.871 111.333C426.871 143.096 426.871 172.982 426.871 198.645L426.648 198.411L497.238 198.528L517.182 198.586H522.449H523.81H522.496H517.276H497.414L426.671 198.704H426.437V198.481C426.437 172.818 426.437 142.932 426.437 111.169V110.911H426.707H524.315H524.538V111.134C524.538 137.431 524.444 159.223 524.42 174.565C524.42 182.166 524.42 188.148 524.362 192.229C524.362 194.258 524.362 195.748 524.362 196.921C524.362 198.094 524.115 198.751 524.115 198.751Z" fill="#E0E0E0"/>
<path d="M463.931 126.956C463.931 127.097 458.793 127.215 452.458 127.215C446.123 127.215 440.984 127.097 440.984 126.956C440.984 126.816 446.123 126.687 452.458 126.687C458.793 126.687 463.931 126.804 463.931 126.956Z" fill="#E0E0E0"/>
<path d="M505.286 133.501C505.286 133.654 491.208 133.771 473.763 133.771C456.318 133.771 442.239 133.654 442.239 133.501C442.239 133.349 456.318 133.243 473.763 133.243C491.208 133.243 505.286 133.361 505.286 133.501Z" fill="#E0E0E0"/>
<path d="M445.266 144.609H441.148V148.726H445.266V144.609Z" fill="#E0E0E0"/>
<path d="M455.391 144.609H451.273V148.726H455.391V144.609Z" fill="#E0E0E0"/>
<path d="M465.703 144.421H461.585V148.538H465.703V144.421Z" fill="#E0E0E0"/>
<path d="M475.64 144.609H471.522V148.726H475.64V144.609Z" fill="#E0E0E0"/>
<path d="M485.764 144.609H481.646V148.726H485.764V144.609Z" fill="#E0E0E0"/>
<path d="M495.877 144.609H491.759V148.726H495.877V144.609Z" fill="#E0E0E0"/>
<path d="M506.001 144.609H501.884V148.726H506.001V144.609Z" fill="#EBEBEB"/>
<path d="M445.266 153.347H441.148V157.464H445.266V153.347Z" fill="#EBEBEB"/>
<path d="M455.391 153.347H451.273V157.464H455.391V153.347Z" fill="#E0E0E0"/>
<path d="M465.515 153.347H461.397V157.464H465.515V153.347Z" fill="#EBEBEB"/>
<path d="M475.64 153.347H471.522V157.464H475.64V153.347Z" fill="#E0E0E0"/>
<path d="M485.764 153.347H481.646V157.464H485.764V153.347Z" fill="#E0E0E0"/>
<path d="M496.065 153.159H491.947V157.276H496.065V153.159Z" fill="#E0E0E0"/>
<path d="M506.001 153.347H501.884V157.464H506.001V153.347Z" fill="#E0E0E0"/>
<path d="M445.266 162.097H441.148V166.214H445.266V162.097Z" fill="#E0E0E0"/>
<path d="M455.578 161.909H451.461V166.026H455.578V161.909Z" fill="#E0E0E0"/>
<path d="M465.515 162.097H461.397V166.214H465.515V162.097Z" fill="#E0E0E0"/>
<path d="M475.64 162.097H471.522V166.214H475.64V162.097Z" fill="#EBEBEB"/>
<path d="M485.764 162.097H481.646V166.214H485.764V162.097Z" fill="#E0E0E0"/>
<path d="M495.877 162.097H491.759V166.214H495.877V162.097Z" fill="#E0E0E0"/>
<path d="M506.001 162.097H501.884V166.214H506.001V162.097Z" fill="#E0E0E0"/>
<path d="M445.266 170.835H441.148V174.952H445.266V170.835Z" fill="#E0E0E0"/>
<path d="M455.391 170.835H451.273V174.952H455.391V170.835Z" fill="#E0E0E0"/>
<path d="M465.515 170.835H461.397V174.952H465.515V170.835Z" fill="#E0E0E0"/>
<path d="M475.827 170.648H471.71V174.765H475.827V170.648Z" fill="#E0E0E0"/>
<path d="M485.764 170.835H481.646V174.952H485.764V170.835Z" fill="#E0E0E0"/>
<path d="M495.877 170.835H491.759V174.952H495.877V170.835Z" fill="#EBEBEB"/>
<path d="M506.001 170.835H501.884V174.952H506.001V170.835Z" fill="#E0E0E0"/>
<path d="M445.266 179.573H441.148V183.69H445.266V179.573Z" fill="#E0E0E0"/>
<path d="M455.391 179.573H451.273V183.69H455.391V179.573Z" fill="#EBEBEB"/>
<path d="M465.515 179.573H461.397V183.69H465.515V179.573Z" fill="#E0E0E0"/>
<path d="M475.64 179.573H471.522V183.69H475.64V179.573Z" fill="#E0E0E0"/>
<path d="M485.764 179.573H481.646V183.69H485.764V179.573Z" fill="#E0E0E0"/>
<path d="M496.065 179.386H491.947V183.503H496.065V179.386Z" fill="#E0E0E0"/>
<path d="M506.001 179.573H501.884V183.69H506.001V179.573Z" fill="#E0E0E0"/>
<path d="M505.292 54.9508C508.41 35.5589 495.213 17.3121 475.817 14.1956C456.42 11.0791 438.17 24.273 435.052 43.665C431.935 63.0569 445.132 81.3037 464.528 84.4202C483.925 87.5367 502.175 74.3428 505.292 54.9508Z" fill="#E0E0E0"/>
<path d="M470.548 81.1423C488.327 81.1423 502.74 66.7327 502.74 48.9575C502.74 31.1823 488.327 16.7727 470.548 16.7727C452.769 16.7727 438.356 31.1823 438.356 48.9575C438.356 66.7327 452.769 81.1423 470.548 81.1423Z" fill="white"/>
<path d="M438.028 47.034C438.028 47.034 438.028 47.2099 438.028 47.55C438.028 47.8902 438.028 48.4297 438.028 49.0983C438.028 49.4384 438.028 49.8138 438.028 50.2712C438.028 50.7286 438.11 51.1509 438.145 51.6435C438.18 52.1361 438.239 52.6639 438.298 53.2269C438.364 53.8306 438.466 54.4298 438.603 55.0215C439.152 58.0927 440.165 61.0628 441.606 63.8301C443.491 67.5097 446.068 70.7912 449.196 73.4949L450.522 74.6679C450.991 75.0197 451.484 75.3482 451.965 75.7C452.446 76.0519 452.939 76.4155 453.478 76.7087C454.018 77.002 454.558 77.3069 455.097 77.6236L455.919 78.081L456.787 78.4564L458.558 79.2422C459.157 79.4885 459.732 79.6528 460.424 79.8756C461.048 80.1056 461.687 80.2937 462.336 80.4386C463.661 80.7827 465.01 81.0297 466.372 81.1775C467.064 81.2479 467.756 81.3652 468.46 81.4004H470.595C470.959 81.4004 471.322 81.4004 471.674 81.4004L472.765 81.3066C473.481 81.2362 474.22 81.201 474.948 81.0954C476.422 80.8675 477.88 80.5423 479.312 80.1219L480.403 79.8052L480.954 79.641L481.482 79.4182L483.629 78.5619C484.333 78.2335 485.013 77.8465 485.706 77.4946C486.06 77.3256 486.404 77.1376 486.738 76.9316L487.735 76.2865C489.078 75.4047 490.36 74.4329 491.571 73.3776L493.331 71.6886L493.765 71.2664L494.164 70.7972L494.974 69.8589L495.771 68.9206L496.487 67.9119L497.203 66.8914L497.59 66.3401L497.895 65.8006C498.305 65.0617 498.728 64.3345 499.138 63.6073C499.549 62.88 499.819 62.059 500.171 61.2614C501.446 58.0534 502.237 54.6736 502.517 51.233C502.702 47.7852 502.366 44.3293 501.52 40.9817C501.285 40.1607 501.051 39.3514 500.804 38.542C500.558 37.7327 500.183 36.9821 499.866 36.1962L499.631 35.6097L499.338 35.0585L498.763 33.9559L498.188 32.8534L497.508 31.8095L496.839 30.7773L496.499 30.273L496.123 29.7921L494.61 27.8802C493.54 26.6905 492.387 25.5774 491.161 24.5491L490.257 23.775C489.964 23.517 489.624 23.3176 489.307 23.083C488.662 22.6373 488.04 22.1681 487.383 21.7576L485.377 20.5847L484.873 20.3032C484.706 20.2132 484.534 20.1348 484.356 20.0686L483.312 19.5994C481.946 18.9993 480.543 18.4862 479.112 18.0629C478.397 17.8635 477.681 17.7345 476.965 17.5703L475.91 17.3357C475.558 17.2653 475.194 17.2419 474.842 17.195L472.672 17.0777C471.968 17.019 471.264 17.0777 470.572 17.019C469.204 16.9962 467.836 17.0628 466.477 17.2184C465.81 17.282 465.148 17.3878 464.495 17.5351C463.849 17.6641 463.192 17.758 462.571 17.9222L460.717 18.4617L459.802 18.7315L458.922 19.0716L457.197 19.7636C456.634 19.9865 456.118 20.3032 455.578 20.573C455.039 20.8427 454.511 21.1125 454.006 21.394L452.54 22.3441C449.088 24.6223 446.106 27.5408 443.753 30.9415C441.961 33.4957 440.568 36.3077 439.623 39.281C439.413 39.8496 439.233 40.4291 439.084 41.0169C438.951 41.5643 438.833 42.0803 438.732 42.5651C438.626 43.046 438.509 43.4917 438.438 43.9023C438.368 44.3128 438.345 44.6881 438.298 45.0752C438.215 45.7437 438.145 46.2481 438.098 46.6C438.051 46.9518 438.028 47.1278 438.028 47.1278C438.028 47.1278 438.028 46.9401 438.028 46.6C438.028 46.2598 438.122 45.732 438.192 45.0635C438.192 44.7233 438.274 44.348 438.321 43.8905C438.368 43.4331 438.497 43.0343 438.591 42.5417C438.685 42.0491 438.814 41.533 438.931 40.9817C439.073 40.3907 439.246 39.8074 439.447 39.2341C440.381 36.2385 441.765 33.4026 443.553 30.8242C445.904 27.3877 448.895 24.4367 452.364 22.1329L453.83 21.1711C454.347 20.8779 454.886 20.6199 455.414 20.3384C455.942 20.0569 456.482 19.7402 457.057 19.5173L458.793 18.8136L459.673 18.4617L460.6 18.1919L462.465 17.6407C463.098 17.4765 463.755 17.3826 464.412 17.2419C465.07 17.0946 465.736 16.9888 466.407 16.9252C467.777 16.7598 469.157 16.6893 470.536 16.7141C471.24 16.7141 471.944 16.7141 472.66 16.7141L474.807 16.9604C475.159 16.9604 475.522 17.0308 475.886 17.1011L476.954 17.3357C477.669 17.4999 478.397 17.6407 479.112 17.8283C480.577 18.2659 482.011 18.7988 483.406 19.4235L484.45 19.8927L484.978 20.1272L485.483 20.4088L487.524 21.5817C488.181 22.0039 488.814 22.4731 489.46 22.9188C489.788 23.1534 490.128 23.3645 490.433 23.6225L491.337 24.3967C492.584 25.4426 493.76 26.5712 494.856 27.7747L496.417 29.6279L496.804 30.1088L497.144 30.6249L497.824 31.6687L498.505 32.7244L499.091 33.8269L499.666 34.9998L499.96 35.5628L500.206 36.1493L501.156 38.4951C501.403 39.3162 501.637 40.1372 501.884 40.9582C502.735 44.3447 503.071 47.8402 502.881 51.3268C502.618 54.8044 501.827 58.2216 500.534 61.4608C500.183 62.2467 499.842 63.0325 499.49 63.8066C499.138 64.5808 498.657 65.2963 498.235 66.0235C498.129 66.2111 498.036 66.3988 497.918 66.5747L497.555 67.0908L496.839 68.123L496.112 69.1552L495.29 70.1052L494.481 71.0435L494.082 71.5127L493.636 71.9467L491.865 73.6591C490.631 74.7057 489.33 75.6696 487.97 76.5445L486.961 77.1896C486.623 77.3957 486.274 77.5836 485.917 77.7526C485.213 78.1162 484.521 78.5033 483.817 78.8317L481.646 79.6997L481.107 79.9225L480.555 80.0867L479.453 80.4034C478.005 80.8265 476.531 81.1556 475.041 81.3887C474.302 81.4825 473.563 81.5177 472.836 81.5881L471.733 81.6819C471.369 81.6819 471.006 81.6819 470.654 81.6819H468.495C467.779 81.6819 467.076 81.5294 466.383 81.459C465.011 81.3015 463.651 81.0507 462.312 80.7084C461.655 80.5556 461.008 80.3597 460.377 80.1219C459.743 79.9108 459.11 79.7349 458.5 79.4885L456.716 78.691L455.837 78.3039L455.015 77.8347L453.326 76.8964C452.786 76.6032 452.305 76.2044 451.801 75.8642C451.296 75.5241 450.815 75.1839 450.346 74.8321L449.02 73.6591C445.881 70.9268 443.299 67.6131 441.418 63.9005C439.983 61.109 438.982 58.1149 438.45 55.0215C438.317 54.4257 438.219 53.8225 438.157 53.2152C438.157 52.6522 438.075 52.1127 438.028 51.62C437.981 51.1274 437.946 50.67 437.934 50.2595C437.922 49.8489 437.934 49.4619 437.934 49.0866C437.934 48.4219 437.934 47.9058 437.934 47.5383C438.004 47.2099 438.028 47.034 438.028 47.034Z" fill="#EBEBEB"/>
<path d="M485.201 49.8372C484.814 49.9094 484.421 49.937 484.028 49.9193H480.872C478.209 49.9193 474.49 49.9897 470.314 49.9897H470.102V47.6439C470.102 42.9522 470.102 38.718 470.161 35.645C470.161 34.1553 470.161 32.9355 470.231 31.9972C470.217 31.5538 470.244 31.11 470.314 30.6718C470.368 31.1115 470.395 31.5541 470.396 31.9972C470.396 32.9355 470.396 34.1553 470.454 35.645C470.454 38.718 470.513 42.9639 470.513 47.6439V49.7434L470.314 49.544C474.513 49.544 478.232 49.544 480.872 49.6144L484.028 49.673C484.423 49.6958 484.815 49.7507 485.201 49.8372Z" fill="#E0E0E0"/>
<path d="M470.419 21.7693C470.628 22.6602 470.7 23.578 470.63 24.4905C470.7 25.3991 470.629 26.3131 470.419 27.2C470.209 26.3131 470.138 25.3991 470.208 24.4905C470.139 23.578 470.21 22.6602 470.419 21.7693Z" fill="#E0E0E0"/>
<path d="M485.178 26.1561C484.703 26.9219 484.114 27.6103 483.43 28.1969C482.843 28.8911 482.155 29.4922 481.388 29.9798C481.856 29.2125 482.442 28.5237 483.125 27.9389C483.714 27.2438 484.407 26.6426 485.178 26.1561Z" fill="#E0E0E0"/>
<path d="M493.8 35.5746C493.122 36.1609 492.373 36.6612 491.571 37.0642C490.839 37.5823 490.052 38.0189 489.225 38.3661C489.821 37.6849 490.542 37.1236 491.349 36.7123C492.091 36.1895 492.922 35.8041 493.8 35.5746Z" fill="#E0E0E0"/>
<path d="M498.857 49.5557C496.393 49.8372 493.906 49.8372 491.442 49.5557C493.907 49.2898 496.392 49.2898 498.857 49.5557Z" fill="#E0E0E0"/>
<path d="M447.425 49.0631C445.087 49.3475 442.724 49.3475 440.386 49.0631C442.724 48.7788 445.087 48.7788 447.425 49.0631Z" fill="#E0E0E0"/>
<path d="M451.062 59.4786C450.268 60.3571 449.379 61.1439 448.41 61.8244C447.532 62.663 446.555 63.3916 445.501 63.9943C446.291 63.1121 447.18 62.3249 448.152 61.6485C449.029 60.8086 450.007 60.0799 451.062 59.4786Z" fill="#E0E0E0"/>
<path d="M460.048 67.5131C459.524 68.596 458.92 69.6389 458.242 70.6331C457.681 71.6997 457.042 72.723 456.329 73.6944C456.678 72.5297 457.204 71.4259 457.89 70.4219C458.452 69.3449 459.18 68.3632 460.048 67.5131Z" fill="#E0E0E0"/>
<path d="M470.419 77.9051C470.209 76.6816 470.138 75.4382 470.208 74.1987C470.138 72.9592 470.209 71.7158 470.419 70.4923C470.622 71.7167 470.685 72.9601 470.607 74.1987C470.685 75.4373 470.622 76.6807 470.419 77.9051Z" fill="#E0E0E0"/>
<path d="M486.409 72.9672C484.204 71.8176 482.302 70.1615 480.86 68.1347C481.826 68.8946 482.75 69.705 483.629 70.5627C484.599 71.3126 485.527 72.1153 486.409 72.9672Z" fill="#E0E0E0"/>
<path d="M493.906 64.8857C493.001 64.2731 492.177 63.5479 491.454 62.7276C490.63 62.0087 489.904 61.1845 489.295 60.2762C490.196 60.8865 491.012 61.6121 491.724 62.4343C492.553 63.1553 493.286 63.9791 493.906 64.8857Z" fill="#E0E0E0"/>
<path d="M450.722 39.0933C449.91 38.5818 449.179 37.9534 448.551 37.2284C447.826 36.6008 447.197 35.8696 446.686 35.0585C447.492 35.572 448.219 36.2003 448.844 36.9234C449.571 37.5528 450.203 38.2836 450.722 39.0933Z" fill="#E0E0E0"/>
<path d="M459.978 29.3464C459.184 28.8443 458.468 28.2278 457.854 27.5166C457.137 26.9054 456.516 26.1897 456.013 25.3936C456.809 25.8971 457.528 26.5134 458.148 27.2234C458.859 27.8371 459.476 28.5525 459.978 29.3464Z" fill="#E0E0E0"/>
<path d="M441.712 49.2742C441.715 41.0716 444.851 33.1798 450.479 27.211C456.106 21.2423 463.801 17.647 471.991 17.1598C471.358 17.1598 470.724 17.0894 470.079 17.0894C465.851 17.0894 461.665 17.9219 457.76 19.5393C453.854 21.1568 450.305 23.5275 447.316 26.5161C444.327 29.5048 441.955 33.0528 440.337 36.9576C438.72 40.8625 437.887 45.0477 437.887 49.2742C437.887 53.5008 438.72 57.686 440.337 61.5908C441.955 65.4957 444.327 69.0437 447.316 72.0324C450.305 75.021 453.854 77.3917 457.76 79.0091C461.665 80.6266 465.851 81.4591 470.079 81.4591C470.724 81.4591 471.358 81.4591 471.991 81.4591C463.79 80.9683 456.087 77.3624 450.458 71.3792C444.829 65.3961 441.7 57.4882 441.712 49.2742Z" fill="#F5F5F5"/>
<path d="M111.909 20.6082H21.2814V163.798H111.909V20.6082Z" fill="#E0E0E0"/>
<path d="M109.152 23.3059H23.7216V161.452H109.152V23.3059Z" fill="#F5F5F5"/>
<path d="M100.517 31.3521H66.4485V84.2037H100.517V31.3521Z" fill="white"/>
<path d="M85.2897 36.0203C85.3068 36.1977 85.2865 36.3767 85.2303 36.5458C85.1741 36.7149 85.0832 36.8704 84.9633 37.0023C84.8434 37.1342 84.6973 37.2396 84.5343 37.3117C84.3713 37.3838 84.1951 37.4211 84.0168 37.4211C83.8386 37.4211 83.6623 37.3838 83.4993 37.3117C83.3363 37.2396 83.1902 37.1342 83.0703 37.0023C82.9505 36.8704 82.8595 36.7149 82.8033 36.5458C82.7471 36.3767 82.7269 36.1977 82.7439 36.0203C82.7743 35.7039 82.9216 35.4101 83.1569 35.1963C83.3923 34.9826 83.6988 34.8641 84.0168 34.8641C84.3348 34.8641 84.6413 34.9826 84.8767 35.1963C85.112 35.4101 85.2593 35.7039 85.2897 36.0203Z" fill="#E0E0E0"/>
<path d="M66.1787 98.912H32.1098V151.764H66.1787V98.912Z" fill="white"/>
<path d="M50.9509 103.58C50.9532 103.834 50.8799 104.083 50.7403 104.295C50.6007 104.507 50.4011 104.673 50.167 104.771C49.9328 104.869 49.6747 104.895 49.4256 104.846C49.1765 104.797 48.9475 104.675 48.768 104.496C48.5885 104.316 48.4664 104.088 48.4175 103.838C48.3685 103.589 48.3948 103.331 48.493 103.097C48.5913 102.863 48.757 102.664 48.9691 102.524C49.1812 102.384 49.43 102.311 49.6839 102.313C50.0199 102.313 50.3422 102.447 50.5798 102.685C50.8174 102.922 50.9509 103.244 50.9509 103.58Z" fill="#E0E0E0"/>
<path d="M60.7469 31.3521H31.6522V72.627H60.7469V31.3521Z" fill="white"/>
<path d="M47.2554 35.0937C47.2554 35.3025 47.1935 35.5066 47.0775 35.6802C46.9615 35.8537 46.7966 35.9891 46.6036 36.0689C46.4107 36.1488 46.1984 36.1698 45.9936 36.129C45.7888 36.0883 45.6006 35.9878 45.453 35.8401C45.3053 35.6925 45.2047 35.5044 45.164 35.2996C45.1233 35.0949 45.1442 34.8826 45.2241 34.6897C45.304 34.4968 45.4393 34.332 45.613 34.216C45.7866 34.1 45.9907 34.0381 46.1996 34.0381C46.4796 34.0381 46.7482 34.1493 46.9462 34.3472C47.1442 34.5452 47.2554 34.8137 47.2554 35.0937Z" fill="#E0E0E0"/>
<path d="M101.646 99.632L70.5313 103.143L72.4775 120.381L103.592 116.87L101.646 99.632Z" fill="white"/>
<path d="M87.5187 104.659C87.5187 104.873 87.4554 105.081 87.3368 105.259C87.2182 105.436 87.0497 105.575 86.8524 105.656C86.6552 105.738 86.4382 105.759 86.2288 105.718C86.0195 105.676 85.8272 105.573 85.6762 105.422C85.5253 105.271 85.4225 105.079 85.3808 104.87C85.3392 104.661 85.3606 104.444 85.4423 104.246C85.5239 104.049 85.6623 103.881 85.8398 103.762C86.0173 103.644 86.2259 103.58 86.4394 103.58C86.7257 103.58 87.0002 103.694 87.2026 103.896C87.405 104.099 87.5187 104.373 87.5187 104.659Z" fill="#E0E0E0"/>
<path d="M61.6268 110.911C61.6268 111.052 56.2771 111.169 49.6839 111.169C43.0907 111.169 37.7058 111.099 37.7058 110.911C37.7058 110.723 43.0437 110.665 49.6487 110.665C56.2537 110.665 61.6268 110.817 61.6268 110.911Z" fill="#E0E0E0"/>
<path d="M61.6268 114.746C61.6268 114.887 56.2771 114.993 49.6839 114.993C43.0907 114.993 37.7058 114.887 37.7058 114.746C37.7058 114.606 43.0437 114.488 49.6487 114.488C56.2537 114.488 61.6268 114.606 61.6268 114.746Z" fill="#E0E0E0"/>
<path d="M61.6268 118.523C61.6268 118.664 56.2771 118.781 49.6839 118.781C43.0907 118.781 37.7058 118.664 37.7058 118.523C37.7058 118.382 43.0437 118.265 49.6487 118.265C56.2537 118.265 61.6268 118.382 61.6268 118.523Z" fill="#E0E0E0"/>
<path d="M61.6268 122.3C61.6268 122.441 56.2771 122.558 49.6839 122.558C43.0907 122.558 37.7058 122.441 37.7058 122.3C37.7058 122.159 43.0437 122.054 49.6487 122.054C56.2537 122.054 61.6268 122.171 61.6268 122.3Z" fill="#E0E0E0"/>
<path d="M61.6268 126.088C61.6268 126.229 56.2771 126.335 49.6839 126.335C43.0907 126.335 37.7058 126.229 37.7058 126.088C37.7058 125.948 43.0437 125.83 49.6487 125.83C56.2537 125.83 61.6268 125.948 61.6268 126.088Z" fill="#E0E0E0"/>
<path d="M61.6268 129.865C61.6268 130.006 56.2771 130.123 49.6839 130.123C43.0907 130.123 37.7058 130.006 37.7058 129.865C37.7058 129.725 43.0437 129.619 49.6487 129.619C56.2537 129.619 61.6268 129.678 61.6268 129.865Z" fill="#E0E0E0"/>
<path d="M61.6268 133.654C61.6268 133.795 56.2771 133.9 49.6839 133.9C43.0907 133.9 37.7058 133.795 37.7058 133.654C37.7058 133.513 43.0437 133.396 49.6487 133.396C56.2537 133.396 61.6268 133.513 61.6268 133.654Z" fill="#E0E0E0"/>
<path d="M98.7108 106.911C98.7108 107.052 93.4433 107.908 86.9791 108.835C80.5149 109.762 75.13 110.383 75.1066 110.254C75.0831 110.125 80.3741 109.245 86.9087 108.331C93.4433 107.416 98.7108 106.771 98.7108 106.911Z" fill="#E0E0E0"/>
<path d="M99.1801 109.281C99.1801 109.41 93.9243 110.278 87.3897 111.192C80.8551 112.107 75.5406 112.752 75.5289 112.612C75.5172 112.471 80.7847 111.615 87.3193 110.688C93.8539 109.761 99.1684 109.14 99.1801 109.281Z" fill="#E0E0E0"/>
<path d="M99.6142 111.462C99.6142 111.603 94.3583 112.459 87.8824 113.386C81.4065 114.312 76.0334 114.934 76.0216 114.793C76.0099 114.653 81.2775 113.796 87.7534 112.881C94.2293 111.967 99.6024 111.322 99.6142 111.462Z" fill="#E0E0E0"/>
<path d="M97.5376 42.4009C97.5376 42.5417 91.4958 42.659 84.0344 42.659C76.573 42.659 70.5546 42.5417 70.5546 42.4009C70.5546 42.2602 76.5965 42.1546 84.0461 42.1546C91.4958 42.1546 97.5376 42.2602 97.5376 42.4009Z" fill="#E0E0E0"/>
<path d="M97.5376 44.6529C97.5376 44.7937 91.4958 44.911 84.0344 44.911C76.573 44.911 70.5546 44.7937 70.5546 44.6529C70.5546 44.5122 76.5965 44.3949 84.0461 44.3949C91.4958 44.3949 97.5376 44.5122 97.5376 44.6529Z" fill="#E0E0E0"/>
<path d="M97.5376 46.905C97.5376 47.0457 91.4958 47.1513 84.0344 47.1513C76.573 47.1513 70.5546 47.0457 70.5546 46.905C70.5546 46.7642 76.5965 46.6469 84.0461 46.6469C91.4958 46.6469 97.5376 46.7642 97.5376 46.905Z" fill="#E0E0E0"/>
<path d="M97.5376 49.1452C97.5376 49.286 91.4958 49.4032 84.0344 49.4032C76.573 49.4032 70.5546 49.286 70.5546 49.1452C70.5546 49.0045 76.5965 48.8989 84.0461 48.8989C91.4958 48.8989 97.5376 49.0162 97.5376 49.1452Z" fill="#E0E0E0"/>
<path d="M97.5376 51.3972C97.5376 51.538 91.4958 51.6553 84.0344 51.6553C76.573 51.6553 70.5546 51.538 70.5546 51.3972C70.5546 51.2565 76.5613 51.0923 84.0109 51.0923C91.4606 51.0923 97.5376 51.2565 97.5376 51.3972Z" fill="#E0E0E0"/>
<path d="M97.5376 53.6492C97.5376 53.79 91.4958 53.8955 84.0344 53.8955C76.573 53.8955 70.5546 53.79 70.5546 53.6492C70.5546 53.5085 76.5613 53.4381 84.0109 53.4381C91.4606 53.4381 97.5376 53.5085 97.5376 53.6492Z" fill="#E0E0E0"/>
<path d="M97.5376 55.9012C97.5376 56.0302 91.4958 56.1475 84.0344 56.1475C76.573 56.1475 70.5546 56.0302 70.5546 55.9012C70.5546 55.7722 76.5965 55.6432 84.0461 55.6432C91.4958 55.6432 97.5376 55.7839 97.5376 55.9012Z" fill="#E0E0E0"/>
<path d="M97.5376 62.5634C97.5376 62.7041 91.4958 62.8214 84.0344 62.8214C76.573 62.8214 70.5546 62.7041 70.5546 62.5634C70.5546 62.4226 76.5965 62.317 84.0461 62.317C91.4958 62.317 97.5376 62.4226 97.5376 62.5634Z" fill="#E0E0E0"/>
<path d="M97.7019 64.9444C97.7019 65.0851 91.66 65.1907 84.1986 65.1907C76.7373 65.1907 70.7072 65.0851 70.7072 64.9444C70.7072 64.8036 76.749 64.6863 84.1986 64.6863C91.6483 64.6863 97.7019 64.8036 97.7019 64.9444Z" fill="#E0E0E0"/>
<path d="M97.8896 67.3137C97.8896 67.4544 91.8477 67.5717 84.3981 67.5717C76.9484 67.5717 70.8949 67.4544 70.8949 67.3137C70.8949 67.1729 76.9367 67.0674 84.3981 67.0674C91.8595 67.0674 97.8896 67.1729 97.8896 67.3137Z" fill="#E0E0E0"/>
<path d="M98.0773 69.6947C98.0773 69.8354 92.0355 69.941 84.5858 69.941C77.1362 69.941 71.0826 69.8589 71.0826 69.6947C71.0826 69.5305 77.1244 69.4366 84.5858 69.4366C92.0472 69.4366 98.0773 69.5539 98.0773 69.6947Z" fill="#E0E0E0"/>
<path d="M98.265 72.064C98.265 72.2047 92.2232 72.322 84.7735 72.322C77.3239 72.322 71.282 72.2047 71.282 72.064C71.282 71.9232 77.3239 71.8177 84.7735 71.8177C92.2232 71.8177 98.265 71.9232 98.265 72.064Z" fill="#E0E0E0"/>
<path d="M98.4644 74.445C98.4644 74.5858 92.4226 74.6913 84.9612 74.6913C77.4998 74.6913 71.4697 74.5858 71.4697 74.445C71.4697 74.3043 77.5116 74.187 84.9612 74.187C92.4109 74.187 98.4644 74.3043 98.4644 74.445Z" fill="#E0E0E0"/>
<path d="M539.988 527.695C539.988 527.871 419.151 528 270.006 528C120.86 528 0 527.871 0 527.695C0 527.519 120.837 527.39 270.006 527.39C419.175 527.39 539.988 527.531 539.988 527.695Z" fill="#263238"/>
<path d="M394.644 22.9539H148.137C142.15 22.9539 137.296 27.8062 137.296 33.7917V392.692C137.296 398.678 142.15 403.53 148.137 403.53H394.644C400.631 403.53 405.484 398.678 405.484 392.692V33.7917C405.484 27.8062 400.631 22.9539 394.644 22.9539Z" fill="#E0E0E0"/>
<path d="M394.656 403.53L395.488 403.471C396.285 403.396 397.071 403.239 397.835 403.002C399.375 402.513 400.786 401.685 401.963 400.579C403.141 399.473 404.055 398.116 404.639 396.61C405.044 395.559 405.282 394.451 405.343 393.326C405.402 392.153 405.343 390.886 405.343 389.572C405.343 386.945 405.343 384.071 405.343 380.963C405.343 374.735 405.343 367.545 405.343 359.464C405.343 327.103 405.343 280.28 405.261 222.432C405.261 193.508 405.261 161.816 405.261 127.801C405.261 110.794 405.261 93.2234 405.261 75.0901C405.261 66.0274 405.261 56.8356 405.261 47.5148C405.261 42.8232 405.261 38.1315 405.261 33.4398C405.194 31.0995 404.352 28.8476 402.865 27.0386C401.378 25.2295 399.332 23.9659 397.049 23.4466C395.892 23.2094 394.709 23.1188 393.529 23.1768H148.16C145.44 23.1794 142.824 24.2246 140.851 26.0974C138.889 27.9677 137.721 30.5211 137.59 33.2287C137.59 38.6945 137.59 44.1837 137.59 49.6495V145.629C137.59 187.256 137.59 227.417 137.59 265.666C137.59 303.914 137.59 340.263 137.59 374.278C137.59 378.531 137.59 382.746 137.59 386.922C137.59 389.009 137.59 391.109 137.59 393.162C137.669 395.193 138.338 397.157 139.514 398.815C140.697 400.469 142.324 401.754 144.206 402.521C145.129 402.891 146.095 403.139 147.081 403.26C148.066 403.342 149.075 403.319 150.084 403.331H207.347L344.397 403.413L381.657 403.471L344.397 403.53L207.347 403.612H149.967C148.97 403.612 147.961 403.612 146.916 403.612C145.889 403.489 144.883 403.228 143.925 402.838C141.978 402.038 140.302 400.697 139.094 398.973C137.886 397.25 137.197 395.217 137.109 393.115C137.109 391.027 137.109 388.962 137.109 386.863V374.278C137.109 340.263 137.109 303.903 137.109 265.666C137.109 227.428 137.109 187.256 137.109 145.629C137.109 124.814 137.109 103.651 137.109 82.1393V49.6613C137.109 44.2072 137.109 38.7531 137.109 33.2404C137.25 30.3932 138.481 27.7093 140.547 25.7443C142.613 23.7793 145.356 22.6837 148.207 22.6842H393.482C394.698 22.6383 395.914 22.7327 397.107 22.9657C399.496 23.5058 401.637 24.8244 403.194 26.7142C404.75 28.6039 405.634 30.9575 405.707 33.4046C405.707 38.0963 405.707 42.788 405.707 47.4796V75.0901C405.707 93.1999 405.707 110.77 405.707 127.801C405.707 161.816 405.707 193.484 405.707 222.432C405.707 280.28 405.707 327.103 405.625 359.464C405.625 367.545 405.625 374.712 405.625 380.963C405.625 384.071 405.625 386.945 405.625 389.572C405.625 390.898 405.625 392.141 405.625 393.337C405.562 394.472 405.316 395.589 404.897 396.645C404.203 398.404 403.068 399.956 401.601 401.149C400.548 401.986 399.357 402.633 398.081 403.061C397.289 403.291 396.475 403.441 395.653 403.507L394.656 403.53Z" fill="#263238"/>
<g opacity="0.3">
<path d="M160.701 394.933H385.786L383.323 348.122V323.209L160.701 357.986V394.933Z" fill="black"/>
</g>
<g opacity="0.3">
<path d="M339.071 23.7281L344.186 38.9056V46.3302H338.414L339.071 23.7281Z" fill="black"/>
</g>
<path d="M149.263 38.2019V387.801H331.68H393.529V38.2019H149.263Z" fill="white"/>
<path d="M393.529 325.285C393.529 325.285 393.529 324.839 393.529 323.948C393.529 323.056 393.529 321.719 393.529 319.972C393.529 316.453 393.529 311.269 393.529 304.501C393.529 290.942 393.529 271.108 393.459 245.925C393.459 195.49 393.459 123.766 393.365 38.2019L393.6 38.4365H149.333L149.591 38.1784V38.4951C149.591 172.888 149.591 295.61 149.521 387.778L149.333 387.578L282.688 387.672L149.333 387.754H149.134V387.567C149.134 295.399 149.134 172.677 149.134 38.284V37.7093H149.392H393.658H393.881V38.1902C393.881 123.813 393.811 195.525 393.787 245.914C393.787 271.096 393.787 290.93 393.729 304.489C393.729 311.257 393.729 316.453 393.729 319.96C393.729 321.707 393.729 323.033 393.729 323.936C393.729 324.839 393.529 325.285 393.529 325.285Z" fill="#263238"/>
<path d="M222.903 13.4768H331.656C333.62 13.4861 335.499 14.2724 336.884 15.6638C338.27 17.0552 339.047 18.9383 339.047 20.9014V49.2625H215.477V20.9014C215.477 19.9264 215.669 18.9609 216.042 18.0601C216.415 17.1593 216.962 16.3408 217.652 15.6514C218.341 14.962 219.16 14.4151 220.061 14.042C220.962 13.6688 221.928 13.4768 222.903 13.4768Z" fill="#263238"/>
<path d="M293 0H261.547L265.219 26.9536H288.917L293 0Z" fill="#263238"/>
<path d="M331.128 13.4768C331.128 13.6176 307.008 13.7349 277.268 13.7349C247.528 13.7349 223.419 13.6176 223.419 13.4768C223.419 13.3361 247.528 13.2188 277.268 13.2188C307.008 13.2188 331.128 13.3361 331.128 13.4768Z" fill="#455A64"/>
<path d="M218.245 43.5387C218.093 43.5387 217.976 38.4717 217.976 32.2083C217.976 25.9449 218.093 20.8896 218.245 20.8896C218.398 20.8896 218.504 25.9566 218.504 32.2083C218.504 38.4599 218.374 43.5387 218.245 43.5387Z" fill="#455A64"/>
<path d="M335.07 40.8527C334.806 37.4345 334.72 34.005 334.812 30.5779C334.72 27.1469 334.806 23.7135 335.07 20.2914C335.211 20.2914 335.328 24.901 335.328 30.5779C335.328 36.2548 335.211 40.8527 335.07 40.8527Z" fill="#455A64"/>
<path d="M329.11 45.6265C329.11 45.7672 304.356 45.8845 273.83 45.8845C243.304 45.8845 218.539 45.7672 218.539 45.6265C218.539 45.4857 243.281 45.3567 273.83 45.3567C304.38 45.3567 329.11 45.474 329.11 45.6265Z" fill="#455A64"/>
<path d="M362.604 105.293H227.701V113.585H362.604V105.293Z" fill="#E0E0E0"/>
<path d="M288.906 122.23H227.701V130.463H288.906V122.23Z" fill="#E0E0E0"/>
<path d="M209.458 101.762H187.321C184.82 101.762 182.792 103.789 182.792 106.29V128.423C182.792 130.923 184.82 132.95 187.321 132.95H209.458C211.959 132.95 213.987 130.923 213.987 128.423V106.29C213.987 103.789 211.959 101.762 209.458 101.762Z" fill="#278EA5"/>
<path d="M197.938 124.775L189.198 118.031L191.556 114.981L197.41 119.508L205.751 109.926L208.649 112.447L197.938 124.775Z" fill="white"/>
<path d="M362.604 156.631H227.701V164.924H362.604V156.631Z" fill="#E0E0E0"/>
<path d="M288.906 173.556H227.701V181.79H288.906V173.556Z" fill="#E0E0E0"/>
<path d="M209.458 153.089H187.321C184.82 153.089 182.792 155.116 182.792 157.617V179.749C182.792 182.25 184.82 184.277 187.321 184.277H209.458C211.959 184.277 213.987 182.25 213.987 179.749V157.617C213.987 155.116 211.959 153.089 209.458 153.089Z" fill="#278EA5"/>
<path d="M197.938 176.102L189.198 169.357L191.556 166.308L197.41 170.835L205.751 161.253L208.649 163.774L197.938 176.102Z" fill="white"/>
<path d="M362.604 211.629H227.701V219.922H362.604V211.629Z" fill="#E0E0E0"/>
<path d="M288.906 228.554H227.701V236.788H288.906V228.554Z" fill="#E0E0E0"/>
<path d="M362.604 262.464H227.701V270.756H362.604V262.464Z" fill="#E0E0E0"/>
<path d="M288.906 279.4H227.701V287.634H288.906V279.4Z" fill="#E0E0E0"/>
<path d="M209.458 208.087H187.321C184.82 208.087 182.792 210.114 182.792 212.615V234.747C182.792 237.248 184.82 239.275 187.321 239.275H209.458C211.959 239.275 213.987 237.248 213.987 234.747V212.615C213.987 210.114 211.959 208.087 209.458 208.087Z" fill="#278EA5"/>
<path d="M197.938 231.1L189.198 224.355L191.556 221.306L197.41 225.833L205.751 216.251L208.649 218.772L197.938 231.1Z" fill="white"/>
<path d="M209.892 292.08H186.875C185.651 292.08 184.477 291.594 183.61 290.73C182.744 289.866 182.256 288.694 182.253 287.47V264.457C182.256 263.234 182.744 262.061 183.61 261.197C184.477 260.333 185.651 259.848 186.875 259.848H209.892C210.498 259.848 211.097 259.967 211.657 260.199C212.216 260.43 212.725 260.77 213.153 261.198C213.581 261.626 213.92 262.134 214.152 262.693C214.384 263.253 214.503 263.852 214.503 264.457V287.47C214.503 288.693 214.017 289.865 213.153 290.73C212.288 291.594 211.115 292.08 209.892 292.08ZM186.875 260.904C185.941 260.904 185.046 261.274 184.386 261.934C183.726 262.594 183.355 263.489 183.355 264.422V287.435C183.355 288.368 183.726 289.263 184.386 289.923C185.046 290.583 185.941 290.954 186.875 290.954H209.892C210.826 290.954 211.721 290.583 212.381 289.923C213.041 289.263 213.412 288.368 213.412 287.435V264.457C213.412 263.524 213.041 262.629 212.381 261.969C211.721 261.309 210.826 260.939 209.892 260.939L186.875 260.904Z" fill="#278EA5"/>
<path d="M362.604 320.628H227.701V328.921H362.604V320.628Z" fill="#E0E0E0"/>
<path d="M288.906 337.565H227.701V345.799H288.906V337.565Z" fill="#E0E0E0"/>
<path d="M209.892 350.245H186.875C185.657 350.226 184.493 349.735 183.63 348.875C182.768 348.015 182.274 346.853 182.253 345.635V322.622C182.271 321.402 182.763 320.238 183.626 319.375C184.489 318.512 185.655 318.019 186.875 318.001H209.892C211.116 318.004 212.289 318.492 213.153 319.359C214.018 320.225 214.503 321.399 214.503 322.622V345.635C214.5 346.857 214.013 348.027 213.149 348.891C212.285 349.755 211.114 350.241 209.892 350.245ZM186.875 319.057C185.941 319.057 185.046 319.427 184.386 320.087C183.726 320.747 183.355 321.642 183.355 322.575V345.588C183.355 346.521 183.726 347.416 184.386 348.076C185.046 348.736 185.941 349.107 186.875 349.107H209.892C210.826 349.107 211.721 348.736 212.381 348.076C213.041 347.416 213.412 346.521 213.412 345.588V322.622C213.412 321.689 213.041 320.794 212.381 320.134C211.721 319.474 210.826 319.104 209.892 319.104L186.875 319.057Z" fill="#278EA5"/>
<path d="M345.957 73.2017H211.465V84.7198H345.957V73.2017Z" fill="#278EA5"/>
<path d="M234.67 500.038C234.67 500.038 230.622 472.204 230.963 456.018C231.303 439.832 230.963 421.605 230.963 421.605H232.828C232.828 421.605 231.573 453.743 232.945 473.131C234.318 492.519 237.943 500.038 237.943 500.038H234.693" fill="#263238"/>
<path d="M246.73 390.3C246.441 389.308 245.846 388.434 245.029 387.801C244.397 387.499 243.706 387.343 243.005 387.343C242.305 387.343 241.613 387.499 240.982 387.801C235.339 389.795 230.341 400.305 228.077 405.829L235.55 431.117C249.053 418.543 251.399 402.111 246.73 390.3Z" fill="#455A64"/>
<path d="M244.595 388.822C244.577 388.936 244.542 389.047 244.489 389.15C244.395 389.397 244.266 389.701 244.126 390.077C243.797 390.863 243.34 392.024 242.788 393.455C241.685 396.317 240.278 400.316 239.022 404.832C237.767 409.348 236.911 413.488 236.383 416.561C236.113 418.074 235.913 419.294 235.784 420.15C235.726 420.537 235.667 420.866 235.632 421.124C235.616 421.24 235.589 421.354 235.55 421.464C235.539 421.347 235.539 421.229 235.55 421.112C235.55 420.854 235.55 420.526 235.655 420.127C235.749 419.271 235.913 418.039 236.16 416.526C236.788 412.571 237.642 408.655 238.717 404.797C239.79 400.937 241.074 397.138 242.565 393.42C243.152 392 243.633 390.851 243.997 390.077C244.173 389.713 244.313 389.408 244.419 389.174C244.469 389.052 244.527 388.934 244.595 388.822Z" fill="#263238"/>
<path d="M232.218 437.122C228.82 435.177 225.979 432.392 223.966 429.034C221.953 425.676 220.835 421.858 220.721 417.945C220.451 412.35 222.176 406.861 224.123 401.618C224.244 401.149 224.521 400.735 224.909 400.445C225.228 400.331 225.57 400.299 225.904 400.352C226.239 400.405 226.554 400.542 226.821 400.75C231.925 403.647 235.034 409.184 236.653 414.825C237.836 418.558 238.235 422.496 237.826 426.39C237.179 430.484 235.229 434.26 232.265 437.158" fill="#455A64"/>
<path d="M232.218 437.122C232.218 437.122 232.218 437.005 232.218 436.782C232.218 436.559 232.218 436.208 232.218 435.809C232.218 434.976 232.218 433.756 232.112 432.29C231.91 428.385 231.475 424.496 230.81 420.643C230.024 416.127 229.086 412.092 228.382 409.16C228.041 407.741 227.76 406.568 227.56 405.7C227.467 405.325 227.396 405.008 227.338 404.762C227.319 404.649 227.319 404.534 227.338 404.422C227.338 404.422 227.338 404.539 227.443 404.75C227.549 404.961 227.607 405.301 227.725 405.677C227.948 406.486 228.264 407.659 228.651 409.113C229.391 412.022 230.376 416.069 231.162 420.596C231.822 424.474 232.214 428.393 232.335 432.325C232.335 433.827 232.335 435.046 232.335 435.844C232.335 436.243 232.335 436.559 232.335 436.818C232.309 436.924 232.27 437.026 232.218 437.122Z" fill="#263238"/>
<g opacity="0.3">
<path d="M232.218 437.122C228.82 435.177 225.979 432.392 223.966 429.034C221.953 425.676 220.835 421.858 220.721 417.945C220.451 412.35 222.176 406.861 224.123 401.618C224.244 401.149 224.521 400.735 224.909 400.445C225.228 400.331 225.57 400.299 225.904 400.352C226.239 400.405 226.554 400.542 226.821 400.75C231.925 403.647 235.034 409.184 236.653 414.825C237.836 418.558 238.235 422.496 237.826 426.39C237.179 430.484 235.229 434.26 232.265 437.158" fill="black"/>
</g>
<path d="M240.137 479.699C247.047 481.212 252.725 486.08 259.389 488.449C263.788 490.021 268.774 490.572 272.294 493.657C271.449 491.522 269.454 490.138 267.507 488.883C262.021 485.465 256.17 482.672 250.062 480.556C246.93 479.476 243.527 478.573 240.336 479.465" fill="#455A64"/>
<path d="M230.106 485.845C221.46 485.705 212.356 478.351 203.757 477.905C212.755 475.008 225.66 477.377 230.106 485.845Z" fill="#455A64"/>
<path d="M233.532 465.132C237.989 463.673 242.739 463.351 247.352 464.193C251.948 465.038 256.465 466.266 260.855 467.865C260.409 464.862 257.981 462.61 255.693 460.616C254.027 459.055 252.211 457.66 250.273 456.452C248.328 455.229 246.072 454.59 243.774 454.611C242.398 454.702 241.054 455.07 239.823 455.69C238.592 456.311 237.498 457.172 236.606 458.223C234.861 460.133 233.783 462.557 233.532 465.132Z" fill="#455A64"/>
<path d="M215.794 455.572C210.35 450.881 202.103 451.373 194.946 451.538C206.443 457.014 217.285 463.77 227.267 471.677C227.56 466.621 222.668 461.437 215.794 455.572Z" fill="#455A64"/>
<g opacity="0.3">
<path d="M215.794 455.572C210.35 450.881 202.103 451.373 194.946 451.538C206.443 457.014 217.285 463.77 227.267 471.677C227.56 466.621 222.668 461.437 215.794 455.572Z" fill="black"/>
</g>
<path d="M235.972 449.157C238.625 447.311 241.422 445.684 244.337 444.289C247.199 442.987 249.874 440.911 252.643 439.421C256.233 437.474 259.342 434.73 262.638 432.384C265.935 430.038 269.548 427.798 273.572 427.164C270.253 426.569 266.84 426.766 263.612 427.739C260.391 428.703 257.253 429.923 254.227 431.387C249.98 433.299 245.663 435.258 242.19 438.354C238.717 441.451 235.585 444.524 235.949 449.168" fill="#455A64"/>
<path d="M259.224 485.845L258.955 485.728L258.204 485.341C257.547 484.989 256.62 484.473 255.435 483.887C254.86 483.582 254.262 483.253 253.511 482.925C252.76 482.596 252.056 482.245 251.259 481.904C249.543 481.135 247.765 480.515 245.944 480.051C244.135 479.545 242.228 479.496 240.395 479.91C239.596 480.078 238.811 480.31 238.049 480.602C237.39 480.874 236.754 481.2 236.148 481.576C235.285 482.13 234.496 482.792 233.802 483.547C233.297 484.086 233.051 484.414 233.027 484.403C233.071 484.313 233.122 484.226 233.18 484.145C233.297 483.98 233.473 483.758 233.708 483.476C234.387 482.676 235.177 481.976 236.054 481.4C236.66 481 237.299 480.654 237.966 480.368C238.729 480.064 239.514 479.817 240.313 479.629C242.19 479.195 244.145 479.235 246.003 479.746C247.844 480.215 249.639 480.851 251.364 481.646C252.162 481.998 252.913 482.35 253.605 482.702C254.297 483.054 254.954 483.371 255.529 483.699C256.702 484.309 257.617 484.872 258.251 485.236L258.978 485.681C259.154 485.775 259.236 485.834 259.224 485.845Z" fill="#263238"/>
<path d="M223.712 481.553C223.899 481.576 224.081 481.627 224.252 481.705C224.734 481.883 225.204 482.091 225.66 482.327C227.172 483.093 228.563 484.077 229.789 485.247C231.013 486.423 232.053 487.775 232.875 489.259C233.128 489.705 233.352 490.167 233.544 490.643C233.628 490.814 233.691 490.995 233.731 491.182C233.731 491.182 233.356 490.467 232.687 489.376C231.824 487.945 230.779 486.632 229.578 485.47C228.366 484.321 227.014 483.328 225.554 482.514C224.428 481.904 223.689 481.611 223.712 481.553Z" fill="#263238"/>
<path d="M204.578 455.138C204.703 455.158 204.826 455.193 204.942 455.244L205.986 455.608L207.617 456.218C208.262 456.452 208.954 456.804 209.728 457.144C213.786 459.019 217.573 461.43 220.991 464.311C222.85 465.919 224.602 467.646 226.235 469.483C227.725 471.196 228.98 472.803 229.965 474.175C230.951 475.547 231.702 476.744 232.218 477.553L232.805 478.48C232.877 478.583 232.94 478.693 232.992 478.808C232.903 478.72 232.824 478.621 232.758 478.515C232.605 478.304 232.382 478.01 232.112 477.612C231.573 476.826 230.798 475.688 229.766 474.304C228.734 472.92 227.49 471.336 226 469.612C224.37 467.795 222.622 466.087 220.768 464.498C217.372 461.628 213.622 459.204 209.611 457.285C208.837 456.933 208.156 456.569 207.534 456.311L205.939 455.748L204.93 455.326L204.578 455.138Z" fill="#263238"/>
<path d="M246.531 460.252C246.297 460.25 246.064 460.219 245.838 460.159L245.052 460.018C244.736 459.959 244.372 459.959 243.985 459.912C241.935 459.739 239.878 460.145 238.049 461.085C237.046 461.607 236.131 462.284 235.339 463.091C234.679 463.737 234.097 464.457 233.602 465.237C233.153 465.964 232.76 466.725 232.429 467.513C232.447 467.277 232.506 467.047 232.605 466.832C232.82 466.239 233.095 465.669 233.426 465.132C233.909 464.318 234.488 463.566 235.151 462.891C236.281 461.709 237.67 460.806 239.21 460.252C240.749 459.698 242.396 459.51 244.02 459.701C244.419 459.701 244.783 459.771 245.088 459.842L245.885 460.041C246.108 460.088 246.324 460.159 246.531 460.252Z" fill="#263238"/>
<path d="M255.2 433.299L254.872 433.498L253.91 434.026C253.065 434.483 251.857 435.14 250.39 436.008C248.924 436.876 247.211 437.955 245.381 439.269C243.387 440.668 241.519 442.238 239.797 443.961C238.903 444.842 238.134 445.84 237.509 446.928C236.934 448.007 236.394 449.063 235.902 450.071C235.006 451.851 234.203 453.675 233.497 455.537C233.031 456.796 232.64 458.08 232.324 459.384C232.112 460.311 232.03 460.839 231.995 460.827C231.979 460.702 231.979 460.576 231.995 460.452C231.995 460.194 232.077 459.83 232.171 459.361C232.44 458.038 232.804 456.737 233.262 455.467C233.938 453.582 234.721 451.738 235.608 449.942C236.101 448.934 236.641 447.878 237.204 446.787C237.84 445.67 238.63 444.647 239.55 443.749C241.284 442.016 243.173 440.446 245.193 439.058C247.047 437.756 248.783 436.712 250.261 435.844C251.74 434.976 252.971 434.366 253.781 433.944L254.766 433.475C254.903 433.398 255.049 433.339 255.2 433.299Z" fill="#263238"/>
<path d="M230.951 459.478C230.867 459.239 230.811 458.991 230.787 458.739C230.681 458.211 230.552 457.566 230.4 456.745C229.983 454.553 229.438 452.388 228.769 450.259C228.069 448.139 227.243 446.063 226.293 444.043L225.46 442.189C225.339 441.971 225.244 441.739 225.179 441.497C225.331 441.698 225.461 441.914 225.566 442.143C225.789 442.565 226.117 443.175 226.493 443.949C227.506 445.952 228.365 448.031 229.062 450.165C229.742 452.306 230.263 454.493 230.622 456.71C230.751 457.555 230.845 458.247 230.904 458.728C230.946 458.975 230.962 459.227 230.951 459.478Z" fill="#263238"/>
<path d="M230.329 439.808C230.062 436.517 229.102 433.32 227.514 430.425C225.376 426.474 222.4 423.039 218.795 420.358C215.19 417.678 211.042 415.817 206.643 414.907L225.977 443.714L228.476 448.863C230.04 446.118 230.689 442.947 230.329 439.808Z" fill="#455A64"/>
<path d="M258.063 496.589H213.107V504.553H258.063V496.589Z" fill="#278EA5"/>
<path d="M216.462 502.982L220.287 527.695H250.144L254.708 502.982H216.462Z" fill="#278EA5"/>
<path d="M258.039 504.565C258.039 504.659 247.892 504.729 235.386 504.729C222.879 504.729 212.743 504.659 212.743 504.565C212.743 504.471 222.879 504.413 235.386 504.413C247.892 504.413 258.039 504.483 258.039 504.565Z" fill="#263238"/>
<path d="M424.349 219.511L422.002 213.846C423.457 209.267 423.457 204.35 422.002 199.771C420.646 195.473 418.075 191.658 414.599 188.787C411.123 185.917 406.891 184.113 402.413 183.592C397.935 183.072 393.401 183.858 389.36 185.855C385.318 187.853 381.941 190.976 379.635 194.849C377.329 198.722 376.192 203.18 376.363 207.684C376.533 212.188 378.003 216.547 380.595 220.234C383.187 223.922 386.791 226.782 390.972 228.468C395.153 230.155 399.732 230.596 404.158 229.739C409.644 228.687 414.568 225.693 418.025 221.306L424.349 219.511Z" fill="white"/>
<path d="M424.349 219.511L423.961 219.64L422.788 219.992L418.096 221.364C418.082 221.37 418.067 221.372 418.052 221.372C418.037 221.371 418.023 221.367 418.009 221.361C417.996 221.354 417.984 221.345 417.975 221.333C417.966 221.322 417.959 221.308 417.955 221.294C417.949 221.267 417.949 221.239 417.955 221.212L418.154 221.329C415.804 224.37 412.742 226.787 409.238 228.367C406.937 229.369 404.496 230.014 402 230.279C399.148 230.553 396.27 230.306 393.506 229.551C390.457 228.698 387.606 227.251 385.118 225.294C382.404 223.194 380.195 220.512 378.653 217.447C377.015 214.167 376.144 210.557 376.108 206.891C376.078 203.051 376.997 199.264 378.783 195.865C380.555 192.414 383.17 189.465 386.385 187.291C389.442 185.22 392.934 183.876 396.591 183.362C400.028 182.899 403.524 183.216 406.821 184.289C409.862 185.258 412.678 186.825 415.104 188.898C417.293 190.77 419.118 193.028 420.489 195.56L421.345 197.355C421.615 197.953 421.803 198.528 422.026 199.149C422.432 200.293 422.734 201.471 422.929 202.668C423.589 206.427 423.311 210.291 422.12 213.916V213.846C422.859 215.664 423.445 217.095 423.844 218.092C424.032 218.55 424.173 218.913 424.278 219.183C424.332 219.3 424.375 219.422 424.407 219.546C424.407 219.546 424.337 219.406 424.22 219.159L423.739 218.069C423.316 217.095 422.706 215.723 421.92 213.928C421.914 213.918 421.911 213.905 421.911 213.893C421.911 213.881 421.914 213.869 421.92 213.858C423.046 210.257 423.279 206.437 422.601 202.727C422.392 201.553 422.082 200.399 421.674 199.278C421.451 198.704 421.263 198.106 420.993 197.519C420.723 196.933 420.43 196.346 420.137 195.76C418.778 193.28 416.977 191.07 414.822 189.238C412.428 187.229 409.661 185.711 406.681 184.77C403.454 183.725 400.033 183.424 396.673 183.89C393.099 184.392 389.687 185.708 386.701 187.737C383.598 189.873 381.062 192.735 379.314 196.072C377.566 199.41 376.659 203.123 376.671 206.891C376.7 210.458 377.542 213.972 379.134 217.165C380.64 220.171 382.796 222.803 385.446 224.872C387.881 226.797 390.672 228.224 393.658 229.071C396.361 229.831 399.18 230.089 401.976 229.833C404.434 229.595 406.84 228.978 409.109 228.003C412.557 226.467 415.584 224.121 417.931 221.165C417.941 221.155 417.953 221.147 417.966 221.141C417.979 221.135 417.993 221.133 418.008 221.133C418.022 221.133 418.036 221.135 418.049 221.141C418.062 221.147 418.074 221.155 418.084 221.165C418.095 221.185 418.101 221.207 418.101 221.23C418.101 221.252 418.095 221.275 418.084 221.294L417.955 221.142L422.647 219.91L423.891 219.593C424.04 219.55 424.194 219.522 424.349 219.511Z" fill="#263238"/>
<path d="M391.711 209.917C393.123 209.917 394.268 208.772 394.268 207.36C394.268 205.948 393.123 204.803 391.711 204.803C390.298 204.803 389.153 205.948 389.153 207.36C389.153 208.772 390.298 209.917 391.711 209.917Z" fill="#263238"/>
<path d="M402.879 207.36C402.879 207.866 402.73 208.36 402.448 208.78C402.167 209.201 401.768 209.529 401.301 209.722C400.833 209.916 400.319 209.966 399.823 209.868C399.327 209.769 398.871 209.526 398.514 209.168C398.156 208.81 397.912 208.355 397.814 207.859C397.715 207.363 397.766 206.849 397.959 206.381C398.153 205.914 398.48 205.515 398.901 205.234C399.322 204.953 399.816 204.803 400.322 204.803C401 204.803 401.651 205.072 402.13 205.552C402.61 206.031 402.879 206.682 402.879 207.36Z" fill="#263238"/>
<path d="M408.71 209.917C410.123 209.917 411.268 208.772 411.268 207.36C411.268 205.948 410.123 204.803 408.71 204.803C407.298 204.803 406.153 205.948 406.153 207.36C406.153 208.772 407.298 209.917 408.71 209.917Z" fill="#263238"/>
<path d="M113.856 171.304L115.03 164.771C112.295 159.964 111.457 154.308 112.681 148.915C113.905 143.522 117.102 138.781 121.644 135.624C126.186 132.468 131.744 131.123 137.227 131.856C142.71 132.588 147.721 135.344 151.275 139.581C154.829 143.819 156.669 149.233 156.434 154.758C156.199 160.283 153.906 165.521 150.005 169.442C146.104 173.363 140.877 175.684 135.352 175.948C129.827 176.212 124.402 174.401 120.145 170.87L113.856 171.304Z" fill="white"/>
<path d="M113.856 171.304H114.244H115.417L120.109 171.046C120.133 171.041 120.154 171.028 120.169 171.008C120.184 170.989 120.192 170.965 120.192 170.941L120.051 171.07C123.744 174.187 128.362 176.001 133.19 176.231C133.789 176.231 134.364 176.231 135.009 176.231C135.321 176.248 135.635 176.248 135.947 176.231L136.898 176.125C140.003 175.772 142.999 174.77 145.691 173.184C148.384 171.599 150.713 169.465 152.527 166.921C154.341 164.377 155.6 161.48 156.222 158.418C156.844 155.356 156.816 152.198 156.138 149.148C155.749 147.384 155.154 145.671 154.366 144.046C153.539 142.399 152.515 140.859 151.316 139.46C150.136 137.994 148.78 136.678 147.28 135.542C145.824 134.509 144.248 133.654 142.587 132.997C139.38 131.697 135.912 131.171 132.463 131.46C126.753 131.927 121.439 134.567 117.619 138.836C113.799 143.105 111.763 148.677 111.932 154.403C112.042 158.063 113.062 161.639 114.901 164.806V164.748C114.56 166.871 114.302 168.501 114.115 169.639L113.927 170.882C113.916 171.019 113.916 171.156 113.927 171.293C113.927 171.293 113.927 171.14 114.021 170.847C114.115 170.554 114.15 170.132 114.255 169.592C114.455 168.478 114.748 166.859 115.135 164.783C115.141 164.76 115.141 164.736 115.135 164.713C113.313 161.487 112.332 157.855 112.284 154.151C112.235 150.448 113.12 146.791 114.857 143.519C116.594 140.247 119.127 137.465 122.222 135.429C125.317 133.394 128.876 132.17 132.569 131.871C135.951 131.594 139.351 132.117 142.494 133.396C145.804 134.698 148.736 136.806 151.023 139.53C152.195 140.899 153.199 142.403 154.014 144.011C154.789 145.602 155.372 147.279 155.75 149.007C156.499 152.345 156.459 155.81 155.633 159.13C154.539 163.436 152.165 167.31 148.825 170.242C145.484 173.173 141.334 175.024 136.921 175.55L135.983 175.656C135.678 175.656 135.372 175.656 135.067 175.656C134.446 175.656 133.894 175.656 133.261 175.656C132.125 175.612 130.995 175.475 129.882 175.245C126.34 174.526 123.027 172.956 120.227 170.671C120.219 170.661 120.209 170.653 120.198 170.648C120.187 170.643 120.175 170.64 120.162 170.64C120.15 170.64 120.138 170.643 120.126 170.648C120.115 170.653 120.105 170.661 120.098 170.671C120.086 170.688 120.08 170.709 120.08 170.73C120.08 170.751 120.086 170.771 120.098 170.788V170.648L115.499 171.011L114.326 171.117L113.856 171.304Z" fill="#263238"/>
<path d="M124.661 155.318L127.113 152.866L131.829 157.065L141.109 148.151L143.385 150.591L131.489 161.792L124.661 155.318Z" fill="#278EA5"/>
<path d="M518.026 411.084C518.026 410.802 518.026 410.532 518.085 410.251C518.331 404.985 516.185 399.918 514.12 395.003C508.582 381.96 503.233 368.12 504.734 354.045C506.799 335.431 520.49 320.03 525.371 302.038C525.655 301.011 526.267 300.105 527.115 299.46C527.962 298.814 528.998 298.463 530.063 298.46C530.832 298.455 531.59 298.631 532.278 298.974C532.965 299.317 533.562 299.818 534.019 300.435C534.476 301.052 534.782 301.769 534.91 302.526C535.038 303.284 534.985 304.061 534.756 304.794C529.312 321.625 516.888 336.392 514.941 354.056C513.381 368.131 518.742 381.972 524.268 395.015C526.333 399.882 528.479 404.949 528.245 410.263C528.01 415.576 524.608 421.089 519.387 421.992H441.665C441.02 421.995 440.381 421.871 439.785 421.626C439.189 421.382 438.647 421.022 438.19 420.568C437.733 420.113 437.371 419.573 437.124 418.978C436.876 418.383 436.749 417.745 436.749 417.101V416.045C436.751 415.401 436.879 414.764 437.127 414.17C437.375 413.576 437.737 413.036 438.194 412.582C438.65 412.128 439.192 411.768 439.787 411.523C440.383 411.278 441.021 411.153 441.665 411.154L518.026 411.084Z" fill="#455A64"/>
<path d="M533.665 527.695H420.759C419.967 527.687 419.19 527.49 418.49 527.12C417.79 526.751 417.188 526.22 416.735 525.572C416.177 524.792 415.812 523.891 415.669 522.944C415.527 521.996 415.61 521.027 415.913 520.118L448.058 421.652L449.724 422.203L417.591 520.728C417.375 521.373 417.315 522.059 417.415 522.732C417.514 523.405 417.772 524.044 418.166 524.599C418.458 525.019 418.845 525.364 419.295 525.607C419.746 525.849 420.247 525.982 420.759 525.994H533.665C534.167 525.99 534.66 525.866 535.105 525.634C535.549 525.401 535.932 525.067 536.222 524.657C536.615 524.125 536.879 523.509 536.995 522.859C537.111 522.208 537.075 521.539 536.891 520.904L509.322 422.168L511.023 421.687L538.651 520.364C538.907 521.263 538.953 522.209 538.784 523.129C538.615 524.049 538.236 524.917 537.677 525.666C537.216 526.297 536.612 526.809 535.915 527.162C535.217 527.515 534.446 527.697 533.665 527.695Z" fill="#E0E0E0"/>
<path d="M375.31 349.013C375.31 349.013 379.428 339.02 383.522 336.908C386.482 335.447 389.573 334.269 392.755 333.39H410.775L410.951 345.119C410.127 345.89 409.149 346.478 408.081 346.844C407.014 347.21 405.88 347.346 404.757 347.242C401.237 346.749 392.239 344.544 392.239 344.544L387.828 344.779L383.792 349.986C383.792 349.986 380.484 350.983 381.657 347.863L383.334 343.371C383.334 343.371 379.428 349.435 377.926 349.717C377.465 349.789 376.994 349.764 376.543 349.643C376.093 349.521 375.672 349.307 375.31 349.013Z" fill="#6F4439"/>
<path d="M450.053 311.304L435.658 331.994L410.775 333.401L410.435 344.755L429.205 348.45C433.999 349.393 438.951 349.158 443.634 347.767C448.317 346.376 452.593 343.869 456.095 340.462L458.875 315.432L450.053 311.304Z" fill="#AE7461"/>
<path d="M438.931 482.925L455.649 499.287C455.649 499.287 443.542 522.605 446.322 525.924L481.236 493.082L456.282 466.48L438.931 482.925Z" fill="#263238"/>
<path d="M465.058 487.699C465.467 487.475 465.945 487.413 466.397 487.526C466.849 487.639 467.242 487.919 467.498 488.308C467.707 488.731 467.749 489.216 467.616 489.668C467.484 490.12 467.186 490.505 466.782 490.748C466.349 490.987 465.841 491.052 465.362 490.93C464.883 490.808 464.468 490.508 464.201 490.091C464.032 489.624 464.044 489.111 464.235 488.653C464.427 488.195 464.783 487.825 465.234 487.616" fill="#E0E0E0"/>
<path d="M481.236 493.082L478.608 490.502L446.111 522.956C446.111 522.956 445.161 525.056 446.322 525.924L481.236 493.082Z" fill="#455A64"/>
<path d="M454.898 499.651C455.051 499.803 455.977 499.076 457.303 498.806C458.629 498.536 459.72 498.806 459.814 498.571C459.907 498.337 458.781 497.668 457.174 498.032C455.567 498.396 454.722 499.533 454.898 499.651Z" fill="white"/>
<path d="M452.587 504.518C452.692 504.718 453.69 504.295 454.933 504.424C456.177 504.553 457.01 505.128 457.174 504.952C457.338 504.776 456.587 503.779 455.062 503.638C453.537 503.498 452.446 504.366 452.587 504.518Z" fill="white"/>
<path d="M454.429 510.606C454.616 510.5 454.089 509.433 452.81 508.999C451.531 508.565 450.463 508.999 450.463 509.139C450.463 509.28 451.461 509.351 452.505 509.749C453.549 510.148 454.241 510.758 454.429 510.606Z" fill="white"/>
<path d="M451.519 495.475C451.73 495.557 452.305 494.595 453.326 493.751C454.347 492.906 455.367 492.484 455.332 492.261C455.297 492.038 454.018 492.156 452.833 493.164C451.648 494.173 451.32 495.428 451.519 495.475Z" fill="white"/>
<path d="M440.855 366.372C437.793 366.372 363.297 388.071 355.213 395.402C347.13 402.732 341.135 493.504 341.135 493.504L372.377 504.213C372.377 504.213 378.958 459.889 382.936 445.567C384.866 438.4 385.692 430.98 385.387 423.563L447.237 396.586L440.855 366.372Z" fill="#263238"/>
<path d="M442.732 371.169C441.348 371.779 387.218 394.886 382.126 410.368C377.985 422.989 382.795 434.096 388.59 442.776C395.125 452.57 443.072 496.319 443.072 496.319L470.138 476.966L423.739 429.064C423.739 429.064 448.082 414.051 448.915 414.051C449.748 414.051 475.053 412.374 483.078 411.471C490.574 410.614 494.669 399.882 494.669 399.882L501.344 369.093L451.144 357.505L442.732 371.169Z" fill="#263238"/>
<path d="M442.732 371.169L443.26 370.266L444.856 367.639L451.073 357.458H451.132L501.344 368.964H501.508V369.128C499.502 378.383 497.261 388.775 494.856 399.917C493.714 402.749 492.1 405.367 490.081 407.659C489.032 408.833 487.79 409.821 486.409 410.579C486.066 410.787 485.7 410.957 485.318 411.084C484.94 411.243 484.547 411.365 484.145 411.447C483.758 411.529 483.359 411.623 482.972 411.67L481.799 411.799C475.464 412.433 468.894 412.89 462.16 413.383L451.906 414.086L449.302 414.239H448.962C448.891 414.239 448.903 414.239 448.868 414.239L448.739 414.297L448.164 414.579L446.991 415.212C445.466 416.08 443.941 416.983 442.415 417.887C436.327 421.534 430.132 425.335 423.821 429.217V428.865C435.412 440.841 447.636 453.402 460.13 466.305L470.302 476.802L470.489 476.99L470.267 477.142C461.045 483.742 452.024 490.189 443.201 496.484L443.061 496.589L442.92 496.472C433.222 487.605 423.946 478.937 415.092 470.468C410.681 466.246 406.387 462.082 402.258 457.953C398.128 453.825 394.116 449.743 390.526 445.544C390.057 445.04 389.67 444.453 389.236 443.914C388.801 443.374 388.391 442.811 388.062 442.225C387.323 441.052 386.608 439.879 385.951 438.706C384.632 436.39 383.505 433.97 382.584 431.469C381.692 429.042 381.066 426.525 380.718 423.962C380.419 421.485 380.419 418.98 380.718 416.503C380.961 414.091 381.529 411.724 382.408 409.465C383.401 407.365 384.751 405.452 386.396 403.812C389.453 400.76 392.796 398.011 396.38 395.601C402.474 391.462 408.8 387.675 415.327 384.259C421.028 381.209 426.014 378.77 430.097 376.835C434.18 374.899 437.371 373.468 439.483 372.518L441.946 371.451L442.791 371.111C442.791 371.111 442.521 371.251 441.97 371.498L439.518 372.589C437.371 373.562 434.191 375.016 430.132 376.975C426.073 378.934 421.087 381.397 415.397 384.458C408.893 387.895 402.587 391.693 396.509 395.836C392.946 398.244 389.626 400.994 386.596 404.046C384.977 405.658 383.651 407.539 382.677 409.606C381.827 411.827 381.271 414.149 381.023 416.514C380.75 418.967 380.769 421.444 381.082 423.892C381.43 426.428 382.056 428.917 382.947 431.316C383.859 433.799 384.977 436.2 386.291 438.495C386.948 439.668 387.652 440.841 388.403 442.013C388.759 442.592 389.151 443.148 389.576 443.679C389.998 444.219 390.373 444.782 390.854 445.298C394.444 449.497 398.468 453.508 402.586 457.672C406.704 461.836 411.01 465.941 415.432 470.163C424.27 478.601 433.546 487.265 443.26 496.155H442.979L470.044 476.814V477.154L459.872 466.598L423.656 429.193L423.457 428.994L423.692 428.842C430.003 424.932 436.205 421.159 442.298 417.523C443.835 416.62 445.348 415.717 446.885 414.849L448.058 414.215C448.258 414.11 448.446 414.004 448.657 413.91L448.833 413.84H449.056H449.372L451.977 413.688L462.23 412.995C468.964 412.503 475.522 412.045 481.846 411.424C483.404 411.37 484.931 410.969 486.316 410.251C487.64 409.509 488.83 408.55 489.835 407.412C491.818 405.167 493.405 402.601 494.528 399.824L501.238 369.046L501.356 369.234L451.167 357.575H451.261L444.961 367.733L443.342 370.325C442.932 370.888 442.732 371.169 442.732 371.169Z" fill="#455A64"/>
<path d="M447.66 223.124C446.431 223.365 445.156 223.144 444.08 222.503C443.005 221.861 442.204 220.846 441.831 219.65C441.459 218.455 441.541 217.164 442.063 216.026C442.584 214.887 443.508 213.982 444.656 213.482C443.815 212.759 443.224 211.789 442.965 210.71C442.707 209.632 442.795 208.499 443.217 207.474C443.639 206.448 444.374 205.581 445.317 204.996C446.259 204.412 447.362 204.139 448.469 204.216C448.419 203.125 448.652 202.039 449.147 201.064C449.642 200.09 450.381 199.26 451.292 198.656C452.203 198.053 453.256 197.695 454.346 197.619C455.437 197.543 456.528 197.751 457.514 198.223C458.655 197.121 460.131 196.432 461.707 196.264C463.284 196.096 464.872 196.46 466.219 197.296C467.263 197.002 468.374 197.052 469.387 197.439C470.4 197.826 471.262 198.529 471.844 199.444C472.426 200.359 472.698 201.437 472.618 202.519C472.539 203.6 472.114 204.627 471.405 205.448" fill="#263238"/>
<path d="M467.744 202.187L466.63 202.281C461.238 202.758 456.225 205.247 452.585 209.253C448.946 213.258 446.949 218.487 446.991 223.898C447.073 234.337 447.296 245.867 447.847 251.426C449.02 262.921 460.682 263.695 460.682 263.695L460.94 277.606L488.803 274.275L486.844 223.898C486.82 211.852 479.781 201.824 467.744 202.187Z" fill="#AE7461"/>
<path d="M460.67 263.695C465.996 263.21 471.072 261.212 475.299 257.936C475.299 257.936 472.331 266.745 460.752 266.721L460.67 263.695Z" fill="#6F4439"/>
<path d="M451.144 234.571C451.177 235.002 451.377 235.402 451.702 235.687C452.026 235.972 452.449 236.119 452.88 236.096C453.09 236.093 453.297 236.049 453.49 235.965C453.683 235.881 453.857 235.759 454.002 235.608C454.147 235.456 454.26 235.277 454.336 235.081C454.411 234.885 454.447 234.676 454.44 234.466C454.407 234.035 454.207 233.635 453.883 233.35C453.558 233.065 453.135 232.918 452.704 232.941C452.494 232.944 452.287 232.989 452.094 233.073C451.902 233.157 451.728 233.278 451.583 233.43C451.437 233.581 451.324 233.761 451.249 233.957C451.173 234.153 451.138 234.362 451.144 234.571Z" fill="#263238"/>
<path d="M449.959 229.375C450.182 229.563 451.343 228.531 453.115 228.39C454.886 228.249 456.259 229 456.435 228.766C456.611 228.531 456.282 228.296 455.684 227.933C454.868 227.472 453.931 227.271 452.997 227.358C452.078 227.439 451.207 227.808 450.51 228.414C450.006 228.824 449.853 229.223 449.959 229.375Z" fill="#263238"/>
<path d="M467.087 233.657C467.123 234.086 467.324 234.485 467.648 234.769C467.972 235.053 468.393 235.201 468.824 235.181C469.034 235.178 469.241 235.134 469.433 235.05C469.626 234.966 469.8 234.845 469.945 234.693C470.09 234.541 470.204 234.362 470.279 234.166C470.355 233.97 470.39 233.761 470.384 233.551C470.354 233.122 470.156 232.721 469.834 232.436C469.511 232.151 469.089 232.004 468.659 232.026C468.448 232.028 468.24 232.071 468.046 232.155C467.852 232.238 467.677 232.359 467.53 232.511C467.384 232.663 467.269 232.842 467.193 233.039C467.117 233.236 467.081 233.446 467.087 233.657Z" fill="#263238"/>
<path d="M467.381 228.109C467.603 228.308 468.777 227.276 470.536 227.123C472.296 226.971 473.681 227.733 473.856 227.499C474.032 227.264 473.704 227.03 473.106 226.666C472.288 226.211 471.352 226.011 470.419 226.091C469.499 226.172 468.629 226.542 467.932 227.147C467.428 227.616 467.275 228.015 467.381 228.109Z" fill="#263238"/>
<path d="M462.125 241.797C461.167 241.58 460.185 241.49 459.204 241.527C458.746 241.527 458.312 241.468 458.206 241.163C458.132 240.701 458.197 240.227 458.394 239.803L459.426 236.284C460.846 231.217 461.773 227.077 461.632 227.018C461.491 226.959 460.107 231.018 458.687 236.085C458.347 237.328 458.019 238.512 457.714 239.603C457.473 240.173 457.444 240.809 457.632 241.398C457.712 241.55 457.826 241.683 457.964 241.786C458.102 241.889 458.261 241.961 458.429 241.996C458.686 242.029 458.947 242.029 459.204 241.996C460.182 242.048 461.163 241.981 462.125 241.797Z" fill="#263238"/>
<path d="M465.245 221.435C465.515 221.869 466.993 221.247 468.859 221.013C470.724 220.778 472.32 221.013 472.449 220.485C472.449 220.25 472.132 219.875 471.428 219.582C470.524 219.218 469.541 219.101 468.577 219.241C467.621 219.353 466.713 219.722 465.949 220.309C465.363 220.778 465.128 221.235 465.245 221.435Z" fill="#263238"/>
<path d="M449.232 222.021C449.642 222.397 451.062 221.845 452.821 221.669C454.581 221.493 456.083 221.669 456.341 221.212C456.47 220.989 456.2 220.602 455.52 220.285C454.581 219.885 453.551 219.748 452.54 219.887C451.533 219.988 450.57 220.352 449.748 220.942C449.22 221.411 449.044 221.845 449.232 222.021Z" fill="#263238"/>
<path d="M447.624 218.526C447.624 218.526 449.971 211.043 453.361 209.061C457.385 206.644 459.602 211.101 463.521 209.635C467.439 208.169 471.275 205.847 475.651 208.58C480.438 211.582 478.549 214.151 479.277 219.23C482.233 239.838 486.527 245.362 486.75 235.51C486.75 234.431 489.659 233.316 489.694 228.766C489.753 222.901 489.342 215.734 487.676 211.688C486.257 208.286 484.051 206.046 480.239 203.689C474.208 199.982 466.43 200.58 461.21 201.577C455.989 202.574 446.346 209.541 447.624 218.526Z" fill="#263238"/>
<path d="M485.987 235.24C485.962 234.816 486.023 234.391 486.168 233.991C486.312 233.591 486.537 233.226 486.828 232.916C487.119 232.606 487.47 232.359 487.86 232.19C488.25 232.021 488.671 231.933 489.096 231.932C491.255 231.932 493.789 232.953 494 237.398C494.446 245.292 486.433 244.107 486.409 243.884C486.386 243.662 486.14 238.571 485.987 235.24Z" fill="#AE7461"/>
<path d="M487.958 240.847C487.958 240.847 488.099 240.929 488.333 241.022C488.664 241.157 489.035 241.157 489.366 241.022C489.858 240.67 490.248 240.194 490.495 239.641C490.743 239.089 490.839 238.481 490.774 237.879C490.754 237.2 490.582 236.535 490.269 235.932C490.18 235.691 490.035 235.474 489.845 235.301C489.655 235.127 489.426 235.002 489.178 234.935C489.018 234.904 488.853 234.929 488.71 235.006C488.566 235.083 488.454 235.207 488.392 235.357C488.298 235.592 488.392 235.744 488.31 235.756C488.228 235.768 488.134 235.639 488.181 235.31C488.213 235.111 488.312 234.929 488.462 234.794C488.673 234.62 488.941 234.532 489.213 234.548C489.543 234.599 489.855 234.733 490.117 234.938C490.38 235.144 490.586 235.413 490.715 235.721C491.095 236.382 491.305 237.128 491.325 237.891C491.41 238.592 491.282 239.303 490.958 239.93C490.634 240.558 490.128 241.073 489.507 241.41C489.299 241.484 489.076 241.51 488.857 241.485C488.637 241.461 488.426 241.387 488.24 241.269C487.981 241.034 487.935 240.858 487.958 240.847Z" fill="#6F4439"/>
<path d="M484.485 219.992C483.588 220.86 482.487 221.49 481.283 221.822C480.679 221.97 480.043 221.895 479.491 221.611C478.938 221.326 478.508 220.851 478.279 220.274C478.127 219.734 478.209 219.101 477.81 218.69C477.411 218.28 476.555 218.456 475.91 218.585C473.634 219.03 470.736 216.743 469.962 214.562C469.698 215.013 469.273 215.348 468.772 215.498C468.271 215.648 467.732 215.603 467.263 215.371C466.502 214.985 465.812 214.474 465.222 213.858C464.881 213.447 464.446 213.126 463.953 212.922C463.461 212.718 462.926 212.636 462.395 212.685C461.856 212.92 461.293 213.097 460.717 213.213C459.673 213.213 459.063 212.04 458.816 211.031C458.57 210.022 458.347 208.838 457.42 208.357C456.486 208.083 455.486 208.146 454.593 208.533C453.654 208.756 452.411 208.638 452.082 207.723C451.962 207.228 452.042 206.706 452.305 206.269C452.863 205.258 453.745 204.465 454.81 204.018C455.874 203.571 457.059 203.496 458.171 203.806C458.442 202.461 459.105 201.226 460.078 200.259C461.051 199.291 462.289 198.634 463.636 198.37C464.982 198.106 466.377 198.248 467.643 198.777C468.909 199.306 469.989 200.199 470.748 201.343C471.517 200.51 472.476 199.876 473.543 199.493C474.61 199.111 475.754 198.991 476.877 199.146C478 199.3 479.069 199.723 479.993 200.379C480.918 201.036 481.67 201.905 482.186 202.914C483.128 202.577 484.148 202.523 485.12 202.76C486.092 202.998 486.972 203.515 487.652 204.249C488.332 204.982 488.782 205.9 488.944 206.887C489.107 207.873 488.976 208.886 488.568 209.799C489.334 210.096 490.011 210.584 490.534 211.216C491.058 211.849 491.411 212.605 491.56 213.412C491.736 215.031 490.293 216.802 488.685 216.509C489.06 217.122 489.187 217.856 489.04 218.559C488.893 219.263 488.484 219.885 487.895 220.297C487.306 220.71 486.582 220.882 485.87 220.78C485.158 220.678 484.512 220.308 484.063 219.746" fill="#263238"/>
<path d="M457.772 206.269C457.767 206.316 457.767 206.363 457.772 206.41C457.79 206.552 457.818 206.693 457.854 206.832C458.012 207.354 458.25 207.848 458.558 208.298C459.057 209.004 459.711 209.586 460.471 209.999C461.473 210.571 462.636 210.793 463.779 210.632L463.626 210.48C463.539 210.845 463.526 211.224 463.586 211.594C463.647 211.965 463.78 212.319 463.978 212.638C464.393 213.31 464.903 213.918 465.492 214.444C465.783 214.754 466.105 215.033 466.454 215.277C466.851 215.493 467.293 215.613 467.744 215.629C468.218 215.652 468.69 215.557 469.118 215.352C469.546 215.147 469.917 214.839 470.196 214.456L469.903 214.397C470.079 215.208 470.425 215.973 470.919 216.64C471.412 217.307 472.042 217.862 472.765 218.268C473.566 218.75 474.498 218.967 475.429 218.89C476.295 218.767 477.136 218.502 477.916 218.104L477.704 218.022C478.19 218.942 478.906 219.722 479.781 220.285C480.18 220.575 480.64 220.771 481.125 220.859C481.611 220.946 482.11 220.922 482.585 220.79C483.397 220.541 484.118 220.06 484.658 219.405C485.198 218.75 485.534 217.951 485.623 217.107L485.459 217.201C486.324 217.57 487.29 217.628 488.193 217.365C488.87 217.177 489.493 216.831 490.011 216.356C490.337 216.058 490.607 215.705 490.809 215.312C490.871 215.174 490.925 215.033 490.973 214.89C490.706 215.407 490.348 215.872 489.917 216.262C489.404 216.698 488.798 217.011 488.146 217.177C487.285 217.41 486.371 217.343 485.553 216.989L485.4 216.919V217.083C485.303 217.872 484.978 218.616 484.466 219.224C483.953 219.832 483.276 220.278 482.514 220.508C482.08 220.623 481.626 220.639 481.185 220.553C480.744 220.468 480.329 220.284 479.969 220.016C479.146 219.476 478.472 218.738 478.01 217.869L477.939 217.728L477.787 217.799C477.05 218.175 476.258 218.428 475.44 218.549C474.577 218.623 473.714 218.418 472.977 217.963C472.297 217.578 471.706 217.056 471.239 216.43C470.773 215.804 470.441 215.088 470.267 214.327L470.184 213.963L469.973 214.268C469.721 214.599 469.391 214.863 469.012 215.037C468.634 215.211 468.219 215.289 467.803 215.265C467.392 215.268 466.987 215.163 466.63 214.96C466.296 214.743 465.993 214.482 465.726 214.186C465.145 213.686 464.643 213.101 464.236 212.45C464.055 212.164 463.931 211.845 463.873 211.511C463.814 211.177 463.822 210.834 463.896 210.503V210.316H463.697C462.613 210.474 461.507 210.28 460.541 209.764C459.797 209.369 459.149 208.817 458.64 208.146C458.249 207.573 457.955 206.938 457.772 206.269Z" fill="#455A64"/>
<path d="M462.277 247.462C462.277 247.157 464.26 247.391 465.867 245.878C467.474 244.365 467.51 242.231 467.779 242.254C468.049 242.278 468.108 242.758 468.026 243.65C467.906 244.811 467.378 245.891 466.536 246.699C465.724 247.457 464.654 247.876 463.544 247.872C462.711 247.872 462.242 247.591 462.277 247.462Z" fill="#263238"/>
<path d="M348.245 481.822L344.608 507.075C344.608 507.075 316.299 511.45 315.15 516.036L366.558 525.631L373.926 486.549L348.245 481.822Z" fill="#263238"/>
<path d="M360.88 507.931C361.34 508.149 361.702 508.531 361.895 509.002C362.089 509.472 362.099 509.999 361.924 510.477C361.683 510.93 361.281 511.278 360.797 511.452C360.314 511.625 359.783 511.612 359.308 511.415C358.82 511.184 358.437 510.779 358.235 510.279C358.033 509.779 358.027 509.222 358.217 508.717C358.521 508.268 358.981 507.949 359.509 507.821C360.036 507.693 360.591 507.766 361.068 508.025" fill="#E0E0E0"/>
<path d="M366.558 525.631L367.133 521.666L317.637 513.948C317.637 513.948 315.173 514.465 315.15 516.036L366.558 525.631Z" fill="#455A64"/>
<path d="M343.81 506.676C343.81 506.911 344.983 507.251 346.157 508.248C347.33 509.245 347.729 510.359 347.975 510.312C348.221 510.265 348.104 508.823 346.802 507.638C345.5 506.454 343.798 506.442 343.81 506.676Z" fill="white"/>
<path d="M338.038 507.779C337.933 507.99 338.953 508.6 339.622 509.773C340.291 510.946 340.338 512.037 340.596 512.119C340.854 512.201 341.253 510.852 340.385 509.409C339.516 507.967 338.038 507.556 338.038 507.779Z" fill="white"/>
<path d="M333.862 513.315C334.073 513.409 334.648 512.283 334.237 510.864C333.827 509.444 332.747 508.705 332.606 508.881C332.466 509.057 333.064 509.89 333.381 511.063C333.697 512.236 333.615 513.221 333.862 513.315Z" fill="white"/>
<path d="M345.312 501.023C345.382 501.257 346.591 501.14 347.998 501.504C349.406 501.867 350.427 502.489 350.591 502.301C350.755 502.114 349.852 501.128 348.245 500.683C346.638 500.237 345.23 500.812 345.312 501.023Z" fill="white"/>
<path d="M459.673 279.4L460.729 274.627L488.803 260.681L491.255 264.563C491.255 264.563 501.755 273.113 505.779 280.526C509.803 287.939 505.039 348.696 504.359 357.563C503.01 375.427 496.334 398.815 496.334 398.815C496.334 398.815 487.325 392.54 460.823 381.667C434.321 370.794 432.901 365.856 432.901 365.856L448.516 346.057L459.673 279.4Z" fill="#278EA5"/>
<path d="M460.048 281.078C459.896 281.957 447.143 312.418 447.143 312.418C447.143 312.418 453.737 316.101 454.663 316.277C455.59 316.453 460.048 281.078 460.048 281.078Z" fill="#278EA5"/>
<path d="M458.875 286.074C459.004 286.074 457.878 293.827 456.364 303.363C454.851 312.899 453.525 320.593 453.396 320.581C453.267 320.57 454.394 312.817 455.907 303.281C457.42 293.745 458.699 286.051 458.875 286.074Z" fill="#263238"/>
<path d="M369.714 347.019C369.714 347.019 377.281 335.865 381.786 333.906C385.065 332.579 388.463 331.565 391.934 330.88L410.951 333.425L410.611 344.779C409.671 345.544 408.58 346.1 407.409 346.412C406.238 346.723 405.014 346.782 403.818 346.585C400.029 345.787 390.632 342.761 390.632 342.761L385.88 342.691L381.188 347.969C381.188 347.969 377.586 348.79 379.064 345.541C380.542 342.292 381.199 340.849 381.199 340.849C381.199 340.849 376.507 347.054 374.935 347.242C373.191 347.306 371.445 347.231 369.714 347.019Z" fill="#AE7461"/>
<path d="M469.129 302.331L455.942 332.967L410.81 333.401L410.47 344.755C410.47 344.755 453.995 360.097 465.609 357.118C477.224 354.139 496.417 313.169 496.417 313.169L469.129 302.331Z" fill="#AE7461"/>
<path d="M479.804 276.492C478.631 277.606 474.49 282.356 470.138 292.807C465.785 303.257 459.673 315.397 459.673 315.397L490.797 327.795C490.797 327.795 497.836 311.48 501.18 304.219C503.69 298.695 505.438 287.798 503.162 282.555C500.886 277.313 490.633 266.662 479.804 276.492Z" fill="#278EA5"/>
<path d="M479.804 276.492C479.893 276.396 479.987 276.306 480.086 276.222C480.285 276.046 480.567 275.776 480.966 275.459C482.128 274.523 483.42 273.76 484.802 273.196C487.021 272.311 489.458 272.131 491.783 272.68C494.838 273.481 497.604 275.132 499.76 277.442C501.044 278.744 502.138 280.221 503.01 281.828C503.85 283.635 504.31 285.595 504.359 287.587C504.508 291.947 503.962 296.302 502.74 300.489C502.045 302.739 501.187 304.934 500.171 307.058C499.232 309.224 498.247 311.48 497.214 313.825C495.212 318.384 493.143 323.076 491.008 327.9L490.914 328.1L490.703 328.018L490.257 327.842L459.602 315.585L459.391 315.503L459.485 315.303C462.395 309.439 464.976 304.055 467.169 299.187C469.363 294.32 471.076 289.957 472.906 286.532C474.266 283.849 475.851 281.286 477.646 278.873C478.125 278.239 478.638 277.633 479.183 277.054C479.376 276.856 479.58 276.668 479.793 276.492L479.652 276.644L479.241 277.101C478.878 277.5 478.373 278.122 477.751 278.955C475.978 281.386 474.409 283.959 473.059 286.649C471.264 290.062 469.621 294.449 467.416 299.328C465.21 304.208 462.723 309.65 459.79 315.491L459.685 315.198L490.351 327.396L490.809 327.584L490.516 327.701C492.639 322.869 494.727 318.142 496.733 313.626C497.742 311.335 498.732 309.099 499.701 306.917C500.714 304.812 501.573 302.636 502.271 300.407C503.486 296.266 504.04 291.96 503.913 287.646C503.877 285.704 503.438 283.791 502.623 282.028C501.773 280.445 500.707 278.988 499.455 277.7C497.349 275.432 494.644 273.806 491.654 273.008C489.374 272.457 486.982 272.608 484.79 273.442C483.42 273.99 482.13 274.719 480.954 275.612C480.544 275.917 480.25 276.175 480.051 276.339L479.804 276.492Z" fill="#263238"/>
<path d="M389.658 336.615C387.999 336.725 386.371 337.122 384.848 337.788C383.391 338.602 382.091 339.671 381.012 340.943C381.166 340.455 381.431 340.01 381.786 339.641C382.574 338.702 383.543 337.932 384.637 337.378C385.732 336.822 386.93 336.498 388.156 336.428C388.664 336.38 389.177 336.445 389.658 336.615Z" fill="#6F4439"/>
<path d="M462.946 316.699C462.926 316.809 462.891 316.916 462.84 317.016L462.5 317.907C462.16 318.728 461.691 319.854 461.116 321.262C459.884 324.171 458.171 328.299 456.13 333.05V333.167H455.989L442.286 333.319L420.055 333.472H413.321H411.491C411.28 333.5 411.067 333.5 410.857 333.472H411.491H413.321L420.055 333.331L442.275 333.05L455.989 332.932L455.801 333.061L460.94 321.332L462.418 318.036C462.594 317.684 462.723 317.391 462.829 317.157C462.934 316.922 462.934 316.687 462.946 316.699Z" fill="#6F4439"/>
<path d="M63.5625 357.505H54.8693V527.472H63.5625V357.505Z" fill="#455A64"/>
<path d="M420.207 358.701H411.514V527.496H420.207V358.701Z" fill="#455A64"/>
<path d="M428.807 355.828H33.1656V366.079H428.807V355.828Z" fill="#455A64"/>
<path d="M424.994 366.091C424.994 366.22 378.829 366.314 321.884 366.314C264.938 366.314 218.773 366.22 218.773 366.091C218.773 365.962 264.926 365.856 321.884 365.856C378.841 365.856 424.994 365.962 424.994 366.091Z" fill="#263238"/>
<path d="M311.114 295.833C311.368 295.781 311.63 295.78 311.884 295.831C312.138 295.883 312.379 295.985 312.593 296.131C312.806 296.278 312.988 296.467 313.127 296.685C313.266 296.904 313.36 297.149 313.402 297.405L324.113 354.127H376.166C376.54 354.127 376.898 354.275 377.162 354.539C377.426 354.803 377.574 355.161 377.574 355.534C377.574 355.908 377.426 356.266 377.162 356.53C376.898 356.794 376.54 356.942 376.166 356.942H320.91V356.719H320.652L309.589 298.073C309.541 297.826 309.543 297.572 309.594 297.325C309.645 297.079 309.744 296.844 309.886 296.636C310.027 296.428 310.209 296.25 310.42 296.112C310.63 295.974 310.866 295.879 311.114 295.833Z" fill="#263238"/>
<path d="M50.1884 163.481C52.4825 159.923 55.547 156.926 59.1554 154.711C62.7638 152.496 66.8239 151.12 71.0357 150.685C75.9747 150.157 78.0747 151.001 81.7702 151.646C85.3981 152.2 88.7181 154.005 91.1556 156.748C94.1545 160.003 96.2849 163.96 97.3499 168.255C98.1841 172.382 98.3229 176.62 97.7605 180.793C96.8181 186.168 94.9989 191.35 92.3757 196.135L84.9143 197.707C78.6143 198.493 72.2323 199.267 65.9558 198.375C59.6793 197.484 53.3911 194.704 49.6135 189.602C44.3694 182.541 45.2376 170.73 50.1884 163.481Z" fill="#263238"/>
<path d="M60.3598 162.519L75.0714 155.106L79.0953 155.212C88.0584 154.438 95.1209 163.774 95.8248 171.023C96.6108 179.081 97.2561 188.945 96.5052 195.009C94.9918 207.184 84.8791 209.084 84.8791 209.084C84.8791 209.084 86.5685 223.276 86.9791 227.276L62.5653 219.816L56.6995 166.953C56.6451 165.89 56.9907 164.846 57.6682 164.025C58.3456 163.205 59.3059 162.667 60.3598 162.519Z" fill="#FFBF9D"/>
<path d="M78.3211 193.789C78.3562 193.166 78.6193 192.577 79.0602 192.135C79.4614 191.725 79.9866 191.457 80.5548 191.375C81.123 191.292 81.7026 191.399 82.2043 191.678C82.7272 192.015 83.1514 192.484 83.4337 193.039C83.7161 193.593 83.8464 194.212 83.8115 194.833C83.5804 195.222 83.2697 195.558 82.8997 195.819C82.5297 196.08 82.1088 196.259 81.6646 196.346H81.2423C80.5313 196.406 79.8238 196.196 79.2596 195.76C78.9649 195.523 78.7274 195.223 78.5649 194.882C78.4024 194.541 78.319 194.167 78.3211 193.789Z" fill="#FF9A6C"/>
<path d="M93.4902 181.884C93.5095 182.289 93.3692 182.685 93.0994 182.988C92.8296 183.291 92.4518 183.476 92.0472 183.503C91.8495 183.525 91.6493 183.508 91.4584 183.452C91.2675 183.396 91.0897 183.303 90.9355 183.177C90.7813 183.051 90.6539 182.896 90.5607 182.72C90.4675 182.545 90.4105 182.352 90.393 182.154C90.3796 181.75 90.522 181.357 90.7906 181.056C91.0593 180.755 91.4336 180.568 91.836 180.535C92.0337 180.513 92.2339 180.53 92.4248 180.586C92.6157 180.641 92.7936 180.735 92.9477 180.861C93.1019 180.986 93.2293 181.142 93.3225 181.318C93.4157 181.493 93.4727 181.686 93.4902 181.884Z" fill="#263238"/>
<path d="M93.455 175.281C93.2673 175.48 92.0589 174.659 90.393 174.718C88.7271 174.776 87.5187 175.656 87.331 175.457C87.1433 175.257 87.4249 174.999 87.9411 174.589C88.6513 174.069 89.5016 173.774 90.3813 173.744C91.2523 173.715 92.1103 173.961 92.8332 174.448C93.3611 174.823 93.5488 175.187 93.455 175.281Z" fill="#263238"/>
<path d="M83.9288 189.273C84.8011 188.971 85.7074 188.778 86.6271 188.699C87.0495 188.699 87.4483 188.535 87.5187 188.241C87.534 187.8 87.4199 187.364 87.1902 186.986C86.7444 185.962 86.2869 184.895 85.8176 183.784C83.9054 179.21 82.4975 175.445 82.6852 175.374C82.873 175.304 84.5741 178.893 86.4863 183.514L87.8003 186.74C88.0876 187.245 88.1873 187.835 88.0819 188.406C88.0258 188.558 87.9352 188.696 87.8172 188.808C87.6992 188.92 87.5569 189.003 87.4014 189.051C87.165 189.123 86.9208 189.166 86.674 189.18C85.767 189.33 84.8441 189.362 83.9288 189.273Z" fill="#263238"/>
<path d="M84.8908 209.049C79.1723 209.345 73.4844 208.042 68.4664 205.284C68.4664 205.284 73.0652 213.494 85.1607 211.981L84.8908 209.049Z" fill="#FF9A6C"/>
<path d="M93.4667 170.155C93.1969 170.577 91.9064 170.343 90.4165 170.519C88.9265 170.694 87.6947 171.128 87.3545 170.777C87.202 170.601 87.3545 170.202 87.8589 169.768C88.5358 169.238 89.3498 168.913 90.2053 168.83C91.0718 168.722 91.9506 168.877 92.7276 169.275C93.3494 169.557 93.584 169.956 93.4667 170.155Z" fill="#263238"/>
<path d="M76.3267 183.139C76.3538 183.543 76.5366 183.92 76.8364 184.191C77.1362 184.462 77.5297 184.607 77.9339 184.594C78.1325 184.595 78.3295 184.557 78.5132 184.481C78.6968 184.406 78.8635 184.294 79.0034 184.153C79.1434 184.012 79.2537 183.845 79.3279 183.66C79.4021 183.476 79.4387 183.279 79.4356 183.08C79.4113 182.676 79.2294 182.297 78.9289 182.025C78.6284 181.753 78.2333 181.61 77.8283 181.626C77.6297 181.624 77.4327 181.663 77.2491 181.738C77.0654 181.814 76.8987 181.925 76.7588 182.066C76.6189 182.207 76.5086 182.375 76.4343 182.559C76.3601 182.743 76.3235 182.941 76.3267 183.139Z" fill="#263238"/>
<path d="M70.8831 176.594C71.0826 176.782 72.1971 175.832 73.863 175.715C75.5289 175.597 76.8194 176.348 76.9836 176.125C77.1479 175.902 76.8429 175.679 76.2797 175.328C75.5237 174.878 74.6456 174.677 73.7691 174.753C72.9046 174.806 72.081 175.14 71.4228 175.703C70.9301 176.172 70.7775 176.594 70.8831 176.594Z" fill="#263238"/>
<path d="M73.077 170.73C73.4289 171.093 74.6959 170.624 76.2445 170.53C77.7931 170.436 79.1188 170.624 79.4004 170.214C79.5294 170.014 79.2948 169.639 78.7082 169.31C77.8967 168.921 76.9962 168.756 76.0993 168.83C75.2024 168.904 74.3414 169.216 73.6049 169.733C73.0887 170.167 72.901 170.565 73.077 170.73Z" fill="#263238"/>
<path d="M60.5709 187.021C60.5709 186.118 59.3978 184.031 58.5296 183.913C56.1833 183.632 51.8543 183.913 52.0185 190.012C52.2531 198.223 60.5005 196.334 60.5123 196.1C60.524 195.865 60.6882 190.141 60.5709 187.021Z" fill="#FFBF9D"/>
<path d="M58.1425 193.144C58.1425 193.144 58.0017 193.25 57.767 193.367C57.4201 193.503 57.0346 193.503 56.6877 193.367C56.146 193.041 55.7 192.577 55.3951 192.023C55.0902 191.469 54.9372 190.844 54.9514 190.212C54.9094 189.503 55.0256 188.794 55.2917 188.136C55.3569 187.868 55.4876 187.621 55.6718 187.416C55.8561 187.212 56.0882 187.056 56.3475 186.963C56.512 186.915 56.6878 186.926 56.8456 186.992C57.0035 187.058 57.1341 187.176 57.2157 187.326C57.333 187.561 57.2743 187.725 57.3212 187.737C57.3682 187.749 57.4972 187.596 57.4268 187.256C57.3718 187.055 57.2522 186.878 57.0866 186.752C56.9714 186.667 56.8402 186.607 56.7011 186.575C56.562 186.543 56.4177 186.539 56.2771 186.564C55.9404 186.638 55.6285 186.798 55.3716 187.029C55.1147 187.259 54.9215 187.551 54.8107 187.878C54.4782 188.613 54.3292 189.418 54.3766 190.224C54.3545 190.961 54.551 191.688 54.9414 192.315C55.3317 192.941 55.8985 193.437 56.5704 193.742C56.7945 193.804 57.0297 193.813 57.2577 193.768C57.4858 193.723 57.7002 193.626 57.8844 193.484C58.1307 193.343 58.1777 193.156 58.1425 193.144Z" fill="#FF9A6C"/>
<path d="M58.2011 183.972L60.4771 185.978C73.6284 177.298 86.9791 153.758 83.5534 154.719C79.3095 153.55 74.8398 153.465 70.5546 154.473C63.9497 156.209 51.5375 160.701 52.4408 168.548C53.3442 176.395 58.2011 183.972 58.2011 183.972Z" fill="#263238"/>
<path d="M54.3297 150.943C57.5324 152.819 60.3832 158.273 59.0223 161.745C59.3155 163.562 59.1426 165.424 58.5197 167.156C57.8968 168.888 56.8444 170.433 55.461 171.647C54.0776 172.862 52.4086 173.705 50.6102 174.098C48.8119 174.492 46.9431 174.422 45.1789 173.897C42.7359 173.148 40.65 171.534 39.313 169.357C37.8423 166.691 37.384 163.584 38.0225 160.607C38.3298 158.775 39.0009 157.022 39.9962 155.453C40.9916 153.884 42.291 152.53 43.818 151.47C45.3598 150.443 47.1507 149.852 49.0011 149.759C50.8515 149.666 52.6927 150.075 54.3297 150.943Z" fill="#263238"/>
<path d="M53.6023 183.995C54.1294 183.833 54.6369 183.612 55.1157 183.338C56.066 182.881 57.462 182.166 59.0575 181.239C63.3568 178.823 67.3373 175.88 70.9066 172.477C74.4865 169.059 77.3952 165.001 79.4825 160.514C80.1007 159.152 80.6107 157.744 81.0076 156.303C81.1848 155.783 81.299 155.243 81.3478 154.696C81.2305 154.696 80.7143 156.948 79.0836 160.326C76.909 164.701 73.996 168.669 70.4725 172.055C66.9218 175.407 63.0154 178.36 58.8229 180.864C57.2157 181.837 55.9017 182.6 54.9866 183.127C54.4988 183.372 54.0353 183.663 53.6023 183.995Z" fill="#455A64"/>
<path d="M46.399 177.767C46.5163 177.767 46.5633 176.231 47.0208 173.803C48.2396 167.448 51.395 161.626 56.0542 157.136C57.8257 155.423 59.0927 154.543 59.0341 154.45C58.6937 154.584 58.3739 154.766 58.0838 154.989C57.26 155.539 56.476 156.147 55.7375 156.807C53.2928 158.997 51.2449 161.592 49.6839 164.478C48.1151 167.358 47.0629 170.49 46.575 173.732C46.4208 174.706 46.3384 175.69 46.3286 176.676C46.297 177.041 46.3207 177.409 46.399 177.767Z" fill="#455A64"/>
<path d="M55.1743 196.956C55.1743 197.568 55.356 198.167 55.6963 198.676C56.0366 199.186 56.5203 199.582 57.0863 199.817C57.6522 200.051 58.275 200.113 58.8757 199.993C59.4765 199.874 60.0284 199.579 60.4615 199.146C60.8947 198.713 61.1897 198.161 61.3092 197.56C61.4287 196.959 61.3674 196.337 61.1329 195.771C60.8985 195.205 60.5015 194.722 59.9922 194.381C59.4829 194.041 58.8841 193.86 58.2715 193.86C57.4501 193.86 56.6623 194.186 56.0815 194.767C55.5006 195.347 55.1743 196.135 55.1743 196.956Z" fill="#263238"/>
<path d="M84.316 195.091C84.316 194.798 82.345 195.091 80.6909 193.731C79.0367 192.37 78.8724 190.212 78.6026 190.212C78.3328 190.212 78.3093 190.74 78.4384 191.608C78.6198 192.743 79.1975 193.778 80.0691 194.528C80.9056 195.243 81.9853 195.608 83.0841 195.549C83.9054 195.525 84.3512 195.22 84.316 195.091Z" fill="#263238"/>
<path d="M40.2281 300.29C40.2281 300.29 30.9952 332.838 36.474 350.514C39.7706 361.071 85.9232 419.517 88.0936 422.062C89.6422 423.81 68.3608 478.984 64.4659 490.478L88.9383 502.337C88.9383 502.337 119.558 437.24 121.435 425.827C123.782 411.177 89.3958 348.509 90.6511 347.664L103.04 321.86L92.8449 295.223C92.8449 295.223 49.5314 295.692 40.6974 296.396L40.2281 300.29Z" fill="#263238"/>
<path d="M93.76 319.479C93.76 319.479 153.451 340.662 160.185 344.239C167.517 348.145 173.09 361.833 166.943 373.503C160.795 385.174 107.111 418.52 107.111 418.52L93.76 398.135L132.592 367.545L90.4986 357.646L76.8546 341.412L93.76 319.479Z" fill="#263238"/>
<path d="M121.482 425.417C121.613 424.04 121.613 422.653 121.482 421.276C120.927 417.531 119.914 413.867 118.467 410.368C117.611 408.128 116.59 405.677 115.522 403.084C114.971 401.782 114.455 400.398 113.915 399.003C113.375 397.607 112.742 396.188 112.132 394.722C109.586 388.857 106.688 382.547 103.638 375.884C98.7108 365.176 94.1706 355.288 90.5103 347.359V347.277V347.195C92.0589 340.767 93.4315 335.466 94.4639 331.865C94.9918 330.047 95.4377 328.639 95.7779 327.689C95.9066 327.329 96.0554 326.977 96.2237 326.634C96.3645 326.399 96.4349 326.294 96.4466 326.305C96.4583 326.317 96.4466 326.434 96.2941 326.669C96.1416 326.904 96.0829 327.267 95.9187 327.736C95.6136 328.698 95.2265 330.082 94.7455 331.947C93.7952 335.595 92.5047 340.873 91.0031 347.312V347.148C94.722 355.03 99.3326 364.906 104.248 375.626C107.298 382.3 110.114 388.658 112.695 394.499C113.317 395.965 113.939 397.384 114.467 398.815C114.994 400.246 115.499 401.583 116.039 402.897C117.094 405.512 118.092 407.952 118.913 410.216C120.334 413.758 121.296 417.467 121.775 421.253C121.92 422.647 121.821 424.056 121.482 425.417Z" fill="#455A64"/>
<path opacity="0.3" d="M94.6047 331.736C94.4874 332.17 94.6047 347.418 94.6047 347.418L102.23 360.402L96.1064 358.959L90.6628 347.629L94.6047 331.736Z" fill="black"/>
<path d="M128.474 329.402C126.75 327.713 121.705 322.974 118.15 319.643C117.868 319.36 117.674 319 117.592 318.608C117.511 318.217 117.545 317.809 117.69 317.437C117.835 317.064 118.086 316.741 118.411 316.508C118.737 316.275 119.123 316.142 119.523 316.124L160.408 315.292C160.709 315.281 161.008 315.337 161.284 315.457C161.56 315.577 161.806 315.757 162.004 315.984L170.544 325.578C170.805 325.873 170.976 326.237 171.038 326.626C171.1 327.015 171.049 327.413 170.893 327.775C170.737 328.136 170.481 328.446 170.156 328.668C169.83 328.889 169.448 329.014 169.054 329.026L129.976 330.059C129.694 330.058 129.415 330 129.157 329.887C128.898 329.774 128.666 329.609 128.474 329.402Z" fill="#455A64"/>
<path d="M116.907 322.036C119.94 320.741 123.138 319.873 126.409 319.455C131.102 318.986 133.531 320.98 136.076 320.746C138.622 320.511 145.579 321.191 145.579 323.091C145.579 324.992 135.912 325.637 135.912 325.637L144.394 328.346C144.394 328.346 154.061 327.173 154.237 328.346C154.413 329.519 145.579 330.692 141.508 331.232C137.437 331.771 113.845 332.076 110.454 331.232C107.064 330.387 82.9668 315.796 82.9668 315.796L94.5108 303.926L116.907 322.036Z" fill="#FFBF9D"/>
<path d="M57.4855 215.875C53.9925 216.619 50.7653 218.292 48.1448 220.718C45.5243 223.144 43.6079 226.232 42.5979 229.657C39.4421 239.697 45.4605 280.972 48.018 288.432C50.5755 295.892 78.1216 319.866 80.5501 317.825C82.9785 315.784 96.3645 303.914 96.3645 303.914L74.8367 278.439C74.8367 278.439 76.0099 248.201 74.5552 242.489C73.1004 236.777 63.5156 215.3 57.4855 215.875Z" fill="#278EA5"/>
<path d="M44.0175 266.217C45.5895 280.562 42.5158 286.719 42.5158 286.719C40.2742 288.552 38.835 291.186 38.5035 294.062C38.4658 294.363 38.4941 294.669 38.5865 294.958C38.679 295.247 38.8333 295.512 39.0388 295.735C39.2442 295.959 39.4959 296.134 39.7763 296.25C40.0566 296.367 40.359 296.42 40.6622 296.408L92.8097 295.235C92.8097 295.235 100.107 295.927 99.9544 289.007C99.7784 281.289 101.902 254.159 99.098 243.486C98.136 239.803 86.1931 221.857 86.1931 221.857L61.3335 207.782L58.6939 214.562C58.6939 214.562 50.8101 217.435 47.2085 222.08C44.825 225.053 43.1229 228.512 42.2225 232.214C40.0521 239.603 43.1728 258.534 44.0175 266.217Z" fill="#278EA5"/>
<path d="M175.131 242.278C175.131 242.278 174.686 241.867 173.102 242.371C171.518 242.876 167.025 245.093 164.983 245.62C162.942 246.148 158.519 247.849 158.519 247.849C156.498 247.819 154.528 248.481 152.935 249.726C149.814 251.884 140.992 257.701 140.992 257.701L144.019 266.287C145.46 266.011 146.93 265.917 148.395 266.006C150.471 266.404 152.611 266.316 154.648 265.748C156.994 265.02 160.291 263.73 160.291 263.73C160.291 263.73 163.447 263.988 164.279 262.839C165.112 261.689 164.279 259.625 164.279 259.625C164.279 259.625 167.377 256.775 166.051 255.18C164.725 253.584 163.059 251.802 163.059 251.802C163.059 251.802 172.257 246.922 173.993 245.632C175.73 244.342 176.023 243.333 175.131 242.278Z" fill="#FFBF9D"/>
<path d="M140.992 257.737L112.367 267.366L100.799 273.207L117.036 281.957L144.019 266.311L140.992 257.737Z" fill="#FFBF9D"/>
<path d="M158.331 250.664C158.864 253.107 158.742 255.648 157.98 258.03L157.839 258.487L157.604 258.1C159.505 258.44 161.194 258.769 162.414 259.05C163.634 259.332 164.326 259.824 164.256 259.883C163.624 259.704 162.981 259.563 162.332 259.461C161.159 259.297 159.399 259.027 157.499 258.698L157.17 258.64L157.264 258.311C157.264 258.171 157.346 258.018 157.381 257.866C157.922 255.5 158.24 253.089 158.331 250.664Z" fill="#FF9A6C"/>
<path d="M158.191 254.734C158.191 254.675 158.449 254.734 158.777 254.922C159.24 255.24 159.573 255.715 159.716 256.259L159.399 256.036C159.938 255.945 160.483 255.894 161.03 255.883C162.294 255.756 163.567 256.018 164.678 256.634C164.678 256.798 163.024 256.446 161.042 256.493C160.478 256.493 159.95 256.493 159.481 256.587H159.223V256.353C158.953 255.262 158.109 254.828 158.191 254.734Z" fill="#FF9A6C"/>
<path d="M162.496 252.529C162.602 252.681 161.828 253.326 161.135 254.323C160.443 255.32 160.068 256.247 159.904 256.212C159.739 256.177 159.904 255.039 160.631 253.971C161.358 252.904 162.426 252.388 162.496 252.529Z" fill="#FF9A6C"/>
<path d="M85.6886 215.547L88.5629 223.276C91.6835 226.232 99.4734 234.572 100.952 240.307C102.887 247.814 111.616 266.674 111.616 266.674C111.616 266.674 131.395 258.241 132.733 259.637C134.07 261.033 141.027 277.23 138.751 280.679C136.475 284.127 116.308 293.018 108.096 291.001C99.884 288.983 92.1762 277.172 92.1762 277.172L85.6886 215.547Z" fill="#278EA5"/>
<path d="M98.7108 240.389C98.9709 240.958 99.1866 241.546 99.3561 242.149C99.5989 242.842 99.7949 243.552 99.9426 244.272C100.189 245.21 100.385 246.162 100.529 247.122C100.94 249.624 101.168 252.152 101.21 254.687C101.21 257.549 101.21 260.681 100.952 263.965C100.506 270.533 100.036 276.456 100.095 280.749C100.095 281.828 100.095 282.802 100.095 283.646C100.095 284.491 100.166 285.241 100.212 285.84C100.297 286.457 100.325 287.082 100.295 287.705C100.139 287.1 100.033 286.485 99.9778 285.863C99.8957 285.265 99.8019 284.526 99.7549 283.67C99.708 282.814 99.6024 281.84 99.6024 280.761C99.4382 276.433 99.837 270.474 100.283 263.93C100.494 260.657 100.611 257.537 100.588 254.699C100.569 252.188 100.389 249.68 100.048 247.192C99.4616 242.946 98.5348 240.424 98.7108 240.389Z" fill="#263238"/>
<path d="M111.311 277.852C110.959 274.033 111.014 270.188 111.475 266.381C111.756 268.279 111.831 270.202 111.698 272.117C111.781 274.037 111.652 275.96 111.311 277.852Z" fill="#263238"/>
<path d="M74.4144 239.04C74.4415 239.27 74.4415 239.502 74.4144 239.732C74.4144 240.26 74.4144 240.905 74.4144 241.715C74.4144 243.521 74.4731 245.996 74.5082 249.01C74.5786 255.168 74.9071 263.683 74.649 273.09C74.4917 275.331 74.8948 277.577 75.8222 279.623C76.9294 281.416 78.2275 283.083 79.6937 284.596L86.9791 292.713L91.6718 298.273L92.9505 299.797C93.104 299.968 93.2414 300.153 93.3611 300.349C93.1787 300.208 93.0099 300.051 92.8567 299.879L91.4958 298.425L86.5802 293.03L79.3535 284.972C77.8457 283.434 76.512 281.735 75.3764 279.905C74.3815 277.777 73.9378 275.434 74.0859 273.09C74.344 263.707 74.0859 255.18 74.0859 249.022C74.0859 245.937 74.0859 243.439 74.1798 241.715C74.1798 240.858 74.2501 240.19 74.2736 239.732C74.2924 239.497 74.3396 239.264 74.4144 239.04Z" fill="#263238"/>
<path d="M56.4766 215.875C56.4766 215.946 55.3034 216.286 53.3325 217.353C50.5646 218.878 48.1625 220.987 46.2934 223.534C44.9959 225.273 43.9786 227.205 43.2784 229.258C42.8791 230.401 42.5885 231.579 42.4102 232.777C42.246 234.009 42.1404 235.299 42.0583 236.624C41.8882 239.386 41.8882 242.155 42.0583 244.917C42.246 247.779 42.6448 250.781 42.9499 253.796C43.5951 259.895 44.2052 265.701 44.7683 270.991C45.0856 275.671 45.7761 280.319 46.8331 284.89C47.6187 287.949 48.9936 290.825 50.8805 293.358C51.409 294.04 51.9812 294.686 52.5934 295.293C52.816 295.493 53.0275 295.704 53.2269 295.927C53.2269 295.927 53.1565 295.927 53.0274 295.81C52.8984 295.692 52.7224 295.575 52.5112 295.375C51.8553 294.808 51.2508 294.184 50.7046 293.511C48.7069 291.001 47.249 288.106 46.4225 285.007C45.2896 280.425 44.5478 275.756 44.2052 271.049C43.6303 265.759 43.032 259.953 42.3398 253.866C42.0348 250.816 41.6477 247.849 41.4599 244.952C41.2835 242.167 41.2835 239.374 41.4599 236.589C41.5538 235.252 41.6594 233.962 41.8471 232.695C42.0408 231.477 42.3471 230.279 42.7622 229.117C44.5901 223.951 48.3201 219.677 53.1917 217.165C53.9464 216.769 54.7309 216.432 55.538 216.157C55.8444 216.042 56.1579 215.948 56.4766 215.875Z" fill="#263238"/>
<path d="M86.064 223.511C85.6457 223.315 85.2519 223.071 84.8908 222.784L81.7115 220.626L82.04 220.461C82.04 222.08 82.04 223.98 82.04 226.08V226.514L81.6294 226.314L75.0479 223.007C70.5546 220.731 66.5072 218.632 63.586 217.142L60.0665 215.3C59.6544 215.085 59.2619 214.834 58.8933 214.55C59.3604 214.672 59.8099 214.853 60.2307 215.089L63.7502 216.767C66.7184 218.209 70.7893 220.285 75.2825 222.526L81.8523 225.88L81.4417 226.126C81.5121 224.027 81.5825 222.127 81.6294 220.508V220.098L81.9579 220.332L85.0199 222.678C85.3971 222.917 85.7472 223.196 86.064 223.511Z" fill="#263238"/>
<path d="M95.2969 484.274L85.6534 504.46C85.6534 504.46 104.166 521.42 102.77 525.337L60.6061 507.357L74.2619 475.219L95.2969 484.274Z" fill="#263238"/>
<path d="M73.3585 497.164C72.9203 497.096 72.4727 497.196 72.1051 497.444C71.7375 497.692 71.4771 498.07 71.3759 498.501C71.3236 498.95 71.4435 499.401 71.7113 499.765C71.9791 500.128 72.375 500.377 72.8189 500.46C73.285 500.531 73.7607 500.423 74.1503 500.157C74.5399 499.892 74.8145 499.489 74.9189 499.029C74.9204 498.553 74.7425 498.095 74.4206 497.745C74.0987 497.395 73.6566 497.179 73.1826 497.141" fill="#E0E0E0"/>
<path d="M60.6061 507.357L62.1195 504.178L102.007 522.651C102.007 522.651 103.544 524.223 102.793 525.384L60.6061 507.357Z" fill="#455A64"/>
<path d="M86.4277 504.542C86.3338 504.741 85.2545 504.389 83.9875 504.542C82.7204 504.694 81.8054 505.327 81.6411 505.163C81.4769 504.999 82.2746 503.99 83.835 503.814C85.3953 503.639 86.545 504.389 86.4277 504.542Z" fill="white"/>
<path d="M90.0997 508.166C90.0997 508.377 89.0321 508.33 87.9763 508.846C86.9204 509.362 86.3456 510.16 86.1461 510.019C85.9467 509.878 86.2869 508.776 87.6126 508.142C88.9383 507.509 90.1819 507.978 90.0997 508.166Z" fill="white"/>
<path d="M90.4986 514.242C90.2991 514.242 90.4282 513.069 91.4137 512.271C92.3991 511.474 93.5488 511.415 93.5723 511.614C93.5958 511.814 92.7511 512.13 91.9416 512.787C91.1321 513.444 90.6628 514.312 90.4986 514.242Z" fill="white"/>
</g>
<defs>
<clipPath id="clip0_12_98">
<rect width="540" height="528" fill="white"/>
</clipPath>
</defs>
</svg>
